MaoKenTangYuan-beta.sfdir
StartChar: exclam
Encoding: 33 33 6365
Width: 281
Flags: HW
LayerCount: 2
Fore
SplineSet
116.5 200 m 128
 110.166666667 205.333333333 106.666666667 212.666666667 106 222 c 2
 88 552 l 1
 88 651 l 2
 88 665.666666667 93.1666666667 678.166666667 103.5 688.5 c 128
 113.833333333 698.833333333 126.333333333 704 141 704 c 256
 155.666666667 704 168 698.833333333 178 688.5 c 128
 188 678.166666667 193 665.666666667 193 651 c 2
 193 552 l 1
 175 222 l 2
 174.333333333 212.666666667 171 205.333333333 165 200 c 128
 159 194.666666667 151 192 141 192 c 256
 131 192 122.833333333 194.666666667 116.5 200 c 128
99 13 m 128
 87 25 81 39.3333333333 81 56 c 0
 81 72 87 86 99 98 c 128
 111 110 125 116 141 116 c 0
 157.666666667 116 172 110 184 98 c 128
 196 86 202 72 202 56 c 0
 202 39.3333333333 196 25 184 13 c 128
 172 1 157.666666667 -5 141 -5 c 0
 125 -5 111 1 99 13 c 128
EndSplineSet
EndChar
StartChar: quotedbl
Encoding: 34 34 6366
Width: 413
Flags: HW
LayerCount: 2
Fore
SplineSet
81 574 m 2
 60 720 l 1
 59 729 l 1
 59 764.333333333 77.3333333333 782 114 782 c 0
 139.889315961 782 172.164088875 756.894755444 169 730 c 1
 160.355417808 678.977915526 153.830242114 625.836424553 146 574 c 0
 142.666666667 552 132 541 114 541 c 0
 95.3333333333 541 84.3333333333 552 81 574 c 2
267 574 m 2
 245 720 l 1
 244 730 l 1
 244 764.666666667 262.333333333 782 299 782 c 256
 335.666666667 782 354 764 354 728 c 1
 346.933199528 676.400133805 339.286296867 625.380369799 332 574 c 0
 328.666666667 552 317.666666667 541 299 541 c 0
 281 541 270.333333333 552 267 574 c 2
EndSplineSet
EndChar
StartChar: numbersign
Encoding: 35 35 6367
Width: 612
Flags: HW
LayerCount: 2
Fore
SplineSet
541 217 m 256
 541 198.541751993 523.457514492 181 505 181 c 2
 418 181 l 1
 393 24 l 2
 390.448285255 8.68971152346 374.659597267 -6 357 -6 c 0
 337.156313995 -6 321 10.1568641303 321 30 c 1
 345 181 l 1
 220 181 l 1
 195 24 l 2
 192.448285255 8.68971152346 176.659597267 -6 159 -6 c 0
 139.156313995 -6 123 10.1568641303 123 30 c 1
 147 181 l 1
 71 181 l 2
 52.5417519937 181 35 198.542485508 35 217 c 256
 35 235.458248007 52.5424855072 253 71 253 c 2
 158 253 l 1
 182 403 l 1
 106 403 l 2
 87.5417519937 403 70 420.542485508 70 439 c 256
 70 457.458248007 87.5424855072 475 106 475 c 2
 193 475 l 1
 218 632 l 2
 220.578165612 648.758076484 234.933553801 661 254 661 c 0
 274.705618847 661 290 645.37717125 290 625 c 0
 290 619 282 569 266 475 c 1
 391 475 l 1
 416 632 l 2
 418.578165612 648.758076484 432.933553801 661 452 661 c 0
 472.705618847 661 488 645.37717125 488 625 c 0
 488 619 480 569 464 475 c 1
 540 475 l 2
 558.458248007 475 576 457.457514492 576 439 c 256
 576 420.541751993 558.457514492 403 540 403 c 2
 453 403 l 1
 429 253 l 1
 505 253 l 2
 523.458248007 253 541 235.457514492 541 217 c 256
380 403 m 1
 255 403 l 1
 231 253 l 1
 356 253 l 1
 380 403 l 1
EndSplineSet
EndChar
StartChar: dollar
Encoding: 36 36 6368
Width: 616
Flags: HW
LayerCount: 2
Fore
SplineSet
343 387 m 1
 459.875366049 359.49991387 574 324.900260837 574 185 c 0
 574 102.286089092 524.672732746 48.6915978308 464 19.5 c 128
 428.666666667 2.5 388.333333333 -7.33333333333 343 -10 c 1
 343 -80 l 2
 343 -97.7257680283 329.026244684 -111 311 -111 c 0
 293.2657863 -111 280 -98.0642423994 280 -80 c 2
 280 -10 l 1
 209.333333333 -5.33333333333 142.333333333 10.3333333333 79 37 c 0
 64.9638092772 42.8484128011 50 59.9798372542 50 79 c 0
 50 102.817633673 68.1568641303 122 92 122 c 0
 99.3333333333 122 105.666666667 120.666666667 111 118 c 0
 164.333333333 94 220.666666667 80.6666666667 280 78 c 1
 280 306 l 1
 234 318 196.333333333 331 167 345 c 0
 105.338383699 372.405162801 57 421.34386035 57 503 c 0
 57 584.89814664 103.6265933 642.500874752 161 674 c 128
 195 692.666666667 234.666666667 704 280 708 c 1
 280 777 l 2
 280 794.177019338 293.797386775 809 311 809 c 256
 328.177019338 809 343 794.176469203 343 777 c 2
 343 709 l 1
 408.333333333 705.666666667 466 694.666666667 516 676 c 0
 535.333333333 668.666666667 545 655 545 635 c 0
 545 613.398467054 525.963077974 592 504 592 c 0
 499.333333333 592 494 593.333333333 488 596 c 0
 444 612 395.666666667 621 343 623 c 1
 343 387 l 1
280 620 m 1
 212.839670984 610.250919982 150 578.678242598 150 510 c 0
 150 482 160.333333333 460 181 444 c 128
 201.666666667 428 234.666666667 414 280 402 c 1
 280 620 l 1
482 191 m 0
 482 215 471.166666667 234.333333333 449.5 249 c 128
 427.833333333 263.666666667 392.333333333 277.666666667 343 291 c 1
 343 78 l 1
 435.666666667 84.6666666667 482 122.333333333 482 191 c 0
EndSplineSet
EndChar
StartChar: percent
Encoding: 37 37 6369
Width: 814
Flags: HW
LayerCount: 2
Fore
SplineSet
204 356 m 256
 100.959256329 356 42 432.070868125 42 536 c 256
 42 639.940840559 100.952842048 716 204 716 c 256
 307.040743671 716 366 639.929131875 366 536 c 256
 366 432.059159441 307.047157953 356 204 356 c 256
204 -11 m 0
 186.335445916 -11 170 5.02404842957 170 23 c 0
 170 29.6666666667 171.666666667 35.6666666667 175 41 c 2
 582 692 l 2
 589.333333333 702.666666667 599 708 611 708 c 0
 631.153152399 708 646 696.577498654 646 677 c 0
 646 669 643.666666667 661.333333333 639 654 c 2
 235 7 l 2
 227.666666667 -5 217.333333333 -11 204 -11 c 0
204 423 m 256
 263.662021077 423 294 473.257836962 294 536 c 256
 294 598.767751722 263.68381097 649 204 649 c 256
 144.337978923 649 114 598.742163038 114 536 c 256
 114 473.232248278 144.31618903 423 204 423 c 256
610 -19 m 256
 506.959256329 -19 448 57.0708681241 448 161 c 256
 448 264.940840559 506.952842047 341 610 341 c 256
 713.040743671 341 772 264.929131875 772 161 c 256
 772 57.0591594413 713.047157953 -19 610 -19 c 256
610 48 m 256
 669.662021077 48 700 98.2578369616 700 161 c 256
 700 223.767751722 669.68381097 274 610 274 c 256
 550.337978923 274 520 223.742163038 520 161 c 256
 520 98.2322482785 550.31618903 48 610 48 c 256
EndSplineSet
EndChar
StartChar: ampersand
Encoding: 38 38 6370
Width: 732
Flags: HW
LayerCount: 2
Fore
SplineSet
521 67 m 1
 470.379478532 24.4327433108 401.875354724 -11 316 -11 c 0
 211.784940091 -11 133.687207743 28.246975093 96.5 93.5 c 128
 78.8333333333 124.5 70 158.666666667 70 196 c 0
 70 286.489097193 125.575556108 350.913379986 183 388 c 1
 161.666666667 413.333333333 146.166666667 437 136.5 459 c 128
 126.833333333 481 122 505.666666667 122 533 c 0
 122 604.531145414 161.287807482 658.33170874 211 685.5 c 128
 239.666666667 701.166666667 272.666666667 709 310 709 c 0
 354 709 398.666666667 694.333333333 444 665 c 0
 452.336821571 660.236101959 462 646.728132361 462 634 c 0
 462 614.156313995 445.84313587 598 426 598 c 0
 422 598 416 599.666666667 408 603 c 0
 375.333333333 620.333333333 344 629 314 629 c 0
 254.984381478 629 208 593.868762159 208 538 c 0
 208 494.58411211 222.953322968 471.60871551 245 446.5 c 128
 257 432.833333333 278 412 308 384 c 2
 516 188 l 1
 522 196.666666667 532.666666667 216.333333333 548 247 c 0
 553.937983802 261.251161125 568.843000382 273 588 273 c 0
 611.817633673 273 631 254.84313587 631 231 c 0
 631 225.666666667 629.333333333 219 626 211 c 0
 613.333333333 183 597.333333333 155.666666667 578 129 c 1
 645 66 l 2
 655.440376056 56.7196657277 661 50.3898472976 661 33 c 0
 661 9.15631399536 642.84313587 -9 619 -9 c 256
 607 -9 596.333333333 -5 587 3 c 2
 521 67 l 1
239 331 m 1
 196.896692515 304.100664663 158 257.971184665 158 193 c 0
 158 139.447492196 192.265578378 103.264288602 231.5 84.5 c 128
 254.5 73.5 280 68 308 68 c 0
 364 68 414.666666667 86.3333333333 460 123 c 1
 239 331 l 1
EndSplineSet
EndChar
StartChar: parenleft
Encoding: 40 40 6372
Width: 312
Flags: HW
LayerCount: 2
Fore
SplineSet
266 -115 m 0
 266 -136.988696056 246.64504619 -155 225 -155 c 0
 206.054606206 -155 201.360702751 -148.511891947 191 -137 c 0
 105.433755475 -33.8171757184 50 122.925184481 50 307 c 256
 50 491.00678065 105.483483885 647.877142331 191 751 c 0
 201.366074752 762.517860836 206.048049554 769 225 769 c 0
 246.64318122 769 266 750.985639489 266 729 c 0
 266 723 264 715.333333333 260 706 c 0
 194.822376387 598.922475493 143 466.118960277 143 307 c 256
 143 148.082029861 194.923413489 14.9115349839 260 -92 c 0
 264 -101.333333333 266 -109 266 -115 c 0
EndSplineSet
EndChar
StartChar: parenright
Encoding: 41 41 6373
Width: 312
Flags: HW
LayerCount: 2
Fore
SplineSet
88 -155 m 0
 66.3568187804 -155 47 -136.985639489 47 -115 c 0
 47 -109 49 -101.333333333 53 -92 c 0
 118.177623613 15.0775245065 170 147.881039724 170 307 c 256
 170 465.917970138 118.076586512 599.088465017 53 706 c 0
 49 715.333333333 47 723 47 729 c 0
 47 750.988696056 66.3549538096 769 88 769 c 0
 106.945393794 769 111.639297249 762.511891947 122 751 c 0
 207.566244525 647.817175719 263 491.07481552 263 307 c 256
 263 122.993219351 207.516516114 -33.8771423317 122 -137 c 0
 111.633925248 -148.517860836 106.951950446 -155 88 -155 c 0
EndSplineSet
EndChar
StartChar: asterisk
Encoding: 42 42 6374
Width: 417
Flags: HW
LayerCount: 2
Fore
SplineSet
208 383 m 256
 192.182366327 383 177 397.15686413 177 413 c 0
 177 417.666666667 182.333333333 452.333333333 193 517 c 1
 172 500 l 2
 132.666666667 468 112 451.666666667 110 451 c 0
 106 449 101.666666667 448 97 448 c 0
 81.6607980559 448 65 460.094039776 65 480 c 0
 65 491.333333333 70 499.666666667 80 505 c 1
 177 543 l 1
 80 581 l 1
 70 587 65 595.666666667 65 607 c 0
 65 626.490160939 79.5194354227 639 96 639 c 0
 100 639 104.666666667 637.666666667 110 635 c 0
 112 634.333333333 132.666666667 618 172 586 c 2
 193 569 l 1
 182.333333333 633.666666667 177 668.333333333 177 673 c 0
 177 688.843686005 192.183008153 703 208 703 c 256
 223.817633673 703 239 688.84313587 239 673 c 0
 239 668.333333333 233.666666667 633.666666667 223 569 c 1
 250.230683176 591.102650157 277.661929486 613.004737181 305 635 c 0
 308.333333333 637.666666667 313.333333333 639 320 639 c 0
 335.871174996 639 351 626.824002527 351 608 c 0
 351 596.666666667 346 587.666666667 336 581 c 1
 239 543 l 1
 336 505 l 1
 346 499 351 490.333333333 351 479 c 0
 351 459.819042691 333.672987675 448 319 448 c 0
 314.333333333 448 310 449 306 451 c 0
 304 451.666666667 283.333333333 468 244 500 c 2
 223 517 l 1
 233.666666667 452.333333333 239 417.666666667 239 413 c 0
 239 397.156313995 223.816991847 383 208 383 c 256
EndSplineSet
EndChar
StartChar: plus
Encoding: 43 43 6375
Width: 562
Flags: HW
LayerCount: 2
Fore
SplineSet
281 103 m 0
 259.875085327 103 241 121.87581884 241 143 c 2
 241 306 l 1
 78 306 l 2
 56.8490329947 306 39 323.849674818 39 345 c 0
 39 366.975507539 56.3209324008 385 78 385 c 2
 241 385 l 1
 241 548 l 2
 241 569.982184116 259.337829095 588 281 588 c 0
 303.510352671 588 321 570.509802536 321 548 c 2
 321 385 l 1
 483 385 l 2
 505.510352671 385 523 367.509802536 523 345 c 0
 523 323.322729604 504.972384868 306 483 306 c 2
 321 306 l 1
 321 143 l 2
 321 121.33966171 302.979094927 103 281 103 c 0
EndSplineSet
EndChar
StartChar: comma
Encoding: 44 44 6376
Width: 260
Flags: HW
LayerCount: 2
Fore
SplineSet
92 -152 m 0
 76.1563139954 -152 62 -136.816991847 62 -121 c 0
 62 -110.333333333 67 -101.666666667 77 -95 c 0
 110.567596339 -75.1080910585 128 -54.5753417455 128 -4 c 1
 125 -4 l 2
 94.6199089911 -4 68 22.6209175723 68 53 c 2
 68 59 l 2
 68 89.3800910086 94.6209175727 116 125 116 c 2
 135 116 l 2
 166.877796616 116 187.244449606 87.5333023603 192 59 c 0
 193.333333333 52.3333333333 194 42.3333333333 194 29 c 0
 194 -18.55179331 180.728519102 -60.3612128568 166 -89 c 128
 154 -112.333333333 135.333333333 -131.666666667 110 -147 c 0
 104.666666667 -150.333333333 98.6666666667 -152 92 -152 c 0
EndSplineSet
EndChar
StartChar: hyphen
Encoding: 45 45 6377
Width: 408
Flags: HW
LayerCount: 2
Fore
SplineSet
109 239 m 2
 86.5156996612 239 68 257.516341486 68 280 c 0
 68 303.843686005 85.1307201086 322 109 322 c 2
 298 322 l 2
 320.458248007 322 340 302.457514492 340 280 c 0
 340 256.130261663 321.84313587 239 298 239 c 2
 109 239 l 2
EndSplineSet
EndChar
StartChar: period
Encoding: 46 46 6382
GlifName: period
Width: 260
Flags: HW
LayerCount: 2
Fore
SplineSet
85 13 m 128
 73.6666666667 24.3333333333 68 37.6666666667 68 53 c 2
 68 59 l 2
 68 74.3333333333 73.6666666667 87.6666666667 85 99 c 128
 96.3333333333 110.333333333 109.666666667 116 125 116 c 2
 135 116 l 2
 150.333333333 116 163.666666667 110.333333333 175 99 c 128
 186.333333333 87.6666666667 192 74.3333333333 192 59 c 2
 192 53 l 2
 192 37.6666666667 186.333333333 24.3333333333 175 13 c 128
 163.666666667 1.66666666667 150.333333333 -4 135 -4 c 2
 125 -4 l 2
 109.666666667 -4 96.3333333333 1.66666666667 85 13 c 128
EndSplineSet
EndChar
StartChar: slash
Encoding: 47 47 6379
Width: 443
Flags: HW
LayerCount: 2
Fore
SplineSet
89 -96 m 0
 65.1563139954 -96 47 -77.8431358697 47 -54 c 0
 47 -50 48 -45 50 -39 c 2
 315 736 l 2
 320.030789475 752.350065792 334.121158809 765 355 765 c 0
 378.843686005 765 397 746.84313587 397 723 c 0
 397 719 396 714 394 708 c 2
 129 -67 l 2
 123.969210525 -83.3500657913 109.878841191 -96 89 -96 c 0
EndSplineSet
EndChar
StartChar: zero
Encoding: 48 48 6380
Width: 628
Flags: HW
LayerCount: 2
Fore
SplineSet
314 -11 m 0
 122.915162846 -11 42 147.393550751 42 349 c 256
 42 550.692585937 122.854143995 709 314 709 c 0
 504.215321453 709 586 551.13816157 586 349 c 256
 586 146.767465913 504.283856853 -11 314 -11 c 0
314 75 m 256
 446.274160035 75 493 202.969919508 493 349 c 0
 493 494.408274811 445.954786804 622 314 622 c 256
 182.104390481 622 135 494.289061275 135 349 c 0
 135 202.84822135 181.666028675 75 314 75 c 256
EndSplineSet
EndChar
StartChar: one
Encoding: 49 49 6381
Width: 628
Flags: HW
LayerCount: 2
Fore
SplineSet
177 -1 m 2
 153.182366327 -1 134 18.1830081521 134 42 c 256
 134 65.7915813395 153.183008153 86 177 86 c 2
 295 86 l 1
 295 575 l 2
 295 584.668112838 290.037258997 588.164147999 281 583 c 2
 194 541 l 2
 185.333333333 537 177.666666667 535 171 535 c 0
 145.822980662 535 127 553.823530797 127 579 c 0
 127 598.333333333 136 612.333333333 154 621 c 2
 290 692 l 2
 297.333333333 696.666666667 306.666666667 699 318 699 c 2
 339 699 l 2
 365.432195673 699 388 676.431370471 388 650 c 2
 388 86 l 1
 486 86 l 2
 509.791581339 86 530 65.7908478263 530 42 c 256
 530 18.1823663278 509.790847827 -1 486 -1 c 2
 177 -1 l 2
EndSplineSet
EndChar
StartChar: two
Encoding: 50 50 6382
Width: 628
Flags: HW
LayerCount: 2
Fore
SplineSet
118 -1 m 2
 86.1563139954 -1 64 20.1307201086 64 52 c 0
 64 128.465114474 116.783985239 184.949488006 163 222.5 c 128
 205.970949646 257.413896587 327.554809472 333.002294223 380 372 c 0
 436 414 464 456 464 498 c 0
 464 586.170587624 400.74923967 621 307 621 c 0
 247 621 190 609 136 585 c 0
 128 581.666666667 121.666666667 580 117 580 c 0
 95.3227296033 580 78 598.027615132 78 620 c 0
 78 636.666666667 85.6666666667 649.333333333 101 658 c 0
 169 692 243 709 323 709 c 0
 416.166310172 709 486.86066665 669.065966692 524 611.5 c 128
 544 580.5 554 545 554 505 c 0
 554 464.333333333 542.666666667 427.666666667 520 395 c 0
 498.666666667 363.666666667 473.166666667 335.666666667 443.5 311 c 128
 400.350831798 275.123163517 248.843208603 176.472154707 203.5 139.5 c 128
 181.833333333 121.833333333 166.666666667 104 158 86 c 1
 504 86 l 2
 527.791581339 86 548 65.7908478263 548 42 c 256
 548 18.1823663278 527.790847827 -1 504 -1 c 2
 118 -1 l 2
EndSplineSet
EndChar
StartChar: three
Encoding: 51 51 6387
GlifName: three
Width: 628
Flags: HW
LayerCount: 2
Fore
SplineSet
513.5 302 m 128
 540.5 272.666666667 554 233 554 183 c 0
 554 122.333333333 530.166666667 74.8333333333 482.5 40.5 c 128
 434.833333333 6.16666666667 372 -11 294 -11 c 0
 218 -11 148.333333333 2.33333333333 85 29 c 0
 67 36.3333333333 58 49.3333333333 58 68 c 0
 58 80 61.8333333333 90.1666666667 69.5 98.5 c 128
 77.1666666667 106.833333333 87 111 99 111 c 0
 105 111 111.333333333 109.666666667 118 107 c 0
 166.666666667 87.6666666667 219.666666667 78 277 78 c 0
 332.333333333 78 376.833333333 87 410.5 105 c 128
 444.166666667 123 461 150.666666667 461 188 c 0
 461 271.333333333 387.666666667 313 241 313 c 2
 225 313 l 2
 213.666666667 313 203.666666667 317.333333333 195 326 c 128
 186.333333333 334.666666667 182 344.666666667 182 356 c 256
 182 367.333333333 186.333333333 377.333333333 195 386 c 128
 203.666666667 394.666666667 213.666666667 399 225 399 c 2
 231 399 l 2
 298.333333333 399 349.333333333 409.166666667 384 429.5 c 128
 418.666666667 449.833333333 436 479.666666667 436 519 c 0
 436 551.666666667 422.333333333 577 395 595 c 128
 367.666666667 613 329 622 279 622 c 0
 222.333333333 622 170.666666667 611 124 589 c 0
 117.333333333 586.333333333 111.333333333 585 106 585 c 0
 96 585 87.1666666667 588.666666667 79.5 596 c 128
 71.8333333333 603.333333333 68 612.333333333 68 623 c 0
 68 638.333333333 75 650 89 658 c 0
 152.333333333 692 218.333333333 709 287 709 c 0
 363.666666667 709 423.166666667 693.333333333 465.5 662 c 128
 507.833333333 630.666666667 529 586 529 528 c 0
 529 446.666666667 489.333333333 391 410 361 c 1
 452 351 486.5 331.333333333 513.5 302 c 128
EndSplineSet
EndChar
StartChar: four
Encoding: 52 52 6384
Width: 628
Flags: HW
LayerCount: 2
Fore
SplineSet
433 -6 m 256
 407.875085327 -6 387 14.8758188404 387 40 c 2
 387 175 l 1
 83 175 l 2
 51.2865756582 175 24 201.261440218 24 233 c 2
 24 242 l 2
 24 256 28 268.333333333 36 279 c 2
 350 680 l 2
 360.58061758 692.93186593 378.798826747 704 401 704 c 2
 421 704 l 2
 454.959588056 704 480 678.630092681 480 645 c 2
 480 258 l 1
 555 258 l 2
 577.458248007 258 597 238.457514492 597 216 c 0
 597 192.130261663 578.84313587 175 555 175 c 2
 480 175 l 1
 480 40 l 2
 480 14.8750853272 458.098037138 -6 433 -6 c 256
387 574 m 2
 387 577.96880072 384.475742631 584 381 584 c 0
 379 584 376.333333333 582 373 578 c 2
 135 272 l 2
 132.333333333 269.333333333 131 267 131 265 c 0
 131 260.333333333 134.666666667 258 142 258 c 2
 387 258 l 1
 387 574 l 2
EndSplineSet
EndChar
StartChar: five
Encoding: 53 53 6385
Width: 628
Flags: HW
LayerCount: 2
Fore
SplineSet
572 216 m 0
 572 63.8648573687 457.857180507 -11 297 -11 c 0
 215.666666667 -11 144.333333333 8.33333333333 83 47 c 0
 70.5429482265 55.7199362415 63 63.9020765721 63 84 c 0
 63 108.631828679 79.6208458819 128 104 128 c 0
 110 128 117 126.333333333 125 123 c 0
 179 95 232.333333333 81 285 81 c 0
 402.306656381 81 479 110.980110113 479 221 c 0
 479 308.266095822 415.167885554 354 325 354 c 0
 269 354 218 339.666666667 172 311 c 1
 160 305 l 2
 153.333333333 301 145.333333333 299 136 299 c 0
 99.2449538376 299 69 322.030700507 69 358 c 0
 69 363.333333333 69.6666666667 371.333333333 71 382 c 2
 116 648 l 1
 119.71530927 676.484037734 138.876165562 699 170 699 c 2
 491 699 l 2
 514.791581339 699 535 678.790847827 535 655 c 256
 535 631.182366327 514.790847827 612 491 612 c 2
 221 612 l 2
 208.333333333 612 201 606 199 594 c 2
 170 403 l 1
 221.333333333 429.666666667 277.333333333 443 338 443 c 0
 480.708928804 443 572 358.169380612 572 216 c 0
EndSplineSet
EndChar
StartChar: six
Encoding: 54 54 6386
Width: 628
Flags: HW
LayerCount: 2
Fore
SplineSet
548 629 m 0
 548 606.846283221 528.784567284 587 506 587 c 0
 500 587 494.333333333 588 489 590 c 0
 447 609.333333333 402.666666667 619 356 619 c 0
 287.333333333 619 236.5 595.5 203.5 548.5 c 128
 170.5 501.5 151.666666667 441.333333333 147 368 c 1
 193.666666667 424.666666667 261.666666667 453 351 453 c 0
 449.358082073 453 517.389675103 405.40885551 552.5 339.5 c 128
 571.5 303.833333333 581 263 581 217 c 0
 581 122.593165156 529.172193407 52.7470123776 463 18.5 c 128
 425 -1.16666666667 381.666666667 -11 333 -11 c 0
 149.666666667 -11 58 108.666666667 58 348 c 0
 58 404.666666667 67.6666666667 461 87 517 c 0
 123.938059297 624.120371962 209.948068691 709 349 709 c 0
 424.700625997 709 473.828292792 692.722093936 526 666 c 0
 537.634373648 660.182813177 548 645.479997889 548 629 c 0
334 76 m 0
 421.048469418 76 488 132.292123984 488 219 c 0
 488 312.098862341 433.12418116 368 340 368 c 0
 254 368 191.333333333 331.666666667 152 259 c 1
 170 137 230.666666667 76 334 76 c 0
EndSplineSet
EndChar
StartChar: seven
Encoding: 55 55 6387
Width: 628
Flags: HW
LayerCount: 2
Fore
SplineSet
230 -6 m 0
 204.875085327 -6 184 14.8758188404 184 40 c 0
 184 49.3333333333 186 57.3333333333 190 64 c 2
 457 596 l 2
 458.333333333 600 459 602.333333333 459 603 c 0
 459 607.666666667 455.666666667 610 449 610 c 2
 103 610 l 2
 79.2084186605 610 59 630.209152173 59 654 c 256
 59 677.765529007 79.2091521737 699 103 699 c 2
 511 699 l 2
 542.765529007 699 568 676.84313587 568 645 c 0
 568 631 564.666666667 616.333333333 558 601 c 2
 274 20 l 2
 267.045904506 6.09180901271 249.626046952 -6 230 -6 c 0
EndSplineSet
EndChar
StartChar: eight
Encoding: 56 56 6388
Width: 628
Flags: HW
LayerCount: 2
Fore
SplineSet
549 526 m 0
 549 445.742065914 496.940994863 396.632286585 435 374 c 1
 533 340.666666667 582 277.666666667 582 185 c 0
 582 100.585367945 531.134973613 45.8489719405 465.5 16.5 c 128
 424.5 -1.83333333333 374 -11 314 -11 c 0
 201.019409638 -11 116.912492499 24.5210642117 74.5 90 c 128
 55.5 119.333333333 46 151 46 185 c 0
 46 277.666666667 95 340.666666667 193 374 c 1
 131.021020341 396.646165645 79 445.707109588 79 526 c 0
 79 556 87 584.333333333 103 611 c 0
 136.661636721 674.115568852 214.216816099 709 314 709 c 0
 416.234198767 709 487.308971886 675.64092723 524 614 c 128
 540.666666667 586 549 556.666666667 549 526 c 0
314 413 m 256
 393.505262764 413 456 447.840133766 456 520 c 0
 456 593.758302707 392.317200398 627 314 627 c 256
 235.644601077 627 172 593.786097658 172 520 c 0
 172 447.884209533 234.549598421 413 314 413 c 256
314 329 m 256
 221.577085487 329 139 283.777919129 139 195 c 0
 139 178.333333333 145 160.333333333 157 141 c 0
 184.04117193 96.880193167 240.097637488 71 314 71 c 0
 387.97116607 71 442.147122169 96.0875362542 470.5 139 c 128
 482.833333333 157.666666667 489 176.333333333 489 195 c 0
 489 283.757487248 406.377524043 329 314 329 c 256
EndSplineSet
EndChar
StartChar: nine
Encoding: 57 57 6389
Width: 628
Flags: HW
LayerCount: 2
Fore
SplineSet
80 69 m 0
 80 90.61262541 100.078183296 111 122 111 c 0
 128 111 133.666666667 110 139 108 c 0
 181 88.6666666667 225.333333333 79 272 79 c 0
 340.666666667 79 391.5 102.5 424.5 149.5 c 128
 457.5 196.5 476.333333333 256.666666667 481 330 c 1
 434.333333333 273.333333333 366.333333333 245 277 245 c 0
 180.388911056 245 110.164955577 293.427188653 75.5 358.5 c 128
 56.5 394.166666667 47 435 47 481 c 0
 47 576.096701651 98.7085468168 645.191265457 165 679.5 c 128
 203 699.166666667 246.333333333 709 295 709 c 0
 478.333333333 709 570 589.333333333 570 350 c 0
 570 215.429247222 523.731391122 103.124415317 444.5 41.5 c 128
 399.5 6.5 344.333333333 -11 279 -11 c 0
 203.299374003 -11 154.171707209 5.27790606359 102 32 c 0
 90.3656263519 37.817186824 80 52.5200021101 80 69 c 0
140 479 m 0
 140 385.901137659 194.87581884 330 288 330 c 0
 374 330 436.666666667 366.333333333 476 439 c 1
 458 561 397.333333333 622 294 622 c 0
 230.245953497 622 183.034815348 592.612184148 159 551.5 c 128
 146.333333333 529.833333333 140 505.666666667 140 479 c 0
EndSplineSet
EndChar
StartChar: colon
Encoding: 58 58 6390
Width: 260
Flags: HW
LayerCount: 2
Fore
SplineSet
85 411 m 128
 73.6666666667 422.333333333 68 435.666666667 68 451 c 2
 68 457 l 2
 68 472.333333333 73.6666666667 485.666666667 85 497 c 128
 96.3333333333 508.333333333 109.666666667 514 125 514 c 2
 135 514 l 2
 150.333333333 514 163.666666667 508.333333333 175 497 c 128
 186.333333333 485.666666667 192 472.333333333 192 457 c 2
 192 451 l 2
 192 435.666666667 186.333333333 422.333333333 175 411 c 128
 163.666666667 399.666666667 150.333333333 394 135 394 c 2
 125 394 l 2
 109.666666667 394 96.3333333333 399.666666667 85 411 c 128
85 13 m 128
 73.6666666667 24.3333333333 68 37.6666666667 68 53 c 2
 68 59 l 2
 68 74.3333333333 73.6666666667 87.6666666667 85 99 c 128
 96.3333333333 110.333333333 109.666666667 116 125 116 c 2
 135 116 l 2
 150.333333333 116 163.666666667 110.333333333 175 99 c 128
 186.333333333 87.6666666667 192 74.3333333333 192 59 c 2
 192 53 l 2
 192 37.6666666667 186.333333333 24.3333333333 175 13 c 128
 163.666666667 1.66666666667 150.333333333 -4 135 -4 c 2
 125 -4 l 2
 109.666666667 -4 96.3333333333 1.66666666667 85 13 c 128
EndSplineSet
EndChar
StartChar: semicolon
Encoding: 59 59 6391
Width: 260
Flags: HW
LayerCount: 2
Fore
SplineSet
125 394 m 2
 94.6199089911 394 68 420.620917573 68 451 c 2
 68 457 l 2
 68 487.380091009 94.6209175727 514 125 514 c 2
 135 514 l 2
 165.380091009 514 192 487.379082427 192 457 c 2
 192 451 l 2
 192 420.619908991 165.379082427 394 135 394 c 2
 125 394 l 2
92 -152 m 0
 76.1563139954 -152 62 -136.816991847 62 -121 c 0
 62 -110.333333333 67 -101.666666667 77 -95 c 0
 110.567596339 -75.1080910585 128 -54.5753417455 128 -4 c 1
 125 -4 l 2
 94.6199089911 -4 68 22.6209175723 68 53 c 2
 68 59 l 2
 68 89.3800910086 94.6209175727 116 125 116 c 2
 135 116 l 2
 166.877796616 116 187.244449606 87.5333023603 192 59 c 0
 193.333333333 52.3333333333 194 42.3333333333 194 29 c 0
 194 -18.55179331 180.728519102 -60.3612128568 166 -89 c 128
 154 -112.333333333 135.333333333 -131.666666667 110 -147 c 0
 104.666666667 -150.333333333 98.6666666667 -152 92 -152 c 0
EndSplineSet
EndChar
StartChar: less
Encoding: 60 60 6396
GlifName: less
Width: 580
Flags: HW
LayerCount: 2
Fore
SplineSet
470 60 m 2
 71 239 l 2
 46.3333333333 251 34 268.666666667 34 292 c 2
 34 300 l 2
 34 323.333333333 46.3333333333 341 71 353 c 2
 470 532 l 2
 475.333333333 534 480.666666667 535 486 535 c 0
 497.333333333 535 507 531 515 523 c 128
 523 515 527 505.333333333 527 494 c 0
 527 486 524.333333333 478.333333333 519 471 c 128
 513.666666667 463.666666667 507 458.333333333 499 455 c 2
 141 296 l 1
 499 137 l 2
 507 133.666666667 513.666666667 128.333333333 519 121 c 128
 524.333333333 113.666666667 527 106 527 98 c 0
 527 86.6666666667 523 77 515 69 c 128
 507 61 497.333333333 57 486 57 c 0
 480.666666667 57 475.333333333 58 470 60 c 2
EndSplineSet
EndChar
StartChar: equal
Encoding: 61 61 6393
Width: 712
Flags: HW
LayerCount: 2
Fore
SplineSet
112 403 m 2
 90.8750853275 403 72 421.87581884 72 443 c 0
 72 464.982184116 90.3378290946 483 112 483 c 2
 600 483 l 2
 622.510352671 483 640 465.509802536 640 443 c 0
 640 421.33966171 621.979094927 403 600 403 c 2
 112 403 l 2
112 179 m 2
 90.8750853275 179 72 197.87581884 72 219 c 0
 72 240.982184116 90.3378290946 259 112 259 c 2
 600 259 l 2
 622.510352671 259 640 241.509802536 640 219 c 0
 640 197.33966171 621.979094927 179 600 179 c 2
 112 179 l 2
EndSplineSet
EndChar
StartChar: greater
Encoding: 62 62 6394
Width: 580
Flags: HW
LayerCount: 2
Fore
SplineSet
65 69 m 128
 57 77 53 86.6666666667 53 98 c 0
 53 106 55.6666666667 113.666666667 61 121 c 128
 66.3333333333 128.333333333 73 133.666666667 81 137 c 2
 438 296 l 1
 81 455 l 2
 73 458.333333333 66.3333333333 463.666666667 61 471 c 128
 55.6666666667 478.333333333 53 486 53 494 c 0
 53 505.333333333 57 515 65 523 c 128
 73 531 82.6666666667 535 94 535 c 0
 100 535 105.333333333 534 110 532 c 2
 509 353 l 2
 533.666666667 341 546 323.333333333 546 300 c 2
 546 292 l 2
 546 268.666666667 533.666666667 251 509 239 c 2
 110 60 l 2
 105.333333333 58 100 57 94 57 c 0
 82.6666666667 57 73 61 65 69 c 128
EndSplineSet
EndChar
StartChar: question
Encoding: 63 63 6395
Width: 497
Flags: HW
LayerCount: 2
Fore
SplineSet
221 185 m 256
 197.799986554 185 176 201.989570741 176 225 c 0
 176 284.127291782 199.41077751 327.462124698 227 358.5 c 128
 240.333333333 373.5 260.333333333 391.666666667 287 413 c 0
 314.333333333 434.333333333 333.5 452.166666667 344.5 466.5 c 128
 355.5 480.833333333 361 496.666666667 361 514 c 0
 361 586 313.666666667 622 219 622 c 0
 169.201806091 622 123.957169084 608.665950207 92 589 c 0
 82.6666666667 583.666666667 74 581 66 581 c 0
 44.9011376597 581 25 600.901962862 25 622 c 0
 25 637.333333333 33.3333333333 650.333333333 50 661 c 0
 100.511014299 693.031374921 149.645024796 709 227 709 c 0
 354.783145816 709 453 642.262631211 453 519 c 0
 453 469.614402968 431.696612472 427.99643418 407 402 c 128
 394.333333333 388.666666667 376 372.333333333 352 353 c 0
 320.666666667 328.333333333 298.5 307 285.5 289 c 128
 272.5 271 266 249.666666667 266 225 c 0
 266 202.866058793 243.62890583 185 221 185 c 256
219 -5 m 0
 186.781862648 -5 159 23.4932922926 159 56 c 0
 159 87.6873720093 187.313728261 116 219 116 c 0
 251.510386933 116 280 88.2196170674 280 56 c 0
 280 22.9532423249 252.045749095 -5 219 -5 c 0
EndSplineSet
EndChar
StartChar: at
Encoding: 64 64 6396
Width: 898
Flags: HW
LayerCount: 2
Fore
SplineSet
215 -37 m 0
 162.333333333 -5.66666666667 121.333333333 36.6666666667 92 90 c 128
 62.6666666667 143.333333333 48 200.666666667 48 262 c 0
 48 338.666666667 67.3333333333 409.333333333 106 474 c 0
 144.666666667 540 196.833333333 592.333333333 262.5 631 c 128
 328.166666667 669.666666667 398.333333333 689 473 689 c 0
 541.666666667 689 605.333333333 674.333333333 664 645 c 0
 723.333333333 614.333333333 770 572.5 804 519.5 c 128
 838 466.5 855 407.333333333 855 342 c 0
 855 298 848.666666667 258.333333333 836 223 c 0
 822.666666667 183.666666667 801.666666667 152.333333333 773 129 c 128
 744.333333333 105.666666667 709.333333333 94 668 94 c 0
 636.666666667 94 611.166666667 100.833333333 591.5 114.5 c 128
 571.833333333 128.166666667 559.666666667 145.666666667 555 167 c 1
 535 142.333333333 510.833333333 123.833333333 482.5 111.5 c 128
 454.166666667 99.1666666667 423.666666667 93 391 93 c 0
 338.333333333 93 296.666666667 109.333333333 266 142 c 128
 235.333333333 174.666666667 220 217.333333333 220 270 c 0
 220 320 231.333333333 363.666666667 254 401 c 0
 275.333333333 437 304.333333333 464.833333333 341 484.5 c 128
 377.666666667 504.166666667 416.666666667 514 458 514 c 0
 508.666666667 514 551 497.333333333 585 464 c 1
 588 479 l 2
 589.333333333 488.333333333 593.666666667 496 601 502 c 128
 608.333333333 508 616.666666667 511 626 511 c 0
 636.666666667 511 645.5 507.333333333 652.5 500 c 128
 659.5 492.666666667 663 483.666666667 663 473 c 2
 662 462 l 1
 629 272 l 2
 624.333333333 248.666666667 622 227 622 207 c 256
 622 187 626.333333333 171.333333333 635 160 c 128
 643.666666667 148.666666667 655.666666667 143 671 143 c 0
 711 143 742.333333333 160.5 765 195.5 c 128
 787.666666667 230.5 799 279.333333333 799 342 c 0
 799 402.666666667 783.333333333 455.333333333 752 500 c 0
 721.333333333 543.333333333 681.166666667 576.5 631.5 599.5 c 128
 581.833333333 622.5 529 634 473 634 c 0
 408.333333333 634 347.333333333 617 290 583 c 0
 232.666666667 548.333333333 187 502.5 153 445.5 c 128
 119 388.5 102 327.333333333 102 262 c 0
 102 214 114 167 138 121 c 0
 162.666666667 75 197.5 38.3333333333 242.5 11 c 128
 287.5 -16.3333333333 340 -30 400 -30 c 0
 438.666666667 -30 472.833333333 -26.5 502.5 -19.5 c 128
 532.166666667 -12.5 567.666666667 -0.666666666667 609 16 c 0
 614.333333333 17.3333333333 618 18 620 18 c 0
 627.333333333 18 633.5 15.5 638.5 10.5 c 128
 643.5 5.5 646 -0.333333333333 646 -7 c 0
 646 -11.6666666667 644.666666667 -16.3333333333 642 -21 c 128
 639.333333333 -25.6666666667 635.666666667 -29 631 -31 c 0
 560.333333333 -66.3333333333 483.333333333 -84 400 -84 c 0
 331.333333333 -84 269.666666667 -68.3333333333 215 -37 c 0
558 303 m 2
 574 396 l 1
 545.333333333 426 508 441 462 441 c 0
 432 441 405.333333333 434.666666667 382 422 c 0
 356 408.666666667 335.666666667 389.666666667 321 365 c 128
 306.333333333 340.333333333 299 312 299 280 c 0
 299 243.333333333 309.166666667 214.833333333 329.5 194.5 c 128
 349.833333333 174.166666667 377.666666667 164 413 164 c 0
 493.666666667 164 542 210.333333333 558 303 c 2
EndSplineSet
EndChar
StartChar: A
Encoding: 65 65 6397
Width: 746
Flags: HW
LayerCount: 2
Fore
SplineSet
95 -6 m 0
 69.0156058601 -6 49 14.3410589157 49 40 c 0
 49 44.6666666667 50.6666666667 51.3333333333 54 60 c 2
 309 662 l 2
 319.284095502 684.853545559 337.480240849 704 368 704 c 2
 378 704 l 2
 408.500490637 704 426.725337445 684.832583455 437 662 c 2
 692 60 l 2
 695.333333333 51.3333333333 697 44.6666666667 697 40 c 0
 697 14.342784519 676.981412539 -6 651 -6 c 0
 628.726699201 -6 614.107318586 6.4162566329 607 23 c 2
 542 178 l 1
 204 178 l 1
 139 23 l 2
 131.887888466 6.40507308714 117.285712824 -6 95 -6 c 0
373 573 m 256
 369.666666667 573 367 570.666666667 365 566 c 2
 239 263 l 1
 507 263 l 1
 381 566 l 2
 379 570.666666667 376.333333333 573 373 573 c 256
EndSplineSet
EndChar
StartChar: B
Encoding: 66 66 6398
Width: 693
Flags: HW
LayerCount: 2
Fore
SplineSet
142 -1 m 2
 116.875085327 -1 96 19.8758188404 96 45 c 2
 96 652 l 2
 96 677.098862341 116.87581884 699 142 699 c 2
 378 699 l 2
 506.195939699 699 603 639.393300838 603 517 c 0
 603 439.662213183 561.791740442 387.905336564 507 363 c 1
 580.192554962 339.3894984 642 287.279344102 642 196 c 0
 642 53.2355498241 535.953007271 -1 384 -1 c 2
 142 -1 l 2
354 397 m 2
 451.731319419 397 514 422.375304221 514 510 c 0
 514 580.864439961 447.272519582 612 371 612 c 2
 201 612 l 2
 193 612 189 608 189 600 c 2
 189 397 l 1
 354 397 l 2
375 86 m 2
 478.517150292 86 552 108.853369904 552 200 c 0
 552 275.333333333 493.333333333 313 376 313 c 2
 189 313 l 1
 189 98 l 2
 189 90 193 86 201 86 c 2
 375 86 l 2
EndSplineSet
EndChar
StartChar: C
Encoding: 67 67 6399
Width: 695
Flags: HW
LayerCount: 2
Fore
SplineSet
615 129 m 0
 637.795254711 129 656 112.195793254 656 90 c 0
 656 72 648.333333333 59 633 51 c 0
 564.676844163 11.9581966645 504.460430774 -11 405 -11 c 0
 259.29291992 -11 154.015142729 60.7529295848 99.5 159 c 128
 69.1666666667 213.666666667 54 277 54 349 c 0
 54 500.269707485 124.239255589 609.509776679 224.5 665 c 128
 277.5 694.333333333 337.666666667 709 405 709 c 0
 504.373707001 709 564.737101237 686.007370721 633 647 c 0
 648.333333333 639.666666667 656 626.666666667 656 608 c 0
 656 586.653888677 637.251717951 569 615 569 c 0
 607.666666667 569 601.666666667 570.333333333 597 573 c 0
 540.50173728 602.477354462 493.698004835 620 414 620 c 0
 296.572371239 620 219.214998285 567.698647498 178.5 489.5 c 128
 157.5 449.166666667 147 402.333333333 147 349 c 256
 147 235.49462963 195.372204659 154.707523594 270 112.5 c 128
 310.666666667 89.5 358.666666667 78 414 78 c 0
 493.629470477 78 540.548875917 95.5472396093 597 125 c 0
 601.666666667 127.666666667 607.666666667 129 615 129 c 0
EndSplineSet
EndChar
StartChar: D
Encoding: 68 68 6400
Width: 751
Flags: HW
LayerCount: 2
Fore
SplineSet
142 -1 m 2
 116.875085327 -1 96 19.8758188404 96 45 c 2
 96 652 l 2
 96 677.098862341 116.87581884 699 142 699 c 2
 343 699 l 2
 418.333333333 699 483.333333333 682.333333333 538 649 c 0
 627.601557741 590.817170298 697 486.796228686 697 349 c 0
 697 211.246067418 626.784017802 103.52366509 535 48 c 128
 481 15.3333333333 417 -1 343 -1 c 2
 142 -1 l 2
332 86 m 2
 445.316399446 86 529.327371003 137.725817588 571.5 212 c 128
 593.833333333 251.333333333 605 297 605 349 c 256
 605 460.52845463 551.150402833 539.582450127 475 579.5 c 128
 433.666666667 601.166666667 386 612 332 612 c 2
 201 612 l 2
 193 612 189 608 189 600 c 2
 189 98 l 2
 189 90 193 86 201 86 c 2
 332 86 l 2
EndSplineSet
EndChar
StartChar: E
Encoding: 69 69 6401
Width: 638
Flags: HW
LayerCount: 2
Fore
SplineSet
142 -1 m 2
 116.875085327 -1 96 19.8758188404 96 45 c 2
 96 652 l 2
 96 677.098862341 116.87581884 699 142 699 c 2
 543 699 l 2
 566.791581339 699 587 678.790847827 587 655 c 256
 587 631.182366327 566.790847827 612 543 612 c 2
 201 612 l 2
 193 612 189 608 189 600 c 2
 189 393 l 1
 507 393 l 2
 530.791581339 393 551 372.790847827 551 349 c 256
 551 325.182366327 530.790847827 306 507 306 c 2
 189 306 l 1
 189 98 l 2
 189 90 193 86 201 86 c 2
 543 86 l 2
 566.791581339 86 587 65.7908478263 587 42 c 256
 587 18.1823663278 566.790847827 -1 543 -1 c 2
 142 -1 l 2
EndSplineSet
EndChar
StartChar: F
Encoding: 70 70 6402
Width: 608
Flags: HW
LayerCount: 2
Fore
SplineSet
142 -6 m 256
 116.875085327 -6 96 14.8758188404 96 40 c 2
 96 652 l 2
 96 677.098862341 116.87581884 699 142 699 c 2
 531 699 l 2
 554.791581339 699 575 678.790847827 575 655 c 256
 575 631.182366327 554.790847827 612 531 612 c 2
 201 612 l 2
 193 612 189 608 189 600 c 2
 189 393 l 1
 496 393 l 2
 519.791581339 393 540 372.790847827 540 349 c 256
 540 325.182366327 519.790847827 306 496 306 c 2
 189 306 l 1
 189 40 l 2
 189 14.8750853272 167.098037138 -6 142 -6 c 256
EndSplineSet
EndChar
StartChar: G
Encoding: 71 71 6403
Width: 757
Flags: HW
LayerCount: 2
Fore
SplineSet
625 384 m 2
 651.432195673 384 674 361.431370471 674 335 c 2
 674 108 l 2
 674 76.7852052597 657.531423186 55.6727794038 635 45 c 0
 559 7.66666666667 482.666666667 -11 406 -11 c 0
 257.956158563 -11 151.729309322 62.9786656867 98 162.5 c 128
 68.6666666667 216.833333333 54 278.666666667 54 348 c 0
 54 498.044691007 127.060850001 607.228358438 226 663.5 c 128
 279.333333333 693.833333333 338.333333333 709 403 709 c 0
 511.927943433 709 580.457673386 681.405582036 652 637 c 0
 663.444396986 631.913601339 673 616.33067883 673 600 c 0
 673 576.484444718 654.138200281 558 630 558 c 0
 624 558 617 559.666666667 609 563 c 0
 551.996972745 596.251765899 495.801160252 619 413 619 c 0
 250.166950408 619 147 512.694736837 147 348 c 0
 147 236.379752243 200.039345216 153.211977259 275 111.5 c 128
 316.333333333 88.5 364 77 418 77 c 0
 479.333333333 77 537.333333333 91.6666666667 592 121 c 1
 592 288 l 2
 592 296 588 300 580 300 c 2
 428 300 l 2
 405.541751993 300 386 319.542485508 386 342 c 256
 386 364.458248007 405.542485508 384 428 384 c 2
 625 384 l 2
EndSplineSet
EndChar
StartChar: H
Encoding: 72 72 6404
Width: 755
Flags: W
LayerCount: 2
Fore
SplineSet
142 -6 m 256
 116.875085327 -6 96 14.8758188404 96 40 c 2
 96 657 l 2
 96 682.098862341 116.87581884 704 142 704 c 256
 167.098862341 704 189 682.098037138 189 657 c 2
 189 392 l 1
 566 392 l 1
 566 657 l 2
 566 682.098862341 586.87581884 704 612 704 c 256
 637.098862341 704 659 682.098037138 659 657 c 2
 659 40 l 2
 659 14.8750853272 637.098037138 -6 612 -6 c 256
 586.875085327 -6 566 14.8758188404 566 40 c 2
 566 305 l 1
 189 305 l 1
 189 40 l 2
 189 14.8750853272 167.098037138 -6 142 -6 c 256
EndSplineSet
EndChar
StartChar: I
Encoding: 73 73 6405
Width: 285
Flags: W
HStem: -6 21G<135.667 148.333> 684 20G<135.667 148.333>
VStem: 96 93<7.92322 689.561>
LayerCount: 2
Fore
SplineSet
109.5 7.5 m 0
 100.5 16.5 96 27.3333333333 96 40 c 2
 96 657 l 2
 96 669.666666667 100.5 680.666666667 109.5 690 c 0
 118.5 699.333333333 129.333333333 704 142 704 c 256
 154.666666667 704 165.666666667 699.333333333 175 690 c 0
 184.333333333 680.666666667 189 669.666666667 189 657 c 2
 189 40 l 2
 189 27.3333333333 184.333333333 16.5 175 7.5 c 0
 165.666666667 -1.5 154.666666667 -6 142 -6 c 256
 129.333333333 -6 118.5 -1.5 109.5 7.5 c 0
EndSplineSet
EndChar
StartChar: J
Encoding: 74 74 6410
GlifName: J_
Width: 466
Flags: HW
LayerCount: 2
Fore
SplineSet
34 23 m 0
 19.3333333333 32.3333333333 12 45 12 61 c 0
 12 71.6666666667 15.6666666667 81.3333333333 23 90 c 128
 30.3333333333 98.6666666667 39.6666666667 103 51 103 c 0
 58.3333333333 103 64.3333333333 101.666666667 69 99 c 0
 99 84.3333333333 130 77 162 77 c 0
 200.666666667 77 230.333333333 88 251 110 c 128
 271.666666667 132 282 170 282 224 c 2
 282 657 l 2
 282 669.666666667 286.5 680.666666667 295.5 690 c 128
 304.5 699.333333333 315.333333333 704 328 704 c 256
 340.666666667 704 351.666666667 699.333333333 361 690 c 128
 370.333333333 680.666666667 375 669.666666667 375 657 c 2
 375 230 l 2
 375 150.666666667 357.5 90.6666666667 322.5 50 c 128
 287.5 9.33333333333 236 -11 168 -11 c 0
 119.333333333 -11 74.6666666667 0.333333333333 34 23 c 0
EndSplineSet
EndChar
StartChar: K
Encoding: 75 75 6411
GlifName: K_
Width: 670
Flags: HW
LayerCount: 2
Fore
SplineSet
109.5 7.5 m 128
 100.5 16.5 96 27.3333333333 96 40 c 2
 96 657 l 2
 96 669.666666667 100.5 680.666666667 109.5 690 c 128
 118.5 699.333333333 129.333333333 704 142 704 c 256
 154.666666667 704 165.666666667 699.333333333 175 690 c 128
 184.333333333 680.666666667 189 669.666666667 189 657 c 2
 189 341 l 1
 529 688 l 2
 537.666666667 698.666666667 549.333333333 704 564 704 c 0
 576 704 586.166666667 700.166666667 594.5 692.5 c 128
 602.833333333 684.833333333 607 675 607 663 c 0
 607 650.333333333 603.333333333 639.666666667 596 631 c 2
 365 402 l 1
 630 69 l 2
 637.333333333 59.6666666667 641 49 641 37 c 256
 641 25 636.5 14.8333333333 627.5 6.5 c 128
 618.5 -1.83333333333 608 -6 596 -6 c 0
 581.333333333 -6 569 0 559 12 c 2
 302 340 l 1
 189 227 l 1
 189 40 l 2
 189 27.3333333333 184.333333333 16.5 175 7.5 c 128
 165.666666667 -1.5 154.666666667 -6 142 -6 c 256
 129.333333333 -6 118.5 -1.5 109.5 7.5 c 128
EndSplineSet
EndChar
StartChar: L
Encoding: 76 76 6408
Width: 576
Flags: W
LayerCount: 2
Fore
SplineSet
160 -1 m 2
 125.645961324 -1 96 28.647061594 96 63 c 2
 96 657 l 2
 96 682.098862341 116.87581884 704 142 704 c 256
 167.098862341 704 189 682.098037138 189 657 c 2
 189 104 l 2
 189 96 193 92 201 92 c 2
 515 92 l 2
 540.098862341 92 562 70.0980371378 562 45 c 256
 562 19.8750853272 540.098037138 -1 515 -1 c 2
 160 -1 l 2
EndSplineSet
EndChar
StartChar: M
Encoding: 77 77 6409
Width: 966
Flags: HW
LayerCount: 2
Fore
SplineSet
142 -6 m 256
 116.875085327 -6 96 14.8758188404 96 40 c 2
 96 637 l 2
 96 672.661319677 126.313728261 704 162 704 c 2
 195 704 l 2
 224.667678084 704 246.964808928 683.300424603 257 661 c 1
 475 117 l 2
 477 112.333333333 479.666666667 110 483 110 c 256
 486.333333333 110 489 112.333333333 491 117 c 2
 709 661 l 1
 719.047152596 683.327005768 741.306045041 704 771 704 c 2
 804 704 l 2
 839.687372009 704 870 672.660127717 870 637 c 2
 870 40 l 2
 870 14.8750853272 849.12418116 -6 824 -6 c 256
 798.901137659 -6 777 14.8758188404 777 40 c 2
 777 568 l 2
 777 574 775 577 771 577 c 0
 768.333333333 577 766 575 764 571 c 2
 548 37 l 2
 538.489263051 14.4119997448 513.648528843 -6 483 -6 c 256
 452.368764231 -6 427.503870104 14.4283085023 418 37 c 2
 202 571 l 2
 200 575 197.666666667 577 195 577 c 0
 191 577 189 574 189 568 c 2
 189 40 l 2
 189 14.8750853272 167.098037138 -6 142 -6 c 256
EndSplineSet
EndChar
StartChar: N
Encoding: 78 78 6410
Width: 803
Flags: HW
LayerCount: 2
Fore
SplineSet
142 -6 m 256
 116.875085327 -6 96 14.8758188404 96 40 c 2
 96 637 l 2
 96 672.661319677 126.313728261 704 162 704 c 2
 175 704 l 2
 196.333333333 704 215 694 231 674 c 1
 600 141 l 2
 603.333333333 137 606 135 608 135 c 0
 611.471502829 135 614 141.039047369 614 145 c 2
 614 657 l 2
 614 682.098862341 634.87581884 704 660 704 c 256
 685.098862341 704 707 682.098037138 707 657 c 2
 707 60 l 2
 707 24.3126279907 675.660127717 -6 640 -6 c 2
 628 -6 l 2
 604.532138189 -6 584.586243557 6.88500859031 574 21 c 2
 203 557 l 2
 199.666666667 561 197 563 195 563 c 0
 191.528497171 563 189 556.960952631 189 553 c 2
 189 40 l 2
 189 14.8750853272 167.098037138 -6 142 -6 c 256
EndSplineSet
EndChar
StartChar: O
Encoding: 79 79 6411
Width: 812
Flags: HW
HStem: -11 87<293.03 517.988> 622 87<293.929 517.231>
VStem: 54 93<229.262 468.955> 665 93<228.065 468.407>
LayerCount: 2
Fore
SplineSet
406 -11 m 0
 256.653756248 -11 153.571175032 61.1942352862 99.5 162.5 c 0
 70.5 216.833333333 55.3333333333 279 54 349 c 0
 56.8298429164 497.566753115 122.688463966 605.895866779 222 663 c 0
 275.333333333 693.666666667 336.666666667 709 406 709 c 0
 555.593410945 709 658.501499267 636.790277244 712.5 535 c 0
 741.5 480.333333333 756.666666667 418.333333333 758 349 c 0
 755.154717866 201.04532901 687.813271156 91.8856663295 589.5 35 c 0
 536.5 4.33333333333 475.333333333 -11 406 -11 c 0
406 76 m 0
 518.574081437 76 594.260429586 131.889410144 633.5 208.5 c 0
 654.5 249.5 665 296.333333333 665 349 c 0
 665 460.989696576 615.619040502 543.920908177 543 587 c 0
 503.666666667 610.333333333 458 622 406 622 c 0
 293.425918563 622 217.739570414 566.110589856 178.5 489.5 c 0
 157.5 448.5 147 401.666666667 147 349 c 0
 147 237.62607909 196.506958686 152.957434621 268.5 110.5 c 0
 307.5 87.5 353.333333333 76 406 76 c 0
EndSplineSet
EndChar
StartChar: P
Encoding: 80 80 6412
Width: 672
Flags: HW
LayerCount: 2
Fore
SplineSet
142 -6 m 256
 116.875085327 -6 96 14.8758188404 96 40 c 2
 96 652 l 2
 96 677.098862341 116.87581884 699 142 699 c 2
 370 699 l 2
 485.973598344 699 567.667592965 659.688482147 609.5 588.5 c 128
 628.5 556.166666667 638 518.666666667 638 476 c 0
 638 381.415899979 592.15752218 318.607856709 523.5 284 c 128
 482.5 263.333333333 431.333333333 253 370 253 c 2
 189 253 l 1
 189 40 l 2
 189 14.8750853272 167.098037138 -6 142 -6 c 256
361 341 m 2
 467.73817214 341 545 377.00105961 545 476 c 256
 545 574.963391333 467.684131051 611 361 611 c 2
 201 611 l 2
 193 611 189 607 189 599 c 2
 189 341 l 1
 361 341 l 2
EndSplineSet
EndChar
StartChar: Q
Encoding: 81 81 6413
Width: 812
Flags: HW
LayerCount: 2
Fore
SplineSet
574 -137 m 2
 466 -7 l 1
 450.666666667 -9.66666666667 430.666666667 -11 406 -11 c 0
 336 -11 274.333333333 4.33333333333 221 35 c 0
 169 65.6666666667 128.5 108.166666667 99.5 162.5 c 128
 70.5 216.833333333 55.3333333333 279 54 349 c 0
 55.3333333333 419 70.3333333333 481 99 535 c 0
 127.666666667 589.666666667 168.666666667 632.333333333 222 663 c 128
 275.333333333 693.666666667 336.666666667 709 406 709 c 0
 476 709 537.666666667 693.666666667 591 663 c 0
 643 632.333333333 683.5 589.666666667 712.5 535 c 128
 741.5 480.333333333 756.666666667 418.333333333 758 349 c 0
 756.666666667 271 737.833333333 202.833333333 701.5 144.5 c 128
 665.166666667 86.1666666667 615.333333333 43.6666666667 552 17 c 1
 639 -79 l 2
 647 -88.3333333333 651 -99 651 -111 c 0
 651 -122.333333333 646.5 -132.166666667 637.5 -140.5 c 128
 628.5 -148.833333333 618.333333333 -153 607 -153 c 0
 594.333333333 -153 583.333333333 -147.666666667 574 -137 c 2
544 112 m 0
 582.666666667 135.333333333 612.5 167.5 633.5 208.5 c 128
 654.5 249.5 665 296.333333333 665 349 c 0
 665 401 654.666666667 447.666666667 634 489 c 0
 612.666666667 531 582.333333333 563.666666667 543 587 c 128
 503.666666667 610.333333333 458 622 406 622 c 0
 352 622 306 610 268 586 c 0
 229.333333333 562.666666667 199.5 530.5 178.5 489.5 c 128
 157.5 448.5 147 401.666666667 147 349 c 0
 147 297 157.333333333 250.333333333 178 209 c 0
 199.333333333 166.333333333 229.5 133.5 268.5 110.5 c 128
 307.5 87.5 353.333333333 76 406 76 c 0
 460 76 506 88 544 112 c 0
EndSplineSet
EndChar
StartChar: R
Encoding: 82 82 6414
Width: 712
Flags: HW
LayerCount: 2
Fore
SplineSet
648 495 m 0
 648 403.149174461 591.516786743 339.731763039 519 314 c 1
 562.333333333 301.333333333 593.666666667 273.5 613 230.5 c 128
 632.333333333 187.5 642 139.333333333 642 86 c 2
 642 40 l 2
 642 14.8750853272 621.12418116 -6 596 -6 c 0
 568.130261663 -6 549 12.1045760869 549 40 c 2
 549 70 l 2
 549 188.286670062 515.250056115 271 395 271 c 2
 189 271 l 1
 189 40 l 2
 189 14.8750853272 167.098037138 -6 142 -6 c 256
 116.875085327 -6 96 14.8758188404 96 40 c 2
 96 652 l 2
 96 677.098862341 116.87581884 699 142 699 c 2
 375 699 l 2
 528.129450058 699 648 636.379628345 648 495 c 0
369 359 m 2
 468.391922478 359 555 396.471432631 555 488 c 0
 555 529.333333333 540.166666667 560.166666667 510.5 580.5 c 128
 480.833333333 600.833333333 432 611 364 611 c 2
 201 611 l 2
 193 611 189 607 189 599 c 2
 189 359 l 1
 369 359 l 2
EndSplineSet
EndChar
StartChar: S
Encoding: 83 83 6415
Width: 616
Flags: HW
LayerCount: 2
Fore
SplineSet
327 623 m 0
 237.737260913 623 150 591.652381553 150 510 c 0
 150 459.292810962 190.308329949 434.242173051 229 419 c 128
 251 410.333333333 284 401 328 391 c 0
 384 377.666666667 426.666666667 365 456 353 c 0
 522.513971358 327.900388167 574 274.334320382 574 185 c 0
 574 98.8705608543 516.400700134 41.0994385175 450.5 13.5 c 128
 411.5 -2.83333333333 367 -11 317 -11 c 0
 232.333333333 -11 153 5 79 37 c 0
 64.9638092772 42.8484128011 50 59.9798372542 50 79 c 0
 50 102.817633673 68.1568641303 122 92 122 c 0
 99.3333333333 122 105.666666667 120.666666667 111 118 c 0
 173 90.6666666667 238.666666667 77 308 77 c 0
 424 77 482 115 482 191 c 0
 482 233.956631311 444.060512145 257.511145547 410 270 c 128
 390 277.333333333 357 287 311 299 c 0
 258.333333333 312.333333333 214.666666667 326 180 340 c 0
 110.299836475 366.280389525 57 415.151088141 57 503 c 256
 57 592.868890536 110.199171336 653.647577765 178.5 683 c 128
 218.833333333 700.333333333 265 709 317 709 c 0
 390.333333333 709 456.666666667 698 516 676 c 0
 535.333333333 668.666666667 545 655 545 635 c 0
 545 613.398467054 525.963077974 592 504 592 c 0
 499.333333333 592 494 593.333333333 488 596 c 0
 436 614 382.333333333 623 327 623 c 0
EndSplineSet
EndChar
StartChar: T
Encoding: 84 84 6416
Width: 609
Flags: W
LayerCount: 2
Fore
SplineSet
304 -6 m 256
 278.875085327 -6 258 14.8758188404 258 40 c 2
 258 612 l 1
 55 612 l 2
 31.1823663279 612 12 631.183008153 12 655 c 256
 12 678.791581339 31.1830081521 699 55 699 c 2
 553 699 l 2
 576.791581339 699 597 678.790847827 597 655 c 256
 597 631.182366327 576.790847827 612 553 612 c 2
 351 612 l 1
 351 40 l 2
 351 14.8750853272 329.098037138 -6 304 -6 c 256
EndSplineSet
EndChar
StartChar: U
Encoding: 85 85 6417
Width: 758
Flags: HW
LayerCount: 2
Fore
SplineSet
620 704 m 256
 645.098862341 704 667 682.098037138 667 657 c 2
 667 262 l 2
 667 141.179331576 602.713897708 59.8569592206 518.5 20 c 128
 474.833333333 -0.666666666667 428.333333333 -11 379 -11 c 0
 267.593307154 -11 178.812508453 41.0685845719 132 113 c 128
 104.666666667 155 91 204.666666667 91 262 c 2
 91 657 l 2
 91 682.098862341 111.87581884 704 137 704 c 256
 162.098862341 704 184 682.098037138 184 657 c 2
 184 259 l 2
 184 176.925955027 226.073362173 122.762308163 282.5 95.5 c 128
 312.166666667 81.1666666667 344.333333333 74 379 74 c 0
 455.817902859 74 517.42627319 109.523715792 548 159.5 c 128
 565.333333333 187.833333333 574 221 574 259 c 2
 574 657 l 2
 574 682.098862341 594.87581884 704 620 704 c 256
EndSplineSet
EndChar
StartChar: V
Encoding: 86 86 6418
Width: 694
Flags: HW
LayerCount: 2
Fore
SplineSet
273 41 m 2
 26 640 l 2
 24 645.333333333 23 651 23 657 c 0
 23 671 27.1666666667 682.333333333 35.5 691 c 128
 43.8333333333 699.666666667 55 704 69 704 c 0
 79 704 87.8333333333 701.166666667 95.5 695.5 c 128
 103.166666667 689.833333333 109 682 113 672 c 2
 339 108 l 2
 341 103.333333333 343.666666667 101 347 101 c 256
 350.333333333 101 353 103.333333333 355 108 c 2
 581 672 l 2
 585 682 590.833333333 689.833333333 598.5 695.5 c 128
 606.166666667 701.166666667 615 704 625 704 c 0
 639 704 650.166666667 699.666666667 658.5 691 c 128
 666.833333333 682.333333333 671 671 671 657 c 0
 671 651 670 645.333333333 668 640 c 2
 421 41 l 2
 407 9.66666666667 386 -6 358 -6 c 2
 336 -6 l 2
 308 -6 287 9.66666666667 273 41 c 2
EndSplineSet
EndChar
StartChar: W
Encoding: 87 87 6419
Width: 1011
Flags: HW
LayerCount: 2
Fore
SplineSet
249.5 6 m 128
 239.166666667 14 231.333333333 25.3333333333 226 40 c 2
 30 642 l 2
 28 650 27 656.333333333 27 661 c 0
 27 673 31.3333333333 683.166666667 40 691.5 c 128
 48.6666666667 699.833333333 59.3333333333 704 72 704 c 0
 82.6666666667 704 92.1666666667 700.666666667 100.5 694 c 128
 108.833333333 687.333333333 114.666666667 678.333333333 118 667 c 2
 278 142 l 2
 280 136.666666667 282.333333333 134 285 134 c 256
 287.666666667 134 290 136.666666667 292 142 c 2
 453 665 l 2
 456.333333333 677 463 686.5 473 693.5 c 128
 483 700.5 494 704 506 704 c 256
 518 704 529 700.5 539 693.5 c 128
 549 686.5 555.666666667 677 559 665 c 2
 720 142 l 2
 722 136.666666667 724.333333333 134 727 134 c 256
 729.666666667 134 732 136.666666667 734 142 c 2
 894 667 l 2
 897.333333333 678.333333333 903.166666667 687.333333333 911.5 694 c 128
 919.833333333 700.666666667 929.333333333 704 940 704 c 0
 952.666666667 704 963.333333333 699.833333333 972 691.5 c 128
 980.666666667 683.166666667 985 673 985 661 c 0
 985 656.333333333 984 650 982 642 c 2
 786 40 l 2
 780.666666667 25.3333333333 772.833333333 14 762.5 6 c 128
 752.166666667 -2 740 -6 726 -6 c 256
 712 -6 699.5 -1.66666666667 688.5 7 c 128
 677.5 15.6666666667 670 26.6666666667 666 40 c 2
 513 524 l 2
 511 529.333333333 508.666666667 532 506 532 c 256
 503.333333333 532 501 529.333333333 499 524 c 2
 346 40 l 2
 342 26.6666666667 334.5 15.6666666667 323.5 7 c 128
 312.5 -1.66666666667 300 -6 286 -6 c 256
 272 -6 259.833333333 -2 249.5 6 c 128
EndSplineSet
EndChar
StartChar: X
Encoding: 88 88 6420
Width: 671
Flags: HW
LayerCount: 2
Fore
SplineSet
86 -6 m 0
 63.5678043264 -6 43 14.5686295289 43 37 c 0
 43 47.6666666667 46 57.3333333333 52 66 c 2
 283 349 l 1
 54 630 l 1
 48 639.333333333 45 649 45 659 c 0
 45 684.150967004 64.8496748186 704 90 704 c 0
 106.352744179 704 119.88128284 695.278533896 128 686 c 2
 338 419 l 1
 548 688 l 2
 556 698.666666667 567.333333333 704 582 704 c 0
 605.765529007 704 627 683.790847827 627 660 c 0
 627 650 624.333333333 641.333333333 619 634 c 2
 388 350 l 1
 619 67 l 2
 625 60.3333333333 628 51.3333333333 628 40 c 0
 628 14.342784519 607.981412539 -6 582 -6 c 0
 566.666666667 -6 554.333333333 0.333333333333 545 13 c 2
 332 281 l 1
 122 12 l 1
 111.333333333 0 99.3333333333 -6 86 -6 c 0
EndSplineSet
EndChar
StartChar: Y
Encoding: 89 89 6421
Width: 639
Flags: HW
LayerCount: 2
Fore
SplineSet
320 -6 m 256
 294.901137659 -6 273 14.8758188404 273 40 c 2
 273 295 l 1
 34 629 l 1
 28.6666666667 639.666666667 26 649 26 657 c 0
 26 682.098862341 45.8496748186 704 71 704 c 0
 88.3333333333 704 102 696.333333333 112 681 c 2
 320 378 l 1
 528 681 l 2
 538 696.333333333 551.666666667 704 569 704 c 0
 592.765529007 704 614 682.764703804 614 659 c 0
 614 651 611.333333333 641 606 629 c 1
 366 295 l 1
 366 40 l 2
 366 14.8750853272 345.12418116 -6 320 -6 c 256
EndSplineSet
EndChar
StartChar: Z
Encoding: 90 90 6422
Width: 638
Flags: HW
LayerCount: 2
Fore
SplineSet
105 -1 m 2
 73.2865756582 -1 46 26.287584239 46 58 c 0
 46 72.6666666667 50 85.3333333333 58 96 c 2
 463 596 l 2
 465.666666667 598.666666667 467 601 467 603 c 0
 467 607.666666667 463.666666667 610 457 610 c 2
 92 610 l 2
 68.2084186605 610 48 630.209152173 48 654 c 256
 48 677.765529007 68.2091521737 699 92 699 c 2
 526 699 l 2
 561.791581339 699 588 671.764703804 588 636 c 0
 588 622.666666667 582.666666667 609 572 595 c 2
 172 100 l 2
 169.333333333 97.3333333333 168 95 168 93 c 0
 168 88.3333333333 171.333333333 86 178 86 c 2
 550 86 l 2
 573.791581339 86 594 65.7908478263 594 42 c 256
 594 18.1823663278 573.790847827 -1 550 -1 c 2
 105 -1 l 2
EndSplineSet
EndChar
StartChar: bracketleft
Encoding: 91 91 6423
Width: 322
Flags: HW
LayerCount: 2
Fore
SplineSet
131 -133 m 2
 107.234470993 -133 86 -111.764703804 86 -88 c 2
 86 688 l 2
 86 711.765529007 107.235296196 733 131 733 c 2
 258 733 l 2
 277.817633673 733 295 715.816991847 295 696 c 256
 295 676.182366327 277.816991847 659 258 659 c 2
 179 659 l 2
 171 659 167 655 167 647 c 2
 167 -48 l 2
 167 -56 171 -60 179 -60 c 2
 258 -60 l 2
 277.277616107 -60 295 -77.0091654268 295 -96 c 0
 295 -115.817633673 277.816991847 -133 258 -133 c 2
 131 -133 l 2
EndSplineSet
EndChar
StartChar: backslash
Encoding: 92 92 6424
Width: 443
Flags: HW
LayerCount: 2
Fore
SplineSet
396 -54 m 0
 396 -77.8436860046 377.84313587 -96 354 -96 c 0
 333.125203969 -96 319.029086222 -83.3445302199 314 -67 c 2
 49 708 l 2
 47 714 46 719 46 723 c 0
 46 746.843686005 64.1568641303 765 88 765 c 0
 108.874796031 765 122.970913778 752.34453022 128 736 c 2
 393 -39 l 2
 395 -45 396 -50 396 -54 c 0
EndSplineSet
EndChar
StartChar: bracketright
Encoding: 93 93 6425
Width: 322
Flags: HW
LayerCount: 2
Fore
SplineSet
64 -133 m 2
 44.1823663279 -133 27 -115.816991847 27 -96 c 0
 27 -77.0110538884 44.7258014828 -60 64 -60 c 2
 143 -60 l 2
 151 -60 155 -56 155 -48 c 2
 155 647 l 2
 155 655 151 659 143 659 c 2
 64 659 l 2
 44.1823663279 659 27 676.183008153 27 696 c 256
 27 715.817633673 44.1830081521 733 64 733 c 2
 191 733 l 2
 214.765529007 733 236 711.764703804 236 688 c 2
 236 -88 l 2
 236 -111.765529007 214.764703804 -133 191 -133 c 2
 64 -133 l 2
EndSplineSet
EndChar
StartChar: asciicircum
Encoding: 94 94 6426
Width: 524
Flags: HW
LayerCount: 2
Fore
SplineSet
118 414 m 0
 98.1823663279 414 81 431.183008153 81 451 c 0
 81 455 83 461 87 469 c 2
 192 668 l 2
 203.004958493 687.808925286 214.891165307 703 242 703 c 2
 280 703 l 2
 307.091661858 703 319.006945522 687.78749806 330 668 c 2
 435 469 l 2
 439 461 441 455 441 451 c 0
 441 431.182366327 423.816991847 414 404 414 c 0
 393.333333333 414 383.666666667 418.333333333 375 427 c 0
 371.666666667 429.666666667 348.666666667 467 306 539 c 0
 270 599 270 599 270 599 c 2
 267.333333333 603.666666667 264.333333333 606 261 606 c 256
 257.666666667 606 255 604 253 600 c 0
 219.666666667 545.333333333 198.666666667 510.666666667 190 496 c 0
 162 450.666666667 147 427 145 425 c 0
 139.666666667 417.666666667 130.666666667 414 118 414 c 0
EndSplineSet
EndChar
StartChar: underscore
Encoding: 95 95 6427
Width: 663
Flags: HW
LayerCount: 2
Fore
SplineSet
85 -148 m 2
 67.3354459154 -148 51 -131.975951571 51 -114 c 0
 51 -96.8750853275 67.8758188404 -80 85 -80 c 2
 578 -80 l 2
 595.979187264 -80 612 -96.3334695366 612 -114 c 0
 612 -132.510352671 596.509802536 -148 578 -148 c 2
 85 -148 l 2
EndSplineSet
EndChar
StartChar: grave
Encoding: 96 96 6428
Width: 240
Flags: HW
LayerCount: 2
Fore
SplineSet
228 594 m 0
 228 577.575098502 216.760260116 566 200 566 c 0
 190.666666667 566 183 569.666666667 177 577 c 2
 108 659 l 2
 101.333333333 665.666666667 98 674.333333333 98 685 c 0
 98 708.431238292 112.911320296 723 136 723 c 0
 152 723 163.333333333 716.333333333 170 703 c 2
 221 614 l 2
 225.666666667 606 228 599.333333333 228 594 c 0
EndSplineSet
EndChar
StartChar: a
Encoding: 97 97 6433
GlifName: a
Width: 562
Flags: HW
LayerCount: 2
Fore
SplineSet
128 7 m 0
 102 19 81.6666666667 36.6666666667 67 60 c 128
 52.3333333333 83.3333333333 45 110 45 140 c 0
 45 192 65.1666666667 232.166666667 105.5 260.5 c 128
 145.833333333 288.833333333 202.666666667 303 276 303 c 2
 396 303 l 1
 396 310 l 2
 396 352.666666667 385.5 383.833333333 364.5 403.5 c 128
 343.5 423.166666667 309.666666667 433 263 433 c 0
 239 433 217.333333333 431.166666667 198 427.5 c 128
 178.666666667 423.833333333 156 417.666666667 130 409 c 1
 117 407 l 2
 107 407 98.1666666667 410.833333333 90.5 418.5 c 128
 82.8333333333 426.166666667 79 435.333333333 79 446 c 0
 79 464.666666667 88 477.666666667 106 485 c 0
 162 509 219.666666667 521 279 521 c 0
 325 521 364.333333333 511.666666667 397 493 c 0
 427.666666667 475 450.666666667 451.166666667 466 421.5 c 128
 481.333333333 391.833333333 489 359 489 323 c 2
 489 40 l 2
 489 27.3333333333 484.333333333 16.5 475 7.5 c 128
 465.666666667 -1.5 454.666666667 -6 442 -6 c 256
 429.333333333 -6 418.5 -1.5 409.5 7.5 c 128
 400.5 16.5 396 27.3333333333 396 40 c 2
 396 64 l 1
 348 14 285.666666667 -11 209 -11 c 0
 180.333333333 -11 153.333333333 -5 128 7 c 0
326.5 91.5 m 128
 353.5 105.166666667 376.666666667 123 396 145 c 1
 396 228 l 1
 288 228 l 2
 188 228 138 202 138 150 c 0
 138 97.3333333333 173 71 243 71 c 0
 271.666666667 71 299.5 77.8333333333 326.5 91.5 c 128
EndSplineSet
EndChar
StartChar: b
Encoding: 98 98 6430
Width: 631
Flags: HW
LayerCount: 2
Fore
SplineSet
171 64 m 5
 171 40 l 6
 171 27.3333333333 166.333333333 16.5 157 7.5 c 132
 147.666666667 -1.5 136.666666667 -6 124 -6 c 260
 111.333333333 -6 100.5 -1.5 91.5 7.5 c 132
 82.5 16.5 78 27.3333333333 78 40 c 6
 78 689 l 6
 78 701.666666667 82.5 712.666666667 91.5 722 c 132
 100.5 731.333333333 111.333333333 736 124 736 c 4
 137.333333333 736 148.5 731.5 157.5 722.5 c 132
 166.5 713.5 171 702.333333333 171 689 c 6
 171 446 l 5
 219 496 275.666666667 521 341 521 c 4
 384.333333333 521 423.666666667 510.666666667 459 490 c 4
 497.666666667 468.666666667 528.166666667 437.333333333 550.5 396 c 132
 572.833333333 354.666666667 584 307.666666667 584 255 c 4
 584 200.333333333 572.666666667 153.333333333 550 114 c 4
 527.333333333 74 497.5 43.1666666667 460.5 21.5 c 132
 423.5 -0.166666666667 383.666666667 -11 341 -11 c 4
 275.666666667 -11 219 14 171 64 c 5
447.5 123.5 m 132
 476.5 155.166666667 491 199 491 255 c 260
 491 311 476.5 354.833333333 447.5 386.5 c 132
 418.5 418.166666667 378.666666667 434 328 434 c 4
 298.666666667 434 270.5 427.333333333 243.5 414 c 132
 216.5 400.666666667 192.333333333 382.666666667 171 360 c 5
 171 150 l 5
 192.333333333 127.333333333 216.5 109.333333333 243.5 96 c 132
 270.5 82.6666666667 298.666666667 76 328 76 c 4
 378.666666667 76 418.5 91.8333333333 447.5 123.5 c 132
EndSplineSet
EndChar
StartChar: c
Encoding: 99 99 6431
Width: 533
Flags: HW
LayerCount: 2
Fore
SplineSet
460 114 m 0
 479.765529007 114 499 92.7124157615 499 73 c 0
 499 58.3333333333 492.333333333 46.3333333333 479 37 c 0
 431.378196016 8.17627653586 387.452571222 -11 315 -11 c 0
 207.765443759 -11 125.149247604 43.5804415592 83 115 c 128
 59 155.666666667 47 202.333333333 47 255 c 0
 47 367.87837264 104.439555717 447.641083649 180.5 488.5 c 128
 220.833333333 510.166666667 265.666666667 521 315 521 c 0
 387.409122508 521 431.407209487 501.806162678 479 473 c 0
 492.333333333 463.666666667 499 451.666666667 499 437 c 0
 499 417.286575659 479.764703804 396 460 396 c 0
 453.333333333 396 446 398 438 402 c 0
 396.092362273 423.552499403 378.145965088 434 323 434 c 0
 212.443456261 434 140 364.976742994 140 255 c 256
 140 145.026000354 212.449194182 76 323 76 c 0
 378.105097486 76 396.113996544 86.4586267936 438 108 c 0
 446 112 453.333333333 114 460 114 c 0
EndSplineSet
EndChar
StartChar: d
Encoding: 100 100 6432
Width: 631
Flags: HW
LayerCount: 2
Fore
SplineSet
507 -6 m 256
 481.901137659 -6 460 14.8758188404 460 40 c 2
 460 64 l 1
 412 14 355.333333333 -11 290 -11 c 0
 193.515898489 -11 118.536674037 46.6027807875 81 114.5 c 128
 58.3333333333 155.5 47 202.333333333 47 255 c 0
 47 364.85010519 100.3023428 447.86681763 171 489 c 128
 207.666666667 510.333333333 247.333333333 521 290 521 c 0
 355.333333333 521 412 496 460 446 c 1
 460 689 l 2
 460 714.956151079 481.365089909 736 507 736 c 256
 532.124914673 736 553 714.098037138 553 689 c 2
 553 40 l 2
 553 14.8750853272 532.12418116 -6 507 -6 c 256
303 76 m 0
 370.947005808 76 424.028763628 111.780561354 460 150 c 1
 460 360 l 1
 423.975457099 398.276076834 371.017915994 434 303 434 c 0
 197.982101067 434 140 362.363993737 140 255 c 256
 140 147.616602548 197.968791623 76 303 76 c 0
EndSplineSet
EndChar
StartChar: f
Encoding: 102 102 6434
Width: 382
Flags: W
LayerCount: 2
Fore
SplineSet
162 -6 m 256
 136.875085327 -6 116 14.8758188404 116 40 c 2
 116 431 l 1
 58 431 l 2
 36.8750853272 431 18 449.87581884 18 471 c 0
 18 492.982184116 36.337829095 511 58 511 c 2
 116 511 l 1
 116 568 l 2
 116 644.097457798 143.94833042 696.465046748 192.5 722.5 c 128
 215.5 734.833333333 240.333333333 741 267 741 c 0
 305.434697179 741 378 727.532762548 378 685 c 0
 378 665.234470993 359.790847827 646 340 646 c 0
 332.666666667 646 325 647 317 649 c 1
 290 652 l 1
 229.697083459 652 209 626.28956978 209 565 c 2
 209 511 l 1
 333 511 l 2
 355.510352671 511 373 493.509802536 373 471 c 0
 373 449.33966171 354.979094927 431 333 431 c 2
 209 431 l 1
 209 40 l 2
 209 14.8750853272 187.098037138 -6 162 -6 c 256
EndSplineSet
EndChar
StartChar: g
Encoding: 103 103 6439
GlifName: g
Width: 631
Flags: HW
LayerCount: 2
Fore
SplineSet
201.5 -226 m 128
 161.833333333 -216 129 -203.666666667 103 -189 c 0
 90.3333333333 -181 84 -169 84 -153 c 0
 84 -142.333333333 88 -132.666666667 96 -124 c 128
 104 -115.333333333 113.666666667 -111 125 -111 c 0
 130.333333333 -111 136.333333333 -112.333333333 143 -115 c 0
 195 -140.333333333 250 -153 308 -153 c 0
 409.333333333 -153 460 -99 460 9 c 2
 460 73 l 1
 414 23.6666666667 357.333333333 -1 290 -1 c 0
 250 -1 212 9 176 29 c 0
 136.666666667 49.6666666667 105.333333333 79.8333333333 82 119.5 c 128
 58.6666666667 159.166666667 47 206 47 260 c 0
 47 316 59 364 83 404 c 0
 106.333333333 442 136.5 471 173.5 491 c 128
 210.5 511 249.333333333 521 290 521 c 0
 357.333333333 521 414 496.333333333 460 447 c 1
 460 469 l 2
 460 481.666666667 464.5 492.666666667 473.5 502 c 128
 482.5 511.333333333 493.333333333 516 506 516 c 256
 518.666666667 516 529.666666667 511.333333333 539 502 c 128
 548.333333333 492.666666667 553 481.666666667 553 469 c 2
 553 22 l 2
 553 -62 532.666666667 -126.833333333 492 -172.5 c 128
 451.333333333 -218.166666667 393 -241 317 -241 c 0
 279.666666667 -241 241.166666667 -236 201.5 -226 c 128
388.5 102.5 m 128
 412.166666667 114.833333333 436 133 460 157 c 1
 460 363 l 1
 436 387 412.166666667 405.166666667 388.5 417.5 c 128
 364.833333333 429.833333333 338.333333333 436 309 436 c 0
 257.666666667 436 216.666666667 420.666666667 186 390 c 128
 155.333333333 359.333333333 140 316 140 260 c 256
 140 204 155.333333333 160.666666667 186 130 c 128
 216.666666667 99.3333333333 257.666666667 84 309 84 c 0
 338.333333333 84 364.833333333 90.1666666667 388.5 102.5 c 128
EndSplineSet
EndChar
StartChar: h
Encoding: 104 104 6436
Width: 609
Flags: HW
LayerCount: 2
Fore
SplineSet
124 -6 m 256
 98.8750853275 -6 78 14.8758188404 78 40 c 2
 78 689 l 2
 78 714.098862341 98.87581884 736 124 736 c 256
 149.098862341 736 171 714.098037138 171 689 c 2
 171 431 l 1
 198.333333333 460.333333333 226.666666667 482.666666667 256 498 c 128
 285.333333333 513.333333333 318.666666667 521 356 521 c 0
 469.5417582 521 536 437.799149299 536 324 c 2
 536 40 l 2
 536 14.8750853272 514.098037138 -6 489 -6 c 256
 463.875085327 -6 443 14.8758188404 443 40 c 2
 443 314 l 2
 443 394.666666667 406.666666667 435 334 435 c 0
 302 435 273.166666667 427 247.5 411 c 128
 221.833333333 395 196.333333333 371.333333333 171 340 c 1
 171 40 l 2
 171 14.8750853272 149.098037138 -6 124 -6 c 256
EndSplineSet
EndChar
StartChar: i
Encoding: 105 105 6437
Width: 249
Flags: HW
LayerCount: 2
Fore
SplineSet
85.5 628.5 m 128
 75.1666666667 638.833333333 70 651 70 665 c 2
 70 669 l 2
 70 683 75.1666666667 695.166666667 85.5 705.5 c 128
 95.8333333333 715.833333333 108 721 122 721 c 2
 128 721 l 2
 142 721 154.166666667 715.833333333 164.5 705.5 c 128
 174.833333333 695.166666667 180 683 180 669 c 2
 180 665 l 2
 180 651 174.833333333 638.833333333 164.5 628.5 c 128
 154.166666667 618.166666667 142 613 128 613 c 2
 122 613 l 2
 108 613 95.8333333333 618.166666667 85.5 628.5 c 128
91.5 7.5 m 128
 82.5 16.5 78 27.3333333333 78 40 c 2
 78 469 l 2
 78 481.666666667 82.5 492.666666667 91.5 502 c 128
 100.5 511.333333333 111.333333333 516 124 516 c 0
 137.333333333 516 148.5 511.5 157.5 502.5 c 128
 166.5 493.5 171 482.333333333 171 469 c 2
 171 40 l 2
 171 27.3333333333 166.333333333 16.5 157 7.5 c 128
 147.666666667 -1.5 136.666666667 -6 124 -6 c 256
 111.333333333 -6 100.5 -1.5 91.5 7.5 c 128
EndSplineSet
EndChar
StartChar: j
Encoding: 106 106 6438
Width: 254
Flags: HW
LayerCount: 2
Fore
SplineSet
127 613 m 2
 99.2605233249 613 75 637.261440218 75 665 c 2
 75 669 l 2
 75 696.739476675 99.2614402173 721 127 721 c 2
 133 721 l 2
 160.739476675 721 185 696.738559782 185 669 c 2
 185 665 l 2
 185 637.260523325 160.738559782 613 133 613 c 2
 127 613 l 2
44 -241 m 0
 2.67522837666 -241 -46 -236.203373117 -46 -195 c 0
 -46 -174.695457499 -27.6160167721 -156 -7 -156 c 1
 5 -158 l 1
 8 -158 l 2
 12 -158.666666667 17 -159 23 -159 c 0
 67.6650743752 -159 83 -146.111638847 83 -101 c 2
 83 468 l 2
 83 493.098862341 103.87581884 515 129 515 c 0
 155.484300339 515 176 494.483658514 176 468 c 2
 176 -103 l 2
 176 -191.177782406 131.622194819 -241 44 -241 c 0
EndSplineSet
EndChar
StartChar: k
Encoding: 107 107 6439
Width: 545
Flags: HW
LayerCount: 2
Fore
SplineSet
124 -6 m 256
 98.8750853275 -6 78 14.8758188404 78 40 c 2
 78 689 l 2
 78 714.098862341 98.87581884 736 124 736 c 256
 149.098862341 736 171 714.098037138 171 689 c 2
 171 282 l 1
 407 501 l 2
 417.666666667 509.666666667 428 514 438 514 c 0
 466.794074408 514 483 497.44338103 483 469 c 0
 483 458.333333333 477.333333333 446.666666667 466 434 c 1
 322 306 l 1
 503 67 l 2
 509.666666667 57 513 47.6666666667 513 39 c 0
 513 12.463594996 492.483658514 -6 466 -6 c 0
 450.02570803 -6 435.670145486 3.13838437568 428 13 c 2
 257 247 l 1
 171 169 l 1
 171 40 l 2
 171 14.8750853272 149.098037138 -6 124 -6 c 256
EndSplineSet
EndChar
StartChar: l
Encoding: 108 108 6440
Width: 249
Flags: W
LayerCount: 2
Fore
SplineSet
124 -6 m 256
 98.8750853275 -6 78 14.8758188404 78 40 c 2
 78 689 l 2
 78 714.098862341 98.87581884 736 124 736 c 0
 150.484300339 736 171 715.483658514 171 689 c 2
 171 40 l 2
 171 14.8750853272 149.098037138 -6 124 -6 c 256
EndSplineSet
EndChar
StartChar: m
Encoding: 109 109 6441
Width: 918
Flags: W
LayerCount: 2
Fore
SplineSet
340 521 m 0
 415.849126471 521 470.699600329 474.750999177 493 419 c 1
 534.333333333 487 595.666666667 521 677 521 c 0
 755.929623678 521 802.645258364 478.73560173 826.5 422 c 128
 838.833333333 392.666666667 845 361.333333333 845 328 c 2
 845 40 l 2
 845 14.8750853272 823.098037138 -6 798 -6 c 256
 772.875085327 -6 752 14.8758188404 752 40 c 2
 752 310 l 2
 752 392.472705348 729.053490395 435 651 435 c 0
 619 435 592 426.833333333 570 410.5 c 128
 548 394.166666667 527.333333333 370.666666667 508 340 c 1
 508 40 l 2
 508 14.8750853272 486.098037138 -6 461 -6 c 256
 435.875085327 -6 415 14.8758188404 415 40 c 2
 415 310 l 2
 415 392.472705348 392.053490395 435 314 435 c 0
 282 435 255 426.833333333 233 410.5 c 128
 211 394.166666667 190.333333333 370.666666667 171 340 c 1
 171 40 l 2
 171 14.8750853272 149.098037138 -6 124 -6 c 256
 98.8750853275 -6 78 14.8758188404 78 40 c 2
 78 469 l 2
 78 494.098862341 98.87581884 516 124 516 c 256
 149.098862341 516 171 494.098037138 171 469 c 2
 171 432 l 1
 208.696446594 483.072605063 255.937112052 521 340 521 c 0
EndSplineSet
EndChar
StartChar: n
Encoding: 110 110 6446
GlifName: n
Width: 609
Flags: HW
LayerCount: 2
Fore
SplineSet
91.5 7.5 m 128
 82.5 16.5 78 27.3333333333 78 40 c 2
 78 469 l 2
 78 481.666666667 82.5 492.666666667 91.5 502 c 128
 100.5 511.333333333 111.333333333 516 124 516 c 256
 136.666666667 516 147.666666667 511.333333333 157 502 c 128
 166.333333333 492.666666667 171 481.666666667 171 469 c 2
 171 431 l 1
 198.333333333 460.333333333 226.666666667 482.666666667 256 498 c 128
 285.333333333 513.333333333 318.666666667 521 356 521 c 0
 392.666666667 521 425 512.333333333 453 495 c 0
 479.666666667 477.666666667 500.166666667 454 514.5 424 c 128
 528.833333333 394 536 360.666666667 536 324 c 2
 536 40 l 2
 536 27.3333333333 531.333333333 16.5 522 7.5 c 128
 512.666666667 -1.5 501.666666667 -6 489 -6 c 256
 476.333333333 -6 465.5 -1.5 456.5 7.5 c 128
 447.5 16.5 443 27.3333333333 443 40 c 2
 443 314 l 2
 443 394.666666667 406.666666667 435 334 435 c 0
 302 435 273.166666667 427 247.5 411 c 128
 221.833333333 395 196.333333333 371.333333333 171 340 c 1
 171 40 l 2
 171 27.3333333333 166.333333333 16.5 157 7.5 c 128
 147.666666667 -1.5 136.666666667 -6 124 -6 c 256
 111.333333333 -6 100.5 -1.5 91.5 7.5 c 128
EndSplineSet
EndChar
StartChar: o
Encoding: 111 111 6443
Width: 608
Flags: HW
HStem: -11 85<219.185 389.138> 436 85<217.851 388.397>
VStem: 47 93<156.075 354.964> 468 93<156.03 354.759>
LayerCount: 2
Fore
SplineSet
304 -11 m 0
 193.318435374 -11 118.482368446 41.736735148 79 117 c 0
 57.6666666667 157.666666667 47 203.666666667 47 255 c 0
 47 365.167964943 96.729148956 446.949776334 169.5 488 c 0
 208.5 510 253.333333333 521 304 521 c 256
 413.472106652 521 489.813459464 467.587053202 529 393.5 c 0
 550.333333333 353.166666667 561 307 561 255 c 256
 561 144.415020008 509.887048291 62.8337195487 437.5 22 c 0
 398.5 0 354 -11 304 -11 c 0
304 436 m 0
 199.849727313 436 140 363.234818937 140 256 c 0
 140 175.633209798 171.685715096 121.843443783 222.5 94 c 0
 246.833333333 80.6666666667 274 74 304 74 c 0
 370.259547125 74 419.225873126 107.994510203 445 154.5 c 0
 460.333333333 182.166666667 468 216 468 256 c 0
 468 335.694405476 436.252179152 388.190586766 385.5 416 c 0
 361.166666667 429.333333333 334 436 304 436 c 0
EndSplineSet
EndChar
StartChar: p
Encoding: 112 112 6444
Width: 631
Flags: HW
LayerCount: 2
Fore
SplineSet
124 -236 m 0
 98.8750853275 -236 78 -214.098037138 78 -189 c 2
 78 470 l 2
 78 495.124914673 98.87581884 516 124 516 c 256
 149.098862341 516 171 495.12418116 171 470 c 2
 171 446 l 1
 219 496 275.666666667 521 341 521 c 0
 441.343217772 521 512.877848778 465.629055993 550.5 396 c 128
 572.833333333 354.666666667 584 307.666666667 584 255 c 0
 584 143.252871814 531.650285261 63.1645814593 460.5 21.5 c 128
 423.5 -0.166666666667 383.666666667 -11 341 -11 c 0
 275.666666667 -11 219 14 171 64 c 1
 171 -189 l 2
 171 -215.484300339 150.483658514 -236 124 -236 c 0
328 76 m 0
 433.017898933 76 491 147.636006264 491 255 c 256
 491 362.383397452 433.031208377 434 328 434 c 0
 260.052994192 434 206.971236372 398.219438646 171 360 c 1
 171 150 l 1
 207.024542901 111.723923166 259.982084006 76 328 76 c 0
EndSplineSet
EndChar
StartChar: q
Encoding: 113 113 6445
Width: 631
Flags: HW
LayerCount: 2
Fore
SplineSet
507 -236 m 256
 481.366806977 -236 460 -214.952990859 460 -189 c 2
 460 64 l 1
 412 14 355.333333333 -11 290 -11 c 0
 193.515898489 -11 118.536674037 46.6027807875 81 114.5 c 128
 58.3333333333 155.5 47 202.333333333 47 255 c 0
 47 364.85010519 100.3023428 447.86681763 171 489 c 128
 207.666666667 510.333333333 247.333333333 521 290 521 c 0
 355.333333333 521 412 496 460 446 c 1
 460 470 l 2
 460 495.124914673 481.901962862 516 507 516 c 256
 532.124914673 516 553 495.12418116 553 470 c 2
 553 -189 l 2
 553 -214.098862341 532.12418116 -236 507 -236 c 256
303 76 m 0
 370.947005808 76 424.028763628 111.780561354 460 150 c 1
 460 360 l 1
 423.975457099 398.276076834 371.017915994 434 303 434 c 0
 197.982101067 434 140 362.363993737 140 255 c 256
 140 147.616602548 197.968791623 76 303 76 c 0
EndSplineSet
EndChar
StartChar: r
Encoding: 114 114 6446
Width: 383
Flags: HW
LayerCount: 2
Fore
SplineSet
124 -6 m 256
 98.8750853275 -6 78 14.8758188404 78 40 c 2
 78 469 l 2
 78 494.098862341 98.87581884 516 124 516 c 256
 149.098862341 516 171 494.098037138 171 469 c 2
 171 429 l 1
 217 490.333333333 269 521 327 521 c 2
 332 521 l 2
 357.150967004 521 377 500.12418116 377 475 c 256
 377 449.312441716 355.935513957 431 330 431 c 2
 325 431 l 2
 252.339667503 431 202.742555819 391.613833728 171 344 c 1
 171 40 l 2
 171 14.8750853272 149.098037138 -6 124 -6 c 256
EndSplineSet
EndChar
StartChar: s
Encoding: 115 115 6447
Width: 480
Flags: HW
LayerCount: 2
Fore
SplineSet
438 138 m 0
 438 40.1034418584 349.053596788 -11 244 -11 c 0
 178 -11 117 4 61 34 c 0
 49.6666666667 42 44 53.3333333333 44 68 c 0
 44 89.6431812196 62.014360511 109 84 109 c 0
 90.6666666667 109 96.6666666667 107.666666667 102 105 c 0
 143.957674698 86.4892611628 181.423093351 75 238 75 c 0
 311.333333333 75 348 98.3333333333 348 145 c 0
 348 159.666666667 340 171 324 179 c 0
 288.229895585 196.169650119 183.39054785 218.42951883 143 235 c 0
 91.1900684736 254.278114057 48 294.141328125 48 362 c 0
 48 466.318876164 133.599723011 521 244 521 c 0
 297.333333333 521 345.666666667 512.666666667 389 496 c 0
 405.31372194 491.338936588 419 476.639883963 419 457 c 0
 419 435.363464998 399.950394527 416 378 416 c 1
 365 418 l 1
 325 430 287 436 251 436 c 0
 195.308089377 436 137 416.667370672 137 367 c 0
 137 347.666666667 146 333.333333333 164 324 c 0
 183.333333333 315.333333333 212.333333333 306.333333333 251 297 c 0
 343.381820554 273.049157635 438 251.044956232 438 138 c 0
EndSplineSet
EndChar
StartChar: t
Encoding: 116 116 6452
GlifName: t
Width: 382
Flags: HW
LayerCount: 2
Fore
SplineSet
351 69 m 128
 358.333333333 61.6666666667 362 53 362 43 c 0
 362 27.6666666667 354 15.6666666667 338 7 c 0
 312 -5 284.333333333 -11 255 -11 c 0
 157 -11 108 33.3333333333 108 122 c 2
 108 426 l 1
 58 426 l 2
 45.3333333333 426 35.5 429.5 28.5 436.5 c 128
 21.5 443.5 18 453.333333333 18 466 c 256
 18 478.666666667 21.5 488.5 28.5 495.5 c 128
 35.5 502.5 45.3333333333 506 58 506 c 2
 108 506 l 1
 108 577 l 2
 108 592.333333333 112.166666667 604 120.5 612 c 128
 128.833333333 620 140.333333333 624 155 624 c 256
 169.666666667 624 181 619.833333333 189 611.5 c 128
 197 603.166666667 201 591.666666667 201 577 c 2
 201 506 l 1
 313 506 l 2
 324.333333333 506 333.833333333 502.166666667 341.5 494.5 c 128
 349.166666667 486.833333333 353 477.333333333 353 466 c 0
 353 455.333333333 349.166666667 446 341.5 438 c 128
 333.833333333 430 324.333333333 426 313 426 c 2
 201 426 l 1
 201 130 l 2
 201 106.666666667 206.333333333 91 217 83 c 128
 227.666666667 75 243.666666667 71 265 71 c 0
 279 71 292.333333333 73 305 77 c 0
 306.333333333 77 307.333333333 77.3333333333 308 78 c 0
 314.666666667 79.3333333333 320.333333333 80 325 80 c 0
 335 80 343.666666667 76.3333333333 351 69 c 128
EndSplineSet
EndChar
StartChar: v
Encoding: 118 118 6454
GlifName: v
Width: 530
Flags: HW
LayerCount: 2
Fore
SplineSet
226.5 4.5 m 128
 216.166666667 11.5 208.666666667 20.6666666667 204 32 c 2
 30 448 l 2
 26.6666666667 456.666666667 25 463.666666667 25 469 c 0
 25 481.666666667 29.5 492.666666667 38.5 502 c 128
 47.5 511.333333333 58.3333333333 516 71 516 c 0
 79.6666666667 516 88 513.5 96 508.5 c 128
 104 503.5 109.666666667 497 113 489 c 2
 257 123 l 2
 259 118.333333333 261.666666667 116 265 116 c 256
 268.333333333 116 271 118.333333333 273 123 c 2
 417 489 l 2
 420.333333333 497 426 503.5 434 508.5 c 128
 442 513.5 450.333333333 516 459 516 c 0
 471.666666667 516 482.5 511.333333333 491.5 502 c 128
 500.5 492.666666667 505 481.666666667 505 469 c 0
 505 463.666666667 503.333333333 456.666666667 500 448 c 2
 326 32 l 2
 321.333333333 20.6666666667 313.833333333 11.5 303.5 4.5 c 128
 293.166666667 -2.5 282 -6 270 -6 c 2
 260 -6 l 2
 248 -6 236.833333333 -2.5 226.5 4.5 c 128
EndSplineSet
EndChar
StartChar: w
Encoding: 119 119 6451
Width: 792
Flags: HW
LayerCount: 2
Fore
SplineSet
194.5 6 m 128
 183.5 14 176 24.3333333333 172 37 c 2
 30 453 l 2
 28 459 27 464.666666667 27 470 c 0
 27 482.666666667 31.5 493.5 40.5 502.5 c 128
 49.5 511.5 60.3333333333 516 73 516 c 0
 83 516 91.8333333333 513.5 99.5 508.5 c 128
 107.166666667 503.5 112.333333333 496.666666667 115 488 c 2
 224 130 l 2
 226 124.666666667 228.333333333 122 231 122 c 256
 233.666666667 122 236 124.666666667 238 130 c 2
 346 479 l 2
 349.333333333 490.333333333 355.666666667 499.333333333 365 506 c 128
 374.333333333 512.666666667 384.666666667 516 396 516 c 256
 407.333333333 516 417.666666667 512.666666667 427 506 c 128
 436.333333333 499.333333333 442.666666667 490.333333333 446 479 c 2
 554 130 l 2
 556 124.666666667 558.333333333 122 561 122 c 256
 563.666666667 122 566 124.666666667 568 130 c 2
 677 488 l 2
 679.666666667 496.666666667 684.833333333 503.5 692.5 508.5 c 128
 700.166666667 513.5 709 516 719 516 c 0
 731.666666667 516 742.5 511.5 751.5 502.5 c 128
 760.5 493.5 765 482.666666667 765 470 c 0
 765 464.666666667 764 459 762 453 c 2
 620 37 l 2
 616 24.3333333333 608.5 14 597.5 6 c 128
 586.5 -2 574.333333333 -6 561 -6 c 256
 547.666666667 -6 535.5 -2 524.5 6 c 128
 513.5 14 505.666666667 24.6666666667 501 38 c 2
 403 343 l 2
 401 348.333333333 398.666666667 351 396 351 c 256
 393.333333333 351 391 348.333333333 389 343 c 2
 291 38 l 2
 286.333333333 24.6666666667 278.5 14 267.5 6 c 128
 256.5 -2 244.333333333 -6 231 -6 c 256
 217.666666667 -6 205.5 -2 194.5 6 c 128
EndSplineSet
EndChar
StartChar: x
Encoding: 120 120 6456
GlifName: x
Width: 541
Flags: HW
LayerCount: 2
Fore
SplineSet
61.5 7 m 128
 53.8333333333 15.6666666667 50 27 50 41 c 0
 50 50.3333333333 53.3333333333 60 60 70 c 2
 215 252 l 1
 60 440 l 2
 52.6666666667 449.333333333 49 459.333333333 49 470 c 0
 49 483.333333333 53.5 494.333333333 62.5 503 c 128
 71.5 511.666666667 82.3333333333 516 95 516 c 0
 111 516 123.333333333 510.333333333 132 499 c 2
 271 327 l 1
 409 499 l 2
 418.333333333 510.333333333 430.333333333 516 445 516 c 0
 458.333333333 516 469.5 511.833333333 478.5 503.5 c 128
 487.5 495.166666667 492 484.666666667 492 472 c 0
 492 462.666666667 488.666666667 453 482 443 c 2
 324 258 l 1
 480 71 l 2
 487.333333333 62.3333333333 491 52.3333333333 491 41 c 0
 491 28.3333333333 486.666666667 17.3333333333 478 8 c 128
 469.333333333 -1.33333333333 458 -6 444 -6 c 0
 429.333333333 -6 417.333333333 0 408 12 c 2
 267 181 l 1
 134 14 l 2
 124 0.666666666667 110.666666667 -6 94 -6 c 0
 80 -6 69.1666666667 -1.66666666667 61.5 7 c 128
EndSplineSet
EndChar
StartChar: y
Encoding: 121 121 6453
Width: 537
Flags: HW
LayerCount: 2
Fore
SplineSet
193 -236 m 0
 169.208418661 -236 149 -214.764703804 149 -191 c 0
 149 -185.666666667 150 -180.333333333 152 -175 c 2
 217 -8 l 1
 29 450 l 2
 26.3333333333 456.666666667 25 463 25 469 c 0
 25 494.098862341 45.8758188404 516 71 516 c 0
 91.4557749499 516 108.045212146 502.482448422 114 487 c 2
 267 108 l 1
 423 485 l 2
 432.333333333 505.666666667 446.666666667 516 466 516 c 0
 491.124914673 516 512 494.098037138 512 469 c 0
 512 463 511 457.333333333 509 452 c 2
 236 -204 l 2
 226.666666667 -225.333333333 212.333333333 -236 193 -236 c 0
EndSplineSet
EndChar
StartChar: z
Encoding: 122 122 6454
Width: 498
Flags: HW
LayerCount: 2
Fore
SplineSet
103 -1 m 2
 68.1486752322 -1 39 19.2221591147 39 53 c 0
 39 68.3333333333 44.3333333333 82.3333333333 55 95 c 2
 329 410 l 2
 331 413.333333333 332 416 332 418 c 0
 332 422 329 424 323 424 c 2
 91 424 l 2
 67.1823663279 424 48 443.183008153 48 467 c 256
 48 490.791581339 67.1830081521 511 91 511 c 2
 394 511 l 2
 427.955107659 511 453 486.649939524 453 453 c 0
 453 438.333333333 448.333333333 424.666666667 439 412 c 1
 173 100 l 2
 171 97.3333333333 170 94.6666666667 170 92 c 0
 170 88 173 86 179 86 c 2
 415 86 l 2
 438.791581339 86 459 65.7908478263 459 42 c 256
 459 18.1823663278 438.790847827 -1 415 -1 c 2
 103 -1 l 2
EndSplineSet
EndChar
StartChar: braceleft
Encoding: 123 123 6455
Width: 344
Flags: HW
LayerCount: 2
Fore
SplineSet
269 -146 m 6
 177.893403589 -146 128 -115.146242035 128 -25 c 6
 128 186 l 6
 128 243.94380596 94.0579299931 256.12458904 37 266 c 4
 16.2649504618 269.659126389 2 283.769564202 2 307 c 260
 2 330.221082511 16.2730005018 344.342294206 37 348 c 4
 94.0995261996 357.882610304 128 370.038868664 128 428 c 6
 128 639 l 6
 128 729.140766928 177.90154894 760 269 760 c 6
 281 760 l 6
 299.458248007 760 317 742.457514492 317 724 c 260
 317 705.541751993 299.457514492 688 281 688 c 6
 266 688 l 6
 227.225205277 688 208 680.202073968 208 647 c 6
 208 425 l 6
 208 368.333333333 178.666666667 329 120 307 c 5
 178.666666667 285 208 245.666666667 208 189 c 6
 208 -33 l 6
 208 -66.183539263 227.241985763 -74 266 -74 c 6
 281 -74 l 6
 299.458248007 -74 317 -91.5424855076 317 -110 c 260
 317 -128.458248007 299.457514492 -146 281 -146 c 6
 269 -146 l 6
EndSplineSet
EndChar
StartChar: bar
Encoding: 124 124 6456
Width: 253
Flags: HW
LayerCount: 2
Fore
SplineSet
126 -197 m 0
 103.515699661 -197 85 -178.483658514 85 -156 c 2
 85 700 l 2
 85 723.843686005 102.130720109 742 126 742 c 0
 148.458248007 742 168 722.457514492 168 700 c 2
 168 -156 l 2
 168 -179.869738337 149.84313587 -197 126 -197 c 0
EndSplineSet
EndChar
StartChar: braceright
Encoding: 125 125 6457
Width: 344
Flags: HW
LayerCount: 2
Fore
SplineSet
38 -135 m 128
 30.6666666667 -127.666666667 27 -119.333333333 27 -110 c 256
 27 -100.666666667 30.6666666667 -92.3333333333 38 -85 c 128
 45.3333333333 -77.6666666667 53.6666666667 -74 63 -74 c 2
 78 -74 l 2
 101.333333333 -74 116.833333333 -70.5 124.5 -63.5 c 128
 132.166666667 -56.5 136 -46.3333333333 136 -33 c 2
 136 189 l 2
 136 245.666666667 165.333333333 285 224 307 c 1
 165.333333333 329 136 368.333333333 136 425 c 2
 136 647 l 2
 136 660.333333333 132.166666667 670.5 124.5 677.5 c 128
 116.833333333 684.5 101.333333333 688 78 688 c 2
 63 688 l 2
 53.6666666667 688 45.3333333333 691.666666667 38 699 c 128
 30.6666666667 706.333333333 27 714.666666667 27 724 c 256
 27 733.333333333 30.6666666667 741.666666667 38 749 c 128
 45.3333333333 756.333333333 53.6666666667 760 63 760 c 2
 75 760 l 2
 121.666666667 760 156.833333333 750.833333333 180.5 732.5 c 128
 204.166666667 714.166666667 216 683 216 639 c 2
 216 428 l 2
 216 404 222.5 386.166666667 235.5 374.5 c 128
 248.5 362.833333333 272.333333333 354 307 348 c 0
 318.333333333 346 327 341.333333333 333 334 c 128
 339 326.666666667 342 317.666666667 342 307 c 256
 342 296.333333333 339 287.333333333 333 280 c 128
 327 272.666666667 318.333333333 268 307 266 c 0
 272.333333333 260 248.5 251.166666667 235.5 239.5 c 128
 222.5 227.833333333 216 210 216 186 c 2
 216 -25 l 2
 216 -69 204.166666667 -100.166666667 180.5 -118.5 c 128
 156.833333333 -136.833333333 121.666666667 -146 75 -146 c 2
 63 -146 l 2
 53.6666666667 -146 45.3333333333 -142.333333333 38 -135 c 128
EndSplineSet
EndChar
StartChar: asciitilde
Encoding: 126 126 6458
Width: 638
Flags: HW
LayerCount: 2
Fore
SplineSet
100 208 m 0
 86.8490329947 208 73 221.849674818 73 235 c 0
 73 284.819298014 105.881418263 326.938564615 138.5 348.5 c 128
 158.166666667 361.5 179 368 201 368 c 0
 225 368 247 364.833333333 267 358.5 c 128
 287 352.166666667 314 341 348 325 c 0
 373.333333333 312.333333333 392.833333333 303.666666667 406.5 299 c 128
 420.166666667 294.333333333 434 292 448 292 c 0
 465.333333333 292 477.666666667 294.666666667 485 300 c 128
 492.333333333 305.333333333 500.333333333 316 509 332 c 0
 514.990121741 348.472834786 523.383718956 367 543 367 c 0
 559.396701078 367 571.872661818 353.072421817 568 335 c 0
 554.508685025 265.294872632 515.922431652 205 440 205 c 0
 416.666666667 205 395 208.166666667 375 214.5 c 128
 355 220.833333333 328 232 294 248 c 0
 268.666666667 260.666666667 249.166666667 269.333333333 235.5 274 c 128
 221.833333333 278.666666667 208 281 194 281 c 0
 158 281 135 263.333333333 125 228 c 0
 122.558520196 217.01334088 112.89332804 208 100 208 c 0
EndSplineSet
EndChar
StartChar: currency
Encoding: 8552 164 2521
GlifName: currency
Width: 668
Flags: HW
LayerCount: 2
Fore
SplineSet
76 91.5 m 128
 68.6666666667 99.1666666667 65 108 65 118 c 0
 65 128.666666667 68.6666666667 137.666666667 76 145 c 2
 141 209 l 1
 111 252.333333333 96 299 96 349 c 0
 96 399.666666667 111 446.333333333 141 489 c 1
 76 553 l 2
 68.6666666667 560.333333333 65 569.333333333 65 580 c 0
 65 590 68.6666666667 598.833333333 76 606.5 c 128
 83.3333333333 614.166666667 92.3333333333 618 103 618 c 0
 111.666666667 618 120.666666667 614.333333333 130 607 c 2
 195 542 l 1
 237 572 283.333333333 587 334 587 c 256
 384.666666667 587 431 572 473 542 c 1
 538 607 l 2
 547.333333333 614.333333333 556.333333333 618 565 618 c 0
 575.666666667 618 584.666666667 614.166666667 592 606.5 c 128
 599.333333333 598.833333333 603 590 603 580 c 0
 603 569.333333333 599.333333333 560.333333333 592 553 c 2
 527 489 l 1
 557 446.333333333 572 399.666666667 572 349 c 0
 572 299 557 252.333333333 527 209 c 1
 592 145 l 2
 599.333333333 137.666666667 603 128.666666667 603 118 c 0
 603 108 599.333333333 99.1666666667 592 91.5 c 128
 584.666666667 83.8333333333 575.666666667 80 565 80 c 0
 556.333333333 80 547.333333333 83.6666666667 538 91 c 2
 473 156 l 1
 431 126 384.666666667 111 334 111 c 256
 283.333333333 111 237 126 195 156 c 1
 130 91 l 2
 120.666666667 83.6666666667 111.666666667 80 103 80 c 0
 92.3333333333 80 83.3333333333 83.8333333333 76 91.5 c 128
411 215 m 0
 435 229 454 247.833333333 468 271.5 c 128
 482 295.166666667 489 321 489 349 c 256
 489 377 482 402.666666667 468 426 c 0
 454 450 435.166666667 469 411.5 483 c 128
 387.833333333 497 362 504 334 504 c 0
 305.333333333 504 279.666666667 497 257 483 c 0
 233 469 214 450.166666667 200 426.5 c 128
 186 402.833333333 179 377 179 349 c 256
 179 321 186 295.333333333 200 272 c 0
 214 248 232.833333333 229 256.5 215 c 128
 280.166666667 201 306 194 334 194 c 0
 362.666666667 194 388.333333333 201 411 215 c 0
EndSplineSet
Validated: 1
EndChar
StartChar: section
Encoding: 8556 167 2521
Width: 529
Flags: HW
LayerCount: 2
Fore
SplineSet
446 45 m 0
 446 -52.8965581415 357.053596788 -104 252 -104 c 0
 173.333333333 -104 110 -89 62 -59 c 0
 53.1999812958 -53.9714178833 46 -38.6415183456 46 -25 c 0
 46 -3.0528698451 64.3444781742 16 86 16 c 0
 92 16 99 14 107 10 c 0
 143.666666667 -8.66666666667 190 -18 246 -18 c 0
 320.666666667 -18 358 5 358 51 c 0
 358 69.6666666667 348.666666667 84.6666666667 330 96 c 0
 292.129236047 119.211113391 185.845234594 157.503970058 148 177 c 0
 99.8373380489 200.493981439 56 245.336161048 56 313 c 0
 56 375 88.3333333333 417 153 439 c 1
 111 471 90 511.333333333 90 560 c 0
 90 657.896558142 178.946403212 709 284 709 c 0
 340 709 390 700 434 682 c 0
 452.666666667 674 462 660.666666667 462 642 c 0
 462 620.901137659 441.071893117 601 420 601 c 0
 414 601 409 602 405 604 c 0
 371.666666667 616.666666667 333.333333333 623 290 623 c 0
 215.333333333 623 178 600 178 554 c 0
 178 534.666666667 187.333333333 520 206 510 c 0
 244.190281463 484.978781109 346.505024971 449.365776331 389 427 c 0
 437.239475641 403.468548468 480 359.704989401 480 292 c 0
 480 228.666666667 447.333333333 186.333333333 382 165 c 1
 424.666666667 135.666666667 446 95.6666666667 446 45 c 0
394 286 m 0
 394 322.292517601 364.640352897 343.734830903 338 356.5 c 128
 322 364.166666667 298.666666667 373.666666667 268 385 c 2
 245 394 l 2
 236.333333333 396.666666667 226.333333333 400.666666667 215 406 c 1
 166.333333333 394 142 365 142 319 c 0
 142 282.707482399 171.359647103 261.265169097 198 248.5 c 128
 214 240.833333333 237 231.333333333 267 220 c 2
 320 199 l 1
 369.333333333 211 394 240 394 286 c 0
EndSplineSet
EndChar
StartChar: dieresis
Encoding: 8487 168 2463
Width: 1024
Flags: HW
LayerCount: 2
Fore
SplineSet
426 786 m 256
 398.260523325 786 374 810.261440218 374 838 c 256
 374 865.739476675 398.261440218 890 426 890 c 256
 453.739476675 890 478 865.738559782 478 838 c 256
 478 810.260523325 453.738559782 786 426 786 c 256
594 786 m 256
 566.260523325 786 542 810.261440218 542 838 c 256
 542 865.739476675 566.261440218 890 594 890 c 256
 621.739476675 890 646 865.738559782 646 838 c 256
 646 810.260523325 621.738559782 786 594 786 c 256
EndSplineSet
EndChar
StartChar: degree
Encoding: 8547 176 2512
Width: 378
Flags: HW
LayerCount: 2
Fore
SplineSet
189 433 m 256
 133.866839929 433 92.0758287227 465.900599749 70 502.5 c 128
 57.3333333333 523.5 51 546.333333333 51 571 c 256
 51 626.133160071 83.9005997495 667.924171277 120.5 690 c 128
 141.5 702.666666667 164.333333333 709 189 709 c 256
 244.133160071 709 285.924171277 676.099400251 308 639.5 c 128
 320.666666667 618.5 327 595.666666667 327 571 c 256
 327 515.866839929 294.099400251 474.075828723 257.5 452 c 128
 236.5 439.333333333 213.666666667 433 189 433 c 256
189 487 m 256
 235.301934012 487 273 524.699349638 273 571 c 256
 273 617.301934012 235.300650362 655 189 655 c 256
 142.698065988 655 105 617.300650362 105 571 c 256
 105 524.698065988 142.699349638 487 189 487 c 256
EndSplineSet
EndChar
StartChar: plusminus
Encoding: 8512 177 2483
Width: 606
Flags: HW
LayerCount: 2
Fore
SplineSet
303 144 m 0
 281.875085327 144 263 162.87581884 263 184 c 2
 263 341 l 1
 100 341 l 2
 78.8490329947 341 61 358.849674818 61 380 c 0
 61 401.975507539 78.3209324008 420 100 420 c 2
 263 420 l 1
 263 577 l 2
 263 598.982184116 281.337829095 617 303 617 c 0
 325.510352671 617 343 599.509802536 343 577 c 2
 343 420 l 1
 505 420 l 2
 527.510352671 420 545 402.509802536 545 380 c 0
 545 358.322729604 526.972384868 341 505 341 c 2
 343 341 l 1
 343 184 l 2
 343 162.33966171 324.979094927 144 303 144 c 0
100 -1 m 2
 78.8490329947 -1 61 16.8496748187 61 38 c 0
 61 59.9755075395 78.3209324008 78 100 78 c 2
 505 78 l 2
 527.510352671 78 545 60.5098025363 545 38 c 0
 545 16.322729603 526.972384868 -1 505 -1 c 2
 100 -1 l 2
EndSplineSet
EndChar
StartChar: multiply
Encoding: 8513 215 2484
Width: 563
Flags: HW
LayerCount: 2
Fore
SplineSet
97 35 m 0
 76.3806575612 35 58 53.6935774992 58 74 c 0
 58 83.3333333333 62 92.6666666667 70 102 c 2
 227 258 l 1
 70 414 l 2
 62 423.333333333 58 432.666666667 58 442 c 0
 58 462.304542501 76.3839832279 481 97 481 c 0
 106.333333333 481 115.666666667 477 125 469 c 2
 281 312 l 1
 437 469 l 2
 446.333333333 477 455.666666667 481 465 481 c 0
 485.619342438 481 504 462.306422501 504 442 c 0
 504 432.666666667 500 423.333333333 492 414 c 2
 335 258 l 1
 492 102 l 2
 500 92.6666666667 504 83.3333333333 504 74 c 0
 504 53.695457499 485.616016773 35 465 35 c 0
 455.666666667 35 446.333333333 39 437 47 c 2
 281 204 l 1
 125 47 l 2
 115.666666667 39 106.333333333 35 97 35 c 0
EndSplineSet
EndChar
StartChar: agrave
Encoding: 10276 224 2940
Width: 562
Flags: HW
LayerCount: 2
Fore
SplineSet
307 594 m 0
 307 577.575098502 295.760260116 566 279 566 c 0
 269.666666667 566 262 569.666666667 256 577 c 2
 187 659 l 2
 180.333333333 665.666666667 177 674.333333333 177 685 c 0
 177 708.431238292 191.911320296 723 215 723 c 0
 231 723 242.333333333 716.333333333 249 703 c 2
 300 614 l 2
 304.666666667 606 307 599.333333333 307 594 c 0
209 -11 m 0
 116.047202766 -11 45 46.7364744603 45 140 c 0
 45 257.729683753 148.80267553 303 276 303 c 2
 396 303 l 1
 396 310 l 2
 396 398.394195798 353.36685749 433 263 433 c 0
 206.02786378 433 177.483668689 424.827889564 130 409 c 1
 117 407 l 1
 96.6787157757 407 79 425.390914495 79 446 c 0
 79 464.666666667 88 477.666666667 106 485 c 0
 162 509 219.666666667 521 279 521 c 0
 369.759666371 521 434.872355341 481.725225538 466 421.5 c 128
 481.333333333 391.833333333 489 359 489 323 c 2
 489 40 l 2
 489 14.8750853272 467.098037138 -6 442 -6 c 256
 416.875085327 -6 396 14.8758188404 396 40 c 2
 396 64 l 1
 348 14 285.666666667 -11 209 -11 c 0
243 71 m 0
 308.278026095 71 363.123404963 107.588702199 396 145 c 1
 396 228 l 1
 288 228 l 2
 188 228 138 202 138 150 c 0
 138 97.3333333333 173 71 243 71 c 0
EndSplineSet
EndChar
StartChar: aacute
Encoding: 10274 225 2938
Width: 562
Flags: HW
LayerCount: 2
Fore
SplineSet
279 566 m 0
 262.575098502 566 251 577.239739884 251 594 c 0
 251 599.333333333 253.333333333 606 258 614 c 2
 309 703 l 2
 315.666666667 716.333333333 327 723 343 723 c 0
 364.707592672 723 381 707.036902446 381 685 c 0
 381 674.333333333 377.666666667 665.666666667 371 659 c 2
 302 577 l 2
 296 569.666666667 288.333333333 566 279 566 c 0
209 -11 m 0
 116.047202766 -11 45 46.7364744603 45 140 c 0
 45 257.729683753 148.80267553 303 276 303 c 2
 396 303 l 1
 396 310 l 2
 396 398.394195798 353.36685749 433 263 433 c 0
 206.02786378 433 177.483668689 424.827889564 130 409 c 1
 117 407 l 1
 96.6787157757 407 79 425.390914495 79 446 c 0
 79 464.666666667 88 477.666666667 106 485 c 0
 162 509 219.666666667 521 279 521 c 0
 369.759666371 521 434.872355341 481.725225538 466 421.5 c 128
 481.333333333 391.833333333 489 359 489 323 c 2
 489 40 l 2
 489 14.8750853272 467.098037138 -6 442 -6 c 256
 416.875085327 -6 396 14.8758188404 396 40 c 2
 396 64 l 1
 348 14 285.666666667 -11 209 -11 c 0
243 71 m 0
 308.278026095 71 363.123404963 107.588702199 396 145 c 1
 396 228 l 1
 288 228 l 2
 188 228 138 202 138 150 c 0
 138 97.3333333333 173 71 243 71 c 0
EndSplineSet
EndChar
StartChar: egrave
Encoding: 10280 232 2944
Width: 566
Flags: HW
LayerCount: 2
Fore
SplineSet
313 594 m 0
 313 577.575098502 301.760260116 566 285 566 c 0
 275.666666667 566 268 569.666666667 262 577 c 2
 193 659 l 2
 186.333333333 665.666666667 183 674.333333333 183 685 c 0
 183 708.431238292 197.911320296 723 221 723 c 0
 237 723 248.333333333 716.333333333 255 703 c 2
 306 614 l 2
 310.666666667 606 313 599.333333333 313 594 c 0
307 -11 m 0
 141.828437992 -11 47 88.9412278741 47 255 c 0
 47 357.647955546 89.47587338 442.111480758 155 485 c 128
 191.666666667 509 235.666666667 521 287 521 c 0
 391.726347494 521 460.477667534 467.914969546 497 395.5 c 128
 516.333333333 357.166666667 526 314.666666667 526 268 c 0
 526 241.820709637 505.808193399 222 479 222 c 2
 141 222 l 1
 152.745310315 129.34255196 211.764355009 76 315 76 c 0
 372.853728516 76 409.527685874 86.7638429366 450 107 c 0
 454.666666667 109.666666667 460.666666667 111 468 111 c 0
 489.64318122 111 509 92.9856394893 509 71 c 0
 509 55.6666666667 500 43 482 33 c 0
 427.186313131 2.98298100012 388.426056901 -11 307 -11 c 0
433 311 m 0
 427.462919911 366.370800882 394.596937071 406.259969442 354.5 426 c 128
 332.833333333 436.666666667 310.333333333 442 287 442 c 0
 200.813750815 442 146.523082041 380.846230611 141 298 c 1
 421 298 l 2
 429.666666667 298 433.666666667 302.333333333 433 311 c 0
EndSplineSet
EndChar
StartChar: eacute
Encoding: 10278 233 2942
Width: 566
Flags: HW
LayerCount: 2
Fore
SplineSet
285 566 m 0
 268.575098502 566 257 577.239739884 257 594 c 0
 257 599.333333333 259.333333333 606 264 614 c 2
 315 703 l 2
 321.666666667 716.333333333 333 723 349 723 c 0
 370.707592672 723 387 707.036902446 387 685 c 0
 387 674.333333333 383.666666667 665.666666667 377 659 c 2
 308 577 l 2
 302 569.666666667 294.333333333 566 285 566 c 0
307 -11 m 0
 141.828437992 -11 47 88.9412278741 47 255 c 0
 47 357.647955546 89.47587338 442.111480758 155 485 c 128
 191.666666667 509 235.666666667 521 287 521 c 0
 391.726347494 521 460.477667534 467.914969546 497 395.5 c 128
 516.333333333 357.166666667 526 314.666666667 526 268 c 0
 526 241.820709637 505.808193399 222 479 222 c 2
 141 222 l 1
 152.745310315 129.34255196 211.764355009 76 315 76 c 0
 372.853728516 76 409.527685874 86.7638429366 450 107 c 0
 454.666666667 109.666666667 460.666666667 111 468 111 c 0
 489.64318122 111 509 92.9856394893 509 71 c 0
 509 55.6666666667 500 43 482 33 c 0
 427.186313131 2.98298100012 388.426056901 -11 307 -11 c 0
433 311 m 0
 427.462919911 366.370800882 394.596937071 406.259969442 354.5 426 c 128
 332.833333333 436.666666667 310.333333333 442 287 442 c 0
 200.813750815 442 146.523082041 380.846230611 141 298 c 1
 421 298 l 2
 429.666666667 298 433.666666667 302.333333333 433 311 c 0
EndSplineSet
EndChar
StartChar: ecircumflex
Encoding: 10298 234 2966
GlifName: ecircumflex
Width: 566
Flags: HW
LayerCount: 2
Fore
SplineSet
158.5 574.5 m 128
 152.166666667 580.833333333 149 587.666666667 149 595 c 256
 149 602.333333333 151.666666667 609.333333333 157 616 c 2
 225 686 l 2
 237.666666667 699.333333333 251.333333333 706 266 706 c 2
 304 706 l 2
 318.666666667 706 332.333333333 699.333333333 345 686 c 2
 413 616 l 2
 418.333333333 609.333333333 421 602.333333333 421 595 c 256
 421 587.666666667 417.833333333 580.833333333 411.5 574.5 c 128
 405.166666667 568.166666667 398 565 390 565 c 0
 382.666666667 565 376.333333333 567.333333333 371 572 c 2
 293 638 l 2
 291 640.666666667 288.333333333 642 285 642 c 0
 282.333333333 642 279.666666667 640.666666667 277 638 c 2
 199 572 l 2
 193.666666667 567.333333333 187.333333333 565 180 565 c 0
 172 565 164.833333333 568.166666667 158.5 574.5 c 128
115.5 59 m 128
 69.8333333333 105.666666667 47 171 47 255 c 0
 47 300.333333333 55.6666666667 344 73 386 c 0
 91 428 118.333333333 461 155 485 c 128
 191.666666667 509 235.666666667 521 287 521 c 0
 336.333333333 521 379.333333333 509.666666667 416 487 c 0
 450.666666667 464.333333333 477.666666667 433.833333333 497 395.5 c 128
 516.333333333 357.166666667 526 314.666666667 526 268 c 0
 526 255.333333333 521.666666667 244.5 513 235.5 c 128
 504.333333333 226.5 493 222 479 222 c 2
 141 222 l 1
 147 174.666666667 164.833333333 138.5 194.5 113.5 c 128
 224.166666667 88.5 264.333333333 76 315 76 c 0
 341.666666667 76 365.5 78.5 386.5 83.5 c 128
 407.5 88.5 428.666666667 96.3333333333 450 107 c 0
 454.666666667 109.666666667 460.666666667 111 468 111 c 0
 478.666666667 111 488.166666667 107.166666667 496.5 99.5 c 128
 504.833333333 91.8333333333 509 82.3333333333 509 71 c 0
 509 55.6666666667 500 43 482 33 c 0
 454 17.6666666667 427.333333333 6.5 402 -0.5 c 128
 376.666666667 -7.5 345 -11 307 -11 c 0
 225 -11 161.166666667 12.3333333333 115.5 59 c 128
433 311 m 0
 430.333333333 337.666666667 422.333333333 360 409 378 c 0
 394.333333333 399.333333333 376.166666667 415.333333333 354.5 426 c 128
 332.833333333 436.666666667 310.333333333 442 287 442 c 0
 265.666666667 442 243.333333333 437 220 427 c 0
 196.666666667 415.666666667 178.166666667 398.833333333 164.5 376.5 c 128
 150.833333333 354.166666667 143 328 141 298 c 1
 421 298 l 2
 429.666666667 298 433.666666667 302.333333333 433 311 c 0
EndSplineSet
Validated: 1
EndChar
StartChar: igrave
Encoding: 10284 236 2952
GlifName: igrave
Width: 249
Flags: HW
LayerCount: 2
Fore
SplineSet
102 577 m 2
 33 659 l 2
 26.3333333333 665.666666667 23 674.333333333 23 685 c 0
 23 697 26.5 706.333333333 33.5 713 c 128
 40.5 719.666666667 49.6666666667 723 61 723 c 0
 77 723 88.3333333333 716.333333333 95 703 c 2
 146 614 l 2
 150.666666667 606 153 599.333333333 153 594 c 0
 153 586 150.5 579.333333333 145.5 574 c 128
 140.5 568.666666667 133.666666667 566 125 566 c 0
 115.666666667 566 108 569.666666667 102 577 c 2
91.5 7.5 m 128
 82.5 16.5 78 27.3333333333 78 40 c 2
 78 469 l 2
 78 481.666666667 82.5 492.666666667 91.5 502 c 128
 100.5 511.333333333 111.333333333 516 124 516 c 0
 137.333333333 516 148.5 511.5 157.5 502.5 c 128
 166.5 493.5 171 482.333333333 171 469 c 2
 171 40 l 2
 171 27.3333333333 166.333333333 16.5 157 7.5 c 128
 147.666666667 -1.5 136.666666667 -6 124 -6 c 256
 111.333333333 -6 100.5 -1.5 91.5 7.5 c 128
EndSplineSet
Validated: 1
EndChar
StartChar: iacute
Encoding: 10282 237 2946
Width: 249
Flags: HW
LayerCount: 2
Fore
SplineSet
125 566 m 0
 108.575098502 566 97 577.239739884 97 594 c 0
 97 599.333333333 99.3333333333 606 104 614 c 2
 155 703 l 2
 161.666666667 716.333333333 173 723 189 723 c 0
 210.707592672 723 227 707.036902446 227 685 c 0
 227 674.333333333 223.666666667 665.666666667 217 659 c 2
 148 577 l 2
 142 569.666666667 134.333333333 566 125 566 c 0
124 -6 m 256
 98.8750853275 -6 78 14.8758188404 78 40 c 2
 78 469 l 2
 78 494.098862341 98.87581884 516 124 516 c 0
 150.484300339 516 171 495.483658514 171 469 c 2
 171 40 l 2
 171 14.8750853272 149.098037138 -6 124 -6 c 256
EndSplineSet
EndChar
StartChar: ograve
Encoding: 10288 242 2952
Width: 608
Flags: HW
LayerCount: 2
Fore
SplineSet
332 594 m 0
 332 577.575098502 320.760260116 566 304 566 c 0
 294.666666667 566 287 569.666666667 281 577 c 2
 212 659 l 2
 205.333333333 665.666666667 202 674.333333333 202 685 c 0
 202 708.431238292 216.911320296 723 240 723 c 0
 256 723 267.333333333 716.333333333 274 703 c 2
 325 614 l 2
 329.666666667 606 332 599.333333333 332 594 c 0
304 -11 m 0
 193.318435374 -11 118.482368446 41.736735148 79 117 c 128
 57.6666666667 157.666666667 47 203.666666667 47 255 c 0
 47 365.167964943 96.729148956 446.949776334 169.5 488 c 128
 208.5 510 253.333333333 521 304 521 c 256
 413.472106652 521 489.813459464 467.587053202 529 393.5 c 128
 550.333333333 353.166666667 561 307 561 255 c 256
 561 144.415020008 509.887048291 62.8337195487 437.5 22 c 128
 398.5 0 354 -11 304 -11 c 0
304 436 m 0
 199.849727313 436 140 363.234818937 140 256 c 0
 140 175.633209798 171.685715096 121.843443783 222.5 94 c 128
 246.833333333 80.6666666667 274 74 304 74 c 0
 370.259547125 74 419.225873126 107.994510203 445 154.5 c 128
 460.333333333 182.166666667 468 216 468 256 c 0
 468 335.694405476 436.252179152 388.190586766 385.5 416 c 128
 361.166666667 429.333333333 334 436 304 436 c 0
EndSplineSet
EndChar
StartChar: oacute
Encoding: 10286 243 2950
Width: 608
Flags: HW
LayerCount: 2
Fore
SplineSet
304 566 m 0
 287.575098502 566 276 577.239739884 276 594 c 0
 276 599.333333333 278.333333333 606 283 614 c 2
 334 703 l 2
 340.666666667 716.333333333 352 723 368 723 c 0
 389.707592672 723 406 707.036902446 406 685 c 0
 406 674.333333333 402.666666667 665.666666667 396 659 c 2
 327 577 l 2
 321 569.666666667 313.333333333 566 304 566 c 0
304 -11 m 0
 193.318435374 -11 118.482368446 41.736735148 79 117 c 128
 57.6666666667 157.666666667 47 203.666666667 47 255 c 0
 47 365.167964943 96.729148956 446.949776334 169.5 488 c 128
 208.5 510 253.333333333 521 304 521 c 256
 413.472106652 521 489.813459464 467.587053202 529 393.5 c 128
 550.333333333 353.166666667 561 307 561 255 c 256
 561 144.415020008 509.887048291 62.8337195487 437.5 22 c 128
 398.5 0 354 -11 304 -11 c 0
304 436 m 0
 199.849727313 436 140 363.234818937 140 256 c 0
 140 175.633209798 171.685715096 121.843443783 222.5 94 c 128
 246.833333333 80.6666666667 274 74 304 74 c 0
 370.259547125 74 419.225873126 107.994510203 445 154.5 c 128
 460.333333333 182.166666667 468 216 468 256 c 0
 468 335.694405476 436.252179152 388.190586766 385.5 416 c 128
 361.166666667 429.333333333 334 436 304 436 c 0
EndSplineSet
EndChar
StartChar: divide
Encoding: 8514 247 2485
Width: 712
Flags: HW
LayerCount: 2
Fore
SplineSet
356 464 m 256
 328.260523325 464 304 488.261440218 304 516 c 256
 304 543.739476675 328.261440218 568 356 568 c 256
 383.739476675 568 408 543.738559782 408 516 c 256
 408 488.260523325 383.738559782 464 356 464 c 256
113 290 m 2
 90.5156996609 290 72 308.516341486 72 331 c 0
 72 354.843686005 89.1307201086 373 113 373 c 2
 598 373 l 2
 620.458248007 373 640 353.457514492 640 331 c 0
 640 307.130261663 621.84313587 290 598 290 c 2
 113 290 l 2
356 94 m 256
 328.260523325 94 304 118.261440217 304 146 c 256
 304 173.739476675 328.261440218 198 356 198 c 256
 383.739476675 198 408 173.738559782 408 146 c 256
 408 118.260523325 383.738559782 94 356 94 c 256
EndSplineSet
EndChar
StartChar: ugrave
Encoding: 10292 249 2956
Width: 609
Flags: HW
LayerCount: 2
Fore
SplineSet
333 594 m 0
 333 577.575098502 321.760260116 566 305 566 c 0
 295.666666667 566 288 569.666666667 282 577 c 2
 213 659 l 2
 206.333333333 665.666666667 203 674.333333333 203 685 c 0
 203 708.431238292 217.911320296 723 241 723 c 0
 257 723 268.333333333 716.333333333 275 703 c 2
 326 614 l 2
 330.666666667 606 333 599.333333333 333 594 c 0
485 -6 m 256
 459.901137659 -6 438 15.9019628621 438 41 c 2
 438 79 l 1
 410.666666667 49.6666666667 382.333333333 27.3333333333 353 12 c 128
 323.666666667 -3.33333333333 290.333333333 -11 253 -11 c 0
 174.902247962 -11 121.999613287 30.7735182787 95 86 c 128
 80.3333333333 116 73 149.333333333 73 186 c 2
 73 470 l 2
 73 495.124914673 94.9019628618 516 120 516 c 256
 145.124914673 516 166 495.12418116 166 470 c 2
 166 196 l 2
 166 115.333333333 202.333333333 75 275 75 c 0
 307 75 335.833333333 83 361.5 99 c 128
 387.166666667 115 412.666666667 138.666666667 438 170 c 1
 438 470 l 2
 438 495.124914673 459.901962862 516 485 516 c 256
 510.124914673 516 531 495.12418116 531 470 c 2
 531 41 l 2
 531 15.9011376597 510.12418116 -6 485 -6 c 256
EndSplineSet
EndChar
StartChar: uacute
Encoding: 10290 250 2954
Width: 609
Flags: HW
LayerCount: 2
Fore
SplineSet
305 566 m 0
 288.575098502 566 277 577.239739884 277 594 c 0
 277 599.333333333 279.333333333 606 284 614 c 2
 335 703 l 2
 341.666666667 716.333333333 353 723 369 723 c 0
 390.707592672 723 407 707.036902446 407 685 c 0
 407 674.333333333 403.666666667 665.666666667 397 659 c 2
 328 577 l 2
 322 569.666666667 314.333333333 566 305 566 c 0
485 -6 m 256
 459.901137659 -6 438 15.9019628621 438 41 c 2
 438 79 l 1
 410.666666667 49.6666666667 382.333333333 27.3333333333 353 12 c 128
 323.666666667 -3.33333333333 290.333333333 -11 253 -11 c 0
 174.902247962 -11 121.999613287 30.7735182787 95 86 c 128
 80.3333333333 116 73 149.333333333 73 186 c 2
 73 470 l 2
 73 495.124914673 94.9019628618 516 120 516 c 256
 145.124914673 516 166 495.12418116 166 470 c 2
 166 196 l 2
 166 115.333333333 202.333333333 75 275 75 c 0
 307 75 335.833333333 83 361.5 99 c 128
 387.166666667 115 412.666666667 138.666666667 438 170 c 1
 438 470 l 2
 438 495.124914673 459.901962862 516 485 516 c 256
 510.124914673 516 531 495.12418116 531 470 c 2
 531 41 l 2
 531 15.9011376597 510.12418116 -6 485 -6 c 256
EndSplineSet
EndChar
StartChar: udieresis
Encoding: 10297 252 2961
Width: 609
Flags: HW
LayerCount: 2
Fore
SplineSet
221 574 m 256
 193.260523325 574 169 598.261440218 169 626 c 256
 169 653.739476675 193.261440218 678 221 678 c 256
 248.739476675 678 273 653.738559782 273 626 c 256
 273 598.260523325 248.738559782 574 221 574 c 256
389 574 m 256
 361.260523325 574 337 598.261440218 337 626 c 256
 337 653.739476675 361.261440218 678 389 678 c 256
 416.739476675 678 441 653.738559782 441 626 c 256
 441 598.260523325 416.738559782 574 389 574 c 256
485 -6 m 256
 459.901137659 -6 438 15.9019628621 438 41 c 2
 438 79 l 1
 410.666666667 49.6666666667 382.333333333 27.3333333333 353 12 c 128
 323.666666667 -3.33333333333 290.333333333 -11 253 -11 c 0
 174.902247962 -11 121.999613287 30.7735182787 95 86 c 128
 80.3333333333 116 73 149.333333333 73 186 c 2
 73 470 l 2
 73 495.124914673 94.9019628618 516 120 516 c 256
 145.124914673 516 166 495.12418116 166 470 c 2
 166 196 l 2
 166 115.333333333 202.333333333 75 275 75 c 0
 307 75 335.833333333 83 361.5 99 c 128
 387.166666667 115 412.666666667 138.666666667 438 170 c 1
 438 470 l 2
 438 495.124914673 459.901962862 516 485 516 c 256
 510.124914673 516 531 495.12418116 531 470 c 2
 531 41 l 2
 531 15.9011376597 510.12418116 -6 485 -6 c 256
EndSplineSet
EndChar
StartChar: amacron
Encoding: 10273 257 2937
Width: 562
Flags: HW
LayerCount: 2
Fore
SplineSet
140 596 m 128
 134 602 131 609.333333333 131 618 c 256
 131 626.666666667 134 634 140 640 c 128
 146 646 153.333333333 649 162 649 c 2
 396 649 l 2
 404.666666667 649 412 646 418 640 c 128
 424 634 427 626.666666667 427 618 c 256
 427 609.333333333 424 602 418 596 c 128
 412 590 404.666666667 587 396 587 c 2
 162 587 l 2
 153.333333333 587 146 590 140 596 c 128
128 7 m 0
 102 19 81.6666666667 36.6666666667 67 60 c 128
 52.3333333333 83.3333333333 45 110 45 140 c 0
 45 192 65.1666666667 232.166666667 105.5 260.5 c 128
 145.833333333 288.833333333 202.666666667 303 276 303 c 2
 396 303 l 1
 396 310 l 2
 396 352.666666667 385.5 383.833333333 364.5 403.5 c 128
 343.5 423.166666667 309.666666667 433 263 433 c 0
 239 433 217.333333333 431.166666667 198 427.5 c 128
 178.666666667 423.833333333 156 417.666666667 130 409 c 1
 117 407 l 2
 107 407 98.1666666667 410.833333333 90.5 418.5 c 128
 82.8333333333 426.166666667 79 435.333333333 79 446 c 0
 79 464.666666667 88 477.666666667 106 485 c 0
 162 509 219.666666667 521 279 521 c 0
 325 521 364.333333333 511.666666667 397 493 c 0
 427.666666667 475 450.666666667 451.166666667 466 421.5 c 128
 481.333333333 391.833333333 489 359 489 323 c 2
 489 40 l 2
 489 27.3333333333 484.333333333 16.5 475 7.5 c 128
 465.666666667 -1.5 454.666666667 -6 442 -6 c 256
 429.333333333 -6 418.5 -1.5 409.5 7.5 c 128
 400.5 16.5 396 27.3333333333 396 40 c 2
 396 64 l 1
 348 14 285.666666667 -11 209 -11 c 0
 180.333333333 -11 153.333333333 -5 128 7 c 0
326.5 91.5 m 128
 353.5 105.166666667 376.666666667 123 396 145 c 1
 396 228 l 1
 288 228 l 2
 188 228 138 202 138 150 c 0
 138 97.3333333333 173 71 243 71 c 0
 271.666666667 71 299.5 77.8333333333 326.5 91.5 c 128
EndSplineSet
Validated: 1
EndChar
StartChar: emacron
Encoding: 10277 275 2941
Width: 566
Flags: HW
LayerCount: 2
Fore
SplineSet
146 596 m 128
 140 602 137 609.333333333 137 618 c 256
 137 626.666666667 140 634 146 640 c 128
 152 646 159.333333333 649 168 649 c 2
 402 649 l 2
 410.666666667 649 418 646 424 640 c 128
 430 634 433 626.666666667 433 618 c 256
 433 609.333333333 430 602 424 596 c 128
 418 590 410.666666667 587 402 587 c 2
 168 587 l 2
 159.333333333 587 152 590 146 596 c 128
115.5 59 m 128
 69.8333333333 105.666666667 47 171 47 255 c 0
 47 300.333333333 55.6666666667 344 73 386 c 0
 91 428 118.333333333 461 155 485 c 128
 191.666666667 509 235.666666667 521 287 521 c 0
 336.333333333 521 379.333333333 509.666666667 416 487 c 0
 450.666666667 464.333333333 477.666666667 433.833333333 497 395.5 c 128
 516.333333333 357.166666667 526 314.666666667 526 268 c 0
 526 255.333333333 521.666666667 244.5 513 235.5 c 128
 504.333333333 226.5 493 222 479 222 c 2
 141 222 l 1
 147 174.666666667 164.833333333 138.5 194.5 113.5 c 128
 224.166666667 88.5 264.333333333 76 315 76 c 0
 341.666666667 76 365.5 78.5 386.5 83.5 c 128
 407.5 88.5 428.666666667 96.3333333333 450 107 c 0
 454.666666667 109.666666667 460.666666667 111 468 111 c 0
 478.666666667 111 488.166666667 107.166666667 496.5 99.5 c 128
 504.833333333 91.8333333333 509 82.3333333333 509 71 c 0
 509 55.6666666667 500 43 482 33 c 0
 454 17.6666666667 427.333333333 6.5 402 -0.5 c 128
 376.666666667 -7.5 345 -11 307 -11 c 0
 225 -11 161.166666667 12.3333333333 115.5 59 c 128
433 311 m 0
 430.333333333 337.666666667 422.333333333 360 409 378 c 0
 394.333333333 399.333333333 376.166666667 415.333333333 354.5 426 c 128
 332.833333333 436.666666667 310.333333333 442 287 442 c 0
 265.666666667 442 243.333333333 437 220 427 c 0
 196.666666667 415.666666667 178.166666667 398.833333333 164.5 376.5 c 128
 150.833333333 354.166666667 143 328 141 298 c 1
 421 298 l 2
 429.666666667 298 433.666666667 302.333333333 433 311 c 0
EndSplineSet
Validated: 1
EndChar
StartChar: ecaron
Encoding: 10279 283 2943
Width: 566
Flags: HW
LayerCount: 2
Fore
SplineSet
390 707 m 0
 405.271935365 707 421 691.994763235 421 677 c 256
 421 669.666666667 418.333333333 662.666666667 413 656 c 2
 345 586 l 2
 332.333333333 572.666666667 318.666666667 566 304 566 c 2
 266 566 l 2
 251.333333333 566 237.666666667 572.666666667 225 586 c 2
 157 656 l 2
 151.666666667 662.666666667 149 669.666666667 149 677 c 256
 149 691.992704191 164.731694074 707 180 707 c 0
 187.333333333 707 193.666666667 704.666666667 199 700 c 2
 277 634 l 2
 281 631.333333333 283.666666667 630 285 630 c 0
 287.666666667 630 290.333333333 631.333333333 293 634 c 2
 371 700 l 2
 376.333333333 704.666666667 382.666666667 707 390 707 c 0
307 -11 m 0
 141.828437992 -11 47 88.9412278741 47 255 c 0
 47 357.647955546 89.47587338 442.111480758 155 485 c 128
 191.666666667 509 235.666666667 521 287 521 c 0
 391.726347494 521 460.477667534 467.914969546 497 395.5 c 128
 516.333333333 357.166666667 526 314.666666667 526 268 c 0
 526 241.820709637 505.808193399 222 479 222 c 2
 141 222 l 1
 152.745310315 129.34255196 211.764355009 76 315 76 c 0
 372.853728516 76 409.527685874 86.7638429366 450 107 c 0
 454.666666667 109.666666667 460.666666667 111 468 111 c 0
 489.64318122 111 509 92.9856394893 509 71 c 0
 509 55.6666666667 500 43 482 33 c 0
 427.186313131 2.98298100012 388.426056901 -11 307 -11 c 0
433 311 m 0
 427.462919911 366.370800882 394.596937071 406.259969442 354.5 426 c 128
 332.833333333 436.666666667 310.333333333 442 287 442 c 0
 200.813750815 442 146.523082041 380.846230611 141 298 c 1
 421 298 l 2
 429.666666667 298 433.666666667 302.333333333 433 311 c 0
EndSplineSet
EndChar
StartChar: imacron
Encoding: 10281 299 2945
Width: 249
Flags: HW
LayerCount: 2
Fore
SplineSet
16 596 m 128
 10 602 7 609.333333333 7 618 c 256
 7 626.666666667 10 634 16 640 c 128
 22 646 29.3333333333 649 38 649 c 2
 212 649 l 2
 220.666666667 649 228 646 234 640 c 128
 240 634 243 626.666666667 243 618 c 256
 243 609.333333333 240 602 234 596 c 128
 228 590 220.666666667 587 212 587 c 2
 38 587 l 2
 29.3333333333 587 22 590 16 596 c 128
91.5 7.5 m 128
 82.5 16.5 78 27.3333333333 78 40 c 2
 78 469 l 2
 78 481.666666667 82.5 492.666666667 91.5 502 c 128
 100.5 511.333333333 111.333333333 516 124 516 c 0
 137.333333333 516 148.5 511.5 157.5 502.5 c 128
 166.5 493.5 171 482.333333333 171 469 c 2
 171 40 l 2
 171 27.3333333333 166.333333333 16.5 157 7.5 c 128
 147.666666667 -1.5 136.666666667 -6 124 -6 c 256
 111.333333333 -6 100.5 -1.5 91.5 7.5 c 128
EndSplineSet
Validated: 1
EndChar
StartChar: omacron
Encoding: 10285 333 2949
Width: 608
Flags: HW
LayerCount: 2
Fore
SplineSet
187 587 m 2
 169.79692833 587 156 600.797386775 156 618 c 256
 156 635.20307167 169.797386775 649 187 649 c 2
 421 649 l 2
 438.20307167 649 452 635.202613225 452 618 c 256
 452 600.79692833 438.202613225 587 421 587 c 2
 187 587 l 2
304 -11 m 0
 193.318435374 -11 118.482368446 41.736735148 79 117 c 128
 57.6666666667 157.666666667 47 203.666666667 47 255 c 0
 47 365.167964943 96.729148956 446.949776334 169.5 488 c 128
 208.5 510 253.333333333 521 304 521 c 256
 413.472106652 521 489.813459464 467.587053202 529 393.5 c 128
 550.333333333 353.166666667 561 307 561 255 c 256
 561 144.415020008 509.887048291 62.8337195487 437.5 22 c 128
 398.5 0 354 -11 304 -11 c 0
304 436 m 0
 199.849727313 436 140 363.234818937 140 256 c 0
 140 175.633209798 171.685715096 121.843443783 222.5 94 c 128
 246.833333333 80.6666666667 274 74 304 74 c 0
 370.259547125 74 419.225873126 107.994510203 445 154.5 c 128
 460.333333333 182.166666667 468 216 468 256 c 0
 468 335.694405476 436.252179152 388.190586766 385.5 416 c 128
 361.166666667 429.333333333 334 436 304 436 c 0
EndSplineSet
EndChar
StartChar: umacron
Encoding: 10289 363 2953
Width: 609
Flags: HW
LayerCount: 2
Fore
SplineSet
188 587 m 2
 170.79692833 587 157 600.797386775 157 618 c 256
 157 635.20307167 170.797386775 649 188 649 c 2
 422 649 l 2
 439.20307167 649 453 635.202613225 453 618 c 256
 453 600.79692833 439.202613225 587 422 587 c 2
 188 587 l 2
485 -6 m 256
 459.901137659 -6 438 15.9019628621 438 41 c 2
 438 79 l 1
 410.666666667 49.6666666667 382.333333333 27.3333333333 353 12 c 128
 323.666666667 -3.33333333333 290.333333333 -11 253 -11 c 0
 174.902247962 -11 121.999613287 30.7735182787 95 86 c 128
 80.3333333333 116 73 149.333333333 73 186 c 2
 73 470 l 2
 73 495.124914673 94.9019628618 516 120 516 c 256
 145.124914673 516 166 495.12418116 166 470 c 2
 166 196 l 2
 166 115.333333333 202.333333333 75 275 75 c 0
 307 75 335.833333333 83 361.5 99 c 128
 387.166666667 115 412.666666667 138.666666667 438 170 c 1
 438 470 l 2
 438 495.124914673 459.901962862 516 485 516 c 256
 510.124914673 516 531 495.12418116 531 470 c 2
 531 41 l 2
 531 15.9011376597 510.12418116 -6 485 -6 c 256
EndSplineSet
EndChar
StartChar: uni01CE
Encoding: 10275 462 2939
Width: 562
Flags: HW
LayerCount: 2
Fore
SplineSet
384 710 m 0
 399.271935365 710 415 694.994763235 415 680 c 256
 415 672.666666667 412.333333333 665.666666667 407 659 c 2
 339 589 l 2
 326.333333333 575.666666667 312.666666667 569 298 569 c 2
 260 569 l 2
 245.333333333 569 231.666666667 575.666666667 219 589 c 2
 151 659 l 2
 145.666666667 665.666666667 143 672.666666667 143 680 c 256
 143 694.992704191 158.731694074 710 174 710 c 0
 181.333333333 710 187.666666667 707.666666667 193 703 c 2
 271 637 l 2
 275 634.333333333 277.666666667 633 279 633 c 0
 281.666666667 633 284.333333333 634.333333333 287 637 c 2
 365 703 l 2
 370.333333333 707.666666667 376.666666667 710 384 710 c 0
209 -11 m 0
 116.047202766 -11 45 46.7364744603 45 140 c 0
 45 257.729683753 148.80267553 303 276 303 c 2
 396 303 l 1
 396 310 l 2
 396 398.394195798 353.36685749 433 263 433 c 0
 206.02786378 433 177.483668689 424.827889564 130 409 c 1
 117 407 l 1
 96.6787157757 407 79 425.390914495 79 446 c 0
 79 464.666666667 88 477.666666667 106 485 c 0
 162 509 219.666666667 521 279 521 c 0
 369.759666371 521 434.872355341 481.725225538 466 421.5 c 128
 481.333333333 391.833333333 489 359 489 323 c 2
 489 40 l 2
 489 14.8750853272 467.098037138 -6 442 -6 c 256
 416.875085327 -6 396 14.8758188404 396 40 c 2
 396 64 l 1
 348 14 285.666666667 -11 209 -11 c 0
243 71 m 0
 308.278026095 71 363.123404963 107.588702199 396 145 c 1
 396 228 l 1
 288 228 l 2
 188 228 138 202 138 150 c 0
 138 97.3333333333 173 71 243 71 c 0
EndSplineSet
EndChar
StartChar: uni01D0
Encoding: 10283 464 2947
Width: 249
Flags: HW
LayerCount: 2
Fore
SplineSet
64 584 m 2
 -4 654 l 2
 -9.33333333333 660.666666667 -12 667.666666667 -12 675 c 256
 -12 682.333333333 -8.83333333333 689.166666667 -2.5 695.5 c 128
 3.83333333333 701.833333333 11 705 19 705 c 0
 26.3333333333 705 32.6666666667 702.666666667 38 698 c 2
 116 632 l 2
 120 629.333333333 122.666666667 628 124 628 c 0
 126.666666667 628 129.333333333 629.333333333 132 632 c 2
 210 698 l 2
 215.333333333 702.666666667 221.666666667 705 229 705 c 0
 237 705 244.166666667 701.833333333 250.5 695.5 c 128
 256.833333333 689.166666667 260 682.333333333 260 675 c 256
 260 667.666666667 257.333333333 660.666666667 252 654 c 2
 184 584 l 2
 171.333333333 570.666666667 157.666666667 564 143 564 c 2
 105 564 l 2
 90.3333333333 564 76.6666666667 570.666666667 64 584 c 2
91.5 7.5 m 128
 82.5 16.5 78 27.3333333333 78 40 c 2
 78 469 l 2
 78 481.666666667 82.5 492.666666667 91.5 502 c 128
 100.5 511.333333333 111.333333333 516 124 516 c 0
 137.333333333 516 148.5 511.5 157.5 502.5 c 128
 166.5 493.5 171 482.333333333 171 469 c 2
 171 40 l 2
 171 27.3333333333 166.333333333 16.5 157 7.5 c 128
 147.666666667 -1.5 136.666666667 -6 124 -6 c 256
 111.333333333 -6 100.5 -1.5 91.5 7.5 c 128
EndSplineSet
Validated: 1
EndChar
StartChar: uni01D2
Encoding: 10287 466 2951
Width: 608
Flags: HW
LayerCount: 2
Fore
SplineSet
244 589 m 2
 176 659 l 2
 170.666666667 665.666666667 168 672.666666667 168 680 c 256
 168 687.333333333 171.166666667 694.166666667 177.5 700.5 c 128
 183.833333333 706.833333333 191 710 199 710 c 0
 206.333333333 710 212.666666667 707.666666667 218 703 c 2
 296 637 l 2
 300 634.333333333 302.666666667 633 304 633 c 0
 306.666666667 633 309.333333333 634.333333333 312 637 c 2
 390 703 l 2
 395.333333333 707.666666667 401.666666667 710 409 710 c 0
 417 710 424.166666667 706.833333333 430.5 700.5 c 128
 436.833333333 694.166666667 440 687.333333333 440 680 c 256
 440 672.666666667 437.333333333 665.666666667 432 659 c 2
 364 589 l 2
 351.333333333 575.666666667 337.666666667 569 323 569 c 2
 285 569 l 2
 270.333333333 569 256.666666667 575.666666667 244 589 c 2
169 22 m 0
 130.333333333 44.6666666667 100.333333333 76.3333333333 79 117 c 128
 57.6666666667 157.666666667 47 203.666666667 47 255 c 0
 47 307 57.6666666667 353.333333333 79 394 c 256
 100.333333333 434.666666667 130.5 466 169.5 488 c 128
 208.5 510 253.333333333 521 304 521 c 256
 354.666666667 521 399.333333333 510 438 488 c 0
 477.333333333 465.333333333 507.666666667 433.833333333 529 393.5 c 128
 550.333333333 353.166666667 561 307 561 255 c 256
 561 203 550.333333333 157 529 117 c 0
 507 75.6666666667 476.5 44 437.5 22 c 128
 398.5 0 354 -11 304 -11 c 0
 252.666666667 -11 207.666666667 0 169 22 c 0
383 93 m 0
 409 106.333333333 429.666666667 126.833333333 445 154.5 c 128
 460.333333333 182.166666667 468 216 468 256 c 0
 468 298 460 332 444 358 c 0
 429.333333333 383.333333333 409.833333333 402.666666667 385.5 416 c 128
 361.166666667 429.333333333 334 436 304 436 c 0
 276.666666667 436 250.333333333 430 225 418 c 0
 199 404.666666667 178.333333333 384.333333333 163 357 c 128
 147.666666667 329.666666667 140 296 140 256 c 0
 140 213.333333333 148 179 164 153 c 0
 178.666666667 127 198.166666667 107.333333333 222.5 94 c 128
 246.833333333 80.6666666667 274 74 304 74 c 0
 331.333333333 74 357.666666667 80.3333333333 383 93 c 0
EndSplineSet
Validated: 1
EndChar
StartChar: uni01D4
Encoding: 10291 468 2955
Width: 609
Flags: HW
LayerCount: 2
Fore
SplineSet
407 690 m 0
 422.271935365 690 438 674.994763235 438 660 c 256
 438 652.666666667 435.333333333 645.666666667 430 639 c 2
 362 569 l 2
 349.333333333 555.666666667 335.666666667 549 321 549 c 2
 283 549 l 2
 268.333333333 549 254.666666667 555.666666667 242 569 c 2
 174 639 l 2
 168.666666667 645.666666667 166 652.666666667 166 660 c 256
 166 674.992704191 181.731694074 690 197 690 c 0
 204.333333333 690 210.666666667 687.666666667 216 683 c 2
 294 617 l 2
 298 614.333333333 300.666666667 613 302 613 c 0
 304.666666667 613 307.333333333 614.333333333 310 617 c 2
 388 683 l 2
 393.333333333 687.666666667 399.666666667 690 407 690 c 0
485 -6 m 256
 459.901137659 -6 438 15.9019628621 438 41 c 2
 438 79 l 1
 410.666666667 49.6666666667 382.333333333 27.3333333333 353 12 c 128
 323.666666667 -3.33333333333 290.333333333 -11 253 -11 c 0
 174.902247962 -11 121.999613287 30.7735182787 95 86 c 128
 80.3333333333 116 73 149.333333333 73 186 c 2
 73 470 l 2
 73 495.124914673 94.9019628618 516 120 516 c 256
 145.124914673 516 166 495.12418116 166 470 c 2
 166 196 l 2
 166 115.333333333 202.333333333 75 275 75 c 0
 307 75 335.833333333 83 361.5 99 c 128
 387.166666667 115 412.666666667 138.666666667 438 170 c 1
 438 470 l 2
 438 495.124914673 459.901962862 516 485 516 c 256
 510.124914673 516 531 495.12418116 531 470 c 2
 531 41 l 2
 531 15.9011376597 510.12418116 -6 485 -6 c 256
EndSplineSet
EndChar
StartChar: uni01D6
Encoding: 10293 470 2957
Width: 609
Flags: HW
LayerCount: 2
Fore
SplineSet
163 692 m 128
 157 698 154 705.333333333 154 714 c 256
 154 722.666666667 157 730 163 736 c 128
 169 742 176.333333333 745 185 745 c 2
 419 745 l 2
 427.666666667 745 435 742 441 736 c 128
 447 730 450 722.666666667 450 714 c 256
 450 705.333333333 447 698 441 692 c 128
 435 686 427.666666667 683 419 683 c 2
 185 683 l 2
 176.333333333 683 169 686 163 692 c 128
181.5 554.5 m 128
 171.166666667 564.833333333 166 577 166 591 c 256
 166 605 171.166666667 617.166666667 181.5 627.5 c 128
 191.833333333 637.833333333 204 643 218 643 c 256
 232 643 244.166666667 637.833333333 254.5 627.5 c 128
 264.833333333 617.166666667 270 605 270 591 c 256
 270 577 264.833333333 564.833333333 254.5 554.5 c 128
 244.166666667 544.166666667 232 539 218 539 c 256
 204 539 191.833333333 544.166666667 181.5 554.5 c 128
349.5 554.5 m 128
 339.166666667 564.833333333 334 577 334 591 c 256
 334 605 339.166666667 617.166666667 349.5 627.5 c 128
 359.833333333 637.833333333 372 643 386 643 c 256
 400 643 412.166666667 637.833333333 422.5 627.5 c 128
 432.833333333 617.166666667 438 605 438 591 c 256
 438 577 432.833333333 564.833333333 422.5 554.5 c 128
 412.166666667 544.166666667 400 539 386 539 c 256
 372 539 359.833333333 544.166666667 349.5 554.5 c 128
157 15 m 0
 130.333333333 32.3333333333 109.666666667 56 95 86 c 128
 80.3333333333 116 73 149.333333333 73 186 c 2
 73 470 l 2
 73 482.666666667 77.6666666667 493.5 87 502.5 c 128
 96.3333333333 511.5 107.333333333 516 120 516 c 256
 132.666666667 516 143.5 511.5 152.5 502.5 c 128
 161.5 493.5 166 482.666666667 166 470 c 2
 166 196 l 2
 166 115.333333333 202.333333333 75 275 75 c 0
 307 75 335.833333333 83 361.5 99 c 128
 387.166666667 115 412.666666667 138.666666667 438 170 c 1
 438 470 l 2
 438 482.666666667 442.666666667 493.5 452 502.5 c 128
 461.333333333 511.5 472.333333333 516 485 516 c 256
 497.666666667 516 508.5 511.5 517.5 502.5 c 128
 526.5 493.5 531 482.666666667 531 470 c 2
 531 41 l 2
 531 28.3333333333 526.5 17.3333333333 517.5 8 c 128
 508.5 -1.33333333333 497.666666667 -6 485 -6 c 256
 472.333333333 -6 461.333333333 -1.33333333333 452 8 c 128
 442.666666667 17.3333333333 438 28.3333333333 438 41 c 2
 438 79 l 1
 410.666666667 49.6666666667 382.333333333 27.3333333333 353 12 c 128
 323.666666667 -3.33333333333 290.333333333 -11 253 -11 c 0
 217 -11 185 -2.33333333333 157 15 c 0
EndSplineSet
Validated: 1
EndChar
StartChar: uni01D8
Encoding: 10294 472 2962
GlifName: uni01D_8
Width: 609
Flags: HW
LayerCount: 2
Fore
SplineSet
282 660.5 m 128
 276.666666667 665.5 274 672.333333333 274 681 c 0
 274 686.333333333 276.333333333 693 281 701 c 2
 332 790 l 2
 338.666666667 803.333333333 350 810 366 810 c 0
 376.666666667 810 385.666666667 806.5 393 799.5 c 128
 400.333333333 792.5 404 783.333333333 404 772 c 0
 404 761.333333333 400.666666667 752.666666667 394 746 c 2
 325 664 l 2
 319 656.666666667 311.333333333 653 302 653 c 0
 294 653 287.333333333 655.5 282 660.5 c 128
181.5 554.5 m 128
 171.166666667 564.833333333 166 577 166 591 c 256
 166 605 171.166666667 617.166666667 181.5 627.5 c 128
 191.833333333 637.833333333 204 643 218 643 c 256
 232 643 244.166666667 637.833333333 254.5 627.5 c 128
 264.833333333 617.166666667 270 605 270 591 c 256
 270 577 264.833333333 564.833333333 254.5 554.5 c 128
 244.166666667 544.166666667 232 539 218 539 c 256
 204 539 191.833333333 544.166666667 181.5 554.5 c 128
349.5 554.5 m 128
 339.166666667 564.833333333 334 577 334 591 c 256
 334 605 339.166666667 617.166666667 349.5 627.5 c 128
 359.833333333 637.833333333 372 643 386 643 c 256
 400 643 412.166666667 637.833333333 422.5 627.5 c 128
 432.833333333 617.166666667 438 605 438 591 c 256
 438 577 432.833333333 564.833333333 422.5 554.5 c 128
 412.166666667 544.166666667 400 539 386 539 c 256
 372 539 359.833333333 544.166666667 349.5 554.5 c 128
157 15 m 0
 130.333333333 32.3333333333 109.666666667 56 95 86 c 128
 80.3333333333 116 73 149.333333333 73 186 c 2
 73 470 l 2
 73 482.666666667 77.6666666667 493.5 87 502.5 c 128
 96.3333333333 511.5 107.333333333 516 120 516 c 256
 132.666666667 516 143.5 511.5 152.5 502.5 c 128
 161.5 493.5 166 482.666666667 166 470 c 2
 166 196 l 2
 166 115.333333333 202.333333333 75 275 75 c 0
 307 75 335.833333333 83 361.5 99 c 128
 387.166666667 115 412.666666667 138.666666667 438 170 c 1
 438 470 l 2
 438 482.666666667 442.666666667 493.5 452 502.5 c 128
 461.333333333 511.5 472.333333333 516 485 516 c 256
 497.666666667 516 508.5 511.5 517.5 502.5 c 128
 526.5 493.5 531 482.666666667 531 470 c 2
 531 41 l 2
 531 28.3333333333 526.5 17.3333333333 517.5 8 c 128
 508.5 -1.33333333333 497.666666667 -6 485 -6 c 256
 472.333333333 -6 461.333333333 -1.33333333333 452 8 c 128
 442.666666667 17.3333333333 438 28.3333333333 438 41 c 2
 438 79 l 1
 410.666666667 49.6666666667 382.333333333 27.3333333333 353 12 c 128
 323.666666667 -3.33333333333 290.333333333 -11 253 -11 c 0
 217 -11 185 -2.33333333333 157 15 c 0
EndSplineSet
Validated: 1
EndChar
StartChar: uni01DA
Encoding: 10295 474 2963
GlifName: uni01D_A_
Width: 609
Flags: HW
LayerCount: 2
Fore
SplineSet
242 683 m 2
 174 753 l 2
 168.666666667 759.666666667 166 766.666666667 166 774 c 256
 166 781.333333333 169.166666667 788.166666667 175.5 794.5 c 128
 181.833333333 800.833333333 189 804 197 804 c 0
 204.333333333 804 210.666666667 801.666666667 216 797 c 2
 294 731 l 2
 298 728.333333333 300.666666667 727 302 727 c 0
 304.666666667 727 307.333333333 728.333333333 310 731 c 2
 388 797 l 2
 393.333333333 801.666666667 399.666666667 804 407 804 c 0
 415 804 422.166666667 800.833333333 428.5 794.5 c 128
 434.833333333 788.166666667 438 781.333333333 438 774 c 256
 438 766.666666667 435.333333333 759.666666667 430 753 c 2
 362 683 l 2
 349.333333333 669.666666667 335.666666667 663 321 663 c 2
 283 663 l 2
 268.333333333 663 254.666666667 669.666666667 242 683 c 2
181.5 554.5 m 128
 171.166666667 564.833333333 166 577 166 591 c 256
 166 605 171.166666667 617.166666667 181.5 627.5 c 128
 191.833333333 637.833333333 204 643 218 643 c 256
 232 643 244.166666667 637.833333333 254.5 627.5 c 128
 264.833333333 617.166666667 270 605 270 591 c 256
 270 577 264.833333333 564.833333333 254.5 554.5 c 128
 244.166666667 544.166666667 232 539 218 539 c 256
 204 539 191.833333333 544.166666667 181.5 554.5 c 128
349.5 554.5 m 128
 339.166666667 564.833333333 334 577 334 591 c 256
 334 605 339.166666667 617.166666667 349.5 627.5 c 128
 359.833333333 637.833333333 372 643 386 643 c 256
 400 643 412.166666667 637.833333333 422.5 627.5 c 128
 432.833333333 617.166666667 438 605 438 591 c 256
 438 577 432.833333333 564.833333333 422.5 554.5 c 128
 412.166666667 544.166666667 400 539 386 539 c 256
 372 539 359.833333333 544.166666667 349.5 554.5 c 128
157 15 m 0
 130.333333333 32.3333333333 109.666666667 56 95 86 c 128
 80.3333333333 116 73 149.333333333 73 186 c 2
 73 470 l 2
 73 482.666666667 77.6666666667 493.5 87 502.5 c 128
 96.3333333333 511.5 107.333333333 516 120 516 c 256
 132.666666667 516 143.5 511.5 152.5 502.5 c 128
 161.5 493.5 166 482.666666667 166 470 c 2
 166 196 l 2
 166 115.333333333 202.333333333 75 275 75 c 0
 307 75 335.833333333 83 361.5 99 c 128
 387.166666667 115 412.666666667 138.666666667 438 170 c 1
 438 470 l 2
 438 482.666666667 442.666666667 493.5 452 502.5 c 128
 461.333333333 511.5 472.333333333 516 485 516 c 256
 497.666666667 516 508.5 511.5 517.5 502.5 c 128
 526.5 493.5 531 482.666666667 531 470 c 2
 531 41 l 2
 531 28.3333333333 526.5 17.3333333333 517.5 8 c 128
 508.5 -1.33333333333 497.666666667 -6 485 -6 c 256
 472.333333333 -6 461.333333333 -1.33333333333 452 8 c 128
 442.666666667 17.3333333333 438 28.3333333333 438 41 c 2
 438 79 l 1
 410.666666667 49.6666666667 382.333333333 27.3333333333 353 12 c 128
 323.666666667 -3.33333333333 290.333333333 -11 253 -11 c 0
 217 -11 185 -2.33333333333 157 15 c 0
EndSplineSet
Validated: 1
EndChar
StartChar: uni01DC
Encoding: 10296 476 2960
Width: 609
Flags: HW
LayerCount: 2
Fore
SplineSet
330 681 m 0
 330 664.575098502 318.760260116 653 302 653 c 0
 292.666666667 653 285 656.666666667 279 664 c 2
 210 746 l 1
 203.333333333 756 200 764.666666667 200 772 c 0
 200 795.431238292 214.911320296 810 238 810 c 0
 254 810 265.333333333 803.333333333 272 790 c 2
 323 701 l 2
 327.666666667 693 330 686.333333333 330 681 c 0
218 539 m 256
 190.260523325 539 166 563.261440218 166 591 c 256
 166 618.739476675 190.261440218 643 218 643 c 256
 245.739476675 643 270 618.738559782 270 591 c 256
 270 563.260523325 245.738559782 539 218 539 c 256
386 539 m 256
 358.260523325 539 334 563.261440218 334 591 c 256
 334 618.739476675 358.261440218 643 386 643 c 256
 413.739476675 643 438 618.738559782 438 591 c 256
 438 563.260523325 413.738559782 539 386 539 c 256
485 -6 m 256
 459.901137659 -6 438 15.9019628621 438 41 c 2
 438 79 l 1
 410.666666667 49.6666666667 382.333333333 27.3333333333 353 12 c 128
 323.666666667 -3.33333333333 290.333333333 -11 253 -11 c 0
 174.902247962 -11 121.999613287 30.7735182787 95 86 c 128
 80.3333333333 116 73 149.333333333 73 186 c 2
 73 470 l 2
 73 495.124914673 94.9019628618 516 120 516 c 256
 145.124914673 516 166 495.12418116 166 470 c 2
 166 196 l 2
 166 115.333333333 202.333333333 75 275 75 c 0
 307 75 335.833333333 83 361.5 99 c 128
 387.166666667 115 412.666666667 138.666666667 438 170 c 1
 438 470 l 2
 438 495.124914673 459.901962862 516 485 516 c 256
 510.124914673 516 531 495.12418116 531 470 c 2
 531 41 l 2
 531 15.9011376597 510.12418116 -6 485 -6 c 256
EndSplineSet
EndChar
StartChar: caron
Encoding: 8486 711 2462
GlifName: caron
Width: 582
Flags: HW
LayerCount: 2
Fore
SplineSet
68 738 m 0
 68 748 71.1666666667 757 77.5 765 c 128
 83.8333333333 773 91 778.333333333 99 781 c 0
 105 783 111 784 117 784 c 0
 133.666666667 784 147.666666667 774 159 754 c 2
 282 556 l 2
 285.333333333 551.333333333 288.333333333 549 291 549 c 0
 295 549 298 551.333333333 300 556 c 2
 426 760 l 2
 434.666666667 775.333333333 447.666666667 783 465 783 c 0
 475 783 484.666666667 780.333333333 494 775 c 0
 508.666666667 765 516 753 516 739 c 0
 516 730.333333333 513 721.333333333 507 712 c 2
 325 434 l 2
 315 419.333333333 303.666666667 412 291 412 c 256
 278.333333333 412 267 419.333333333 257 434 c 2
 77 711 l 2
 71 720.333333333 68 729.333333333 68 738 c 0
EndSplineSet
Validated: 1
EndChar
StartChar: uni02C9
Encoding: 8485 713 2461
GlifName: uni02C_9
Width: 582
Flags: HW
LayerCount: 2
Fore
SplineSet
57.5 569.5 m 128
 49.8333333333 577.833333333 46 588 46 600 c 256
 46 612 49.8333333333 622.166666667 57.5 630.5 c 128
 65.1666666667 638.833333333 74.6666666667 643 86 643 c 2
 496 643 l 2
 507.333333333 643 516.833333333 638.833333333 524.5 630.5 c 128
 532.166666667 622.166666667 536 612 536 600 c 256
 536 588 532.166666667 577.833333333 524.5 569.5 c 128
 516.833333333 561.166666667 507.333333333 557 496 557 c 2
 86 557 l 2
 74.6666666667 557 65.1666666667 561.166666667 57.5 569.5 c 128
EndSplineSet
Validated: 1
EndChar
StartChar: Alpha
Encoding: 9761 913 2823
Width: 1024
Flags: HW
LayerCount: 2
Fore
SplineSet
159 19 m 0
 159 27 161.333333333 36.6666666667 166 48 c 2
 435 678 l 2
 452.333333333 718.666666667 478 739 512 739 c 0
 544.666666667 739 569.666666667 718.666666667 587 678 c 2
 856 48 l 2
 861.333333333 36 864 26.3333333333 864 19 c 0
 864 -8.33333333333 848 -22 816 -22 c 0
 792 -22 773.333333333 -6.66666666667 760 24 c 2
 690 193 l 1
 332 193 l 1
 263 24 l 2
 251 -6.66666666667 232 -22 206 -22 c 0
 174.666666667 -22 159 -8.33333333333 159 19 c 0
524 595 m 2
 521.333333333 603 517 607 511 607 c 0
 506.333333333 607 502 603 498 595 c 2
 369 282 l 1
 653 282 l 1
 524 595 l 2
EndSplineSet
Validated: 1
EndChar
StartChar: Beta
Encoding: 9762 914 2824
Width: 1024
Flags: HW
LayerCount: 2
Fore
SplineSet
268 21 m 0
 253.333333333 39 246 58.6666666667 246 80 c 2
 246 637 l 2
 246 663 254.666666667 684 272 700 c 0
 289.333333333 716.666666667 310 725 334 725 c 2
 560 725 l 2
 636.666666667 725 694 708 732 674 c 256
 770 640 789 593 789 533 c 0
 789 452.333333333 752 397 678 367 c 1
 764 339 807 279.666666667 807 189 c 0
 807 61 727.666666667 -4.66666666667 569 -8 c 1
 334 -8 l 2
 309.333333333 -8 287.333333333 1.66666666667 268 21 c 0
654 442 m 0
 676 464.666666667 687 493.666666667 687 529 c 0
 687 601.666666667 643.333333333 638 556 638 c 2
 390 638 l 2
 358 638 342 622 342 590 c 2
 342 406 l 1
 555 406 l 2
 599 406 632 418 654 442 c 0
704 200 m 0
 704 277.333333333 652.333333333 317 549 319 c 2
 342 319 l 1
 342 127 l 2
 341.333333333 95 357.333333333 79 390 79 c 2
 552 79 l 2
 653.333333333 79 704 119.333333333 704 200 c 0
EndSplineSet
Validated: 33
EndChar
StartChar: Gamma
Encoding: 9763 915 2829
GlifName: G_amma
Width: 1024
Flags: HW
LayerCount: 2
Fore
SplineSet
267 37 m 2
 267 640 l 2
 267 664.666666667 275.666666667 685 293 701 c 256
 310.333333333 717 331 725 355 725 c 2
 734 725 l 2
 770.666666667 725 789 710 789 680 c 0
 789 646.666666667 770.666666667 630 734 630 c 2
 422 630 l 2
 388.666666667 630 372 613.333333333 372 580 c 2
 372 37 l 2
 372 -3 354.666666667 -23 320 -23 c 0
 284.666666667 -23 267 -3 267 37 c 2
EndSplineSet
Validated: 1
EndChar
StartChar: uni0394
Encoding: 9764 916 2826
Width: 742
Flags: HW
LayerCount: 2
Fore
SplineSet
132 -1 m 2
 111.333333333 -1 93.8333333333 5.83333333333 79.5 19.5 c 128
 65.1666666667 33.1666666667 57.6666666667 50 57 70 c 0
 56.3333333333 80 59 92 65 106 c 2
 300 646 l 2
 315.333333333 681.333333333 339 699 371 699 c 256
 403 699 426.666666667 681.333333333 442 646 c 2
 677 106 l 2
 683 92.6666666667 685.666666667 80.6666666667 685 70 c 0
 684.333333333 50 676.833333333 33.1666666667 662.5 19.5 c 128
 648.166666667 5.83333333333 630.666666667 -1 610 -1 c 2
 132 -1 l 2
573 85 m 2
 577 85 579.833333333 86.5 581.5 89.5 c 128
 583.166666667 92.5 583.333333333 95.6666666667 582 99 c 2
 379 565 l 2
 377 569.666666667 374.333333333 572 371 572 c 0
 367.666666667 571.333333333 365 569 363 565 c 2
 160 99 l 2
 159.333333333 97.6666666667 159 96 159 94 c 0
 159 91.3333333333 160 89.1666666667 162 87.5 c 128
 164 85.8333333333 166.333333333 85 169 85 c 2
 573 85 l 2
EndSplineSet
EndChar
StartChar: Epsilon
Encoding: 9765 917 2827
Width: 1024
Flags: HW
LayerCount: 2
Fore
SplineSet
290 19 m 0
 272 37 263 57.3333333333 263 80 c 2
 263 636 l 2
 263 662.666666667 272.666666667 685 292 703 c 0
 310.666666667 717.666666667 331.333333333 725 354 725 c 2
 722 725 l 2
 758 725 776 709.666666667 776 679 c 256
 776 648.333333333 758 633 722 633 c 2
 406 633 l 2
 376 633 361.333333333 618.666666667 362 590 c 2
 362 413 l 1
 690 413 l 2
 725.333333333 413 743 397.333333333 743 366 c 0
 743 336 725.333333333 321 690 321 c 2
 362 321 l 1
 362 127 l 2
 362.666666667 99.6666666667 377.333333333 85.3333333333 406 84 c 2
 729 84 l 2
 765.666666667 84 784 68.6666666667 784 38 c 256
 784 7.33333333333 765.666666667 -8 729 -8 c 2
 354 -8 l 2
 327.333333333 -8 306 1 290 19 c 0
EndSplineSet
Validated: 33
EndChar
StartChar: Zeta
Encoding: 9766 918 2828
Width: 638
Flags: HW
LayerCount: 2
Fore
SplineSet
105 -1 m 2
 89 -1 75.1666666667 4.83333333333 63.5 16.5 c 128
 51.8333333333 28.1666666667 46 42 46 58 c 0
 46 72.6666666667 50 85.3333333333 58 96 c 2
 463 596 l 2
 465.666666667 598.666666667 467 601 467 603 c 0
 467 607.666666667 463.666666667 610 457 610 c 2
 92 610 l 2
 80 610 69.6666666667 614.333333333 61 623 c 128
 52.3333333333 631.666666667 48 642 48 654 c 256
 48 666 52.3333333333 676.5 61 685.5 c 128
 69.6666666667 694.5 80 699 92 699 c 2
 526 699 l 2
 544 699 558.833333333 693 570.5 681 c 128
 582.166666667 669 588 654 588 636 c 0
 588 622.666666667 582.666666667 609 572 595 c 2
 172 100 l 2
 169.333333333 97.3333333333 168 95 168 93 c 0
 168 88.3333333333 171.333333333 86 178 86 c 2
 550 86 l 2
 562 86 572.333333333 81.6666666667 581 73 c 128
 589.666666667 64.3333333333 594 54 594 42 c 256
 594 30 589.666666667 19.8333333333 581 11.5 c 128
 572.333333333 3.16666666667 562 -1 550 -1 c 2
 105 -1 l 2
EndSplineSet
EndChar
StartChar: Eta
Encoding: 9767 919 2829
Width: 755
Flags: HW
LayerCount: 2
Fore
SplineSet
142 -6 m 256
 129.333333333 -6 118.5 -1.5 109.5 7.5 c 128
 100.5 16.5 96 27.3333333333 96 40 c 2
 96 657 l 2
 96 669.666666667 100.5 680.666666667 109.5 690 c 128
 118.5 699.333333333 129.333333333 704 142 704 c 256
 154.666666667 704 165.666666667 699.333333333 175 690 c 128
 184.333333333 680.666666667 189 669.666666667 189 657 c 2
 189 392 l 1
 566 392 l 1
 566 657 l 2
 566 669.666666667 570.5 680.666666667 579.5 690 c 128
 588.5 699.333333333 599.333333333 704 612 704 c 256
 624.666666667 704 635.666666667 699.333333333 645 690 c 128
 654.333333333 680.666666667 659 669.666666667 659 657 c 2
 659 40 l 2
 659 27.3333333333 654.333333333 16.5 645 7.5 c 128
 635.666666667 -1.5 624.666666667 -6 612 -6 c 256
 599.333333333 -6 588.5 -1.5 579.5 7.5 c 128
 570.5 16.5 566 27.3333333333 566 40 c 2
 566 305 l 1
 189 305 l 1
 189 40 l 2
 189 27.3333333333 184.333333333 16.5 175 7.5 c 128
 165.666666667 -1.5 154.666666667 -6 142 -6 c 256
EndSplineSet
EndChar
StartChar: Theta
Encoding: 9768 920 2830
Width: 812
Flags: HW
LayerCount: 2
Fore
SplineSet
406 -11 m 0
 336 -11 274.333333333 4.33333333333 221 35 c 0
 169 65.6666666667 128.5 108.166666667 99.5 162.5 c 128
 70.5 216.833333333 55.3333333333 279 54 349 c 0
 55.3333333333 419 70.3333333333 481 99 535 c 0
 127.666666667 589.666666667 168.666666667 632.333333333 222 663 c 128
 275.333333333 693.666666667 336.666666667 709 406 709 c 0
 476 709 537.666666667 693.666666667 591 663 c 0
 643 632.333333333 683.5 589.666666667 712.5 535 c 128
 741.5 480.333333333 756.666666667 418.333333333 758 349 c 0
 756.666666667 279.666666667 741.666666667 218 713 164 c 0
 683.666666667 108.666666667 642.5 65.6666666667 589.5 35 c 128
 536.5 4.33333333333 475.333333333 -11 406 -11 c 0
406 76 m 0
 460 76 506 88 544 112 c 0
 582.666666667 135.333333333 612.5 167.5 633.5 208.5 c 128
 654.5 249.5 665 296.333333333 665 349 c 0
 665 401 654.666666667 447.666666667 634 489 c 0
 612.666666667 531 582.333333333 563.666666667 543 587 c 128
 503.666666667 610.333333333 458 622 406 622 c 0
 352 622 306 610 268 586 c 0
 229.333333333 562.666666667 199.5 530.5 178.5 489.5 c 128
 157.5 448.5 147 401.666666667 147 349 c 0
 147 297 157.333333333 250.333333333 178 209 c 0
 199.333333333 166.333333333 229.5 133.5 268.5 110.5 c 128
 307.5 87.5 353.333333333 76 406 76 c 0
261 306 m 2
 550 306 l 2
 562 306 572.333333333 310.166666667 581 318.5 c 128
 589.666666667 326.833333333 594 337 594 349 c 256
 594 361 589.666666667 371.333333333 581 380 c 128
 572.333333333 388.666666667 562 393 550 393 c 2
 261 393 l 2
 249 393 238.666666667 388.666666667 230 380 c 128
 221.333333333 371.333333333 217 361 217 349 c 256
 217 337 221.333333333 326.833333333 230 318.5 c 128
 238.666666667 310.166666667 249 306 261 306 c 2
EndSplineSet
EndChar
StartChar: Iota
Encoding: 9769 921 2835
GlifName: I_ota
Width: 1024
Flags: HW
LayerCount: 2
Fore
SplineSet
458 40 m 2
 458 677 l 2
 458 718.333333333 476 739 512 739 c 0
 547.333333333 739 565 718.333333333 565 677 c 2
 565 40 l 2
 565 -1.33333333333 547.333333333 -22 512 -22 c 0
 476 -22 458 -1.33333333333 458 40 c 2
EndSplineSet
Validated: 1
EndChar
StartChar: Kappa
Encoding: 9770 922 2836
GlifName: K_appa
Width: 1024
Flags: HW
LayerCount: 2
Fore
SplineSet
252 37 m 2
 252 681 l 2
 252 719.666666667 268.666666667 739 302 739 c 0
 336 739 353 719.666666667 353 681 c 2
 353 409 l 1
 404.333333333 426.333333333 460.666666667 460.333333333 522 511 c 0
 584.666666667 562.333333333 630.333333333 620.333333333 659 685 c 0
 676.333333333 721 697 739 721 739 c 0
 755.666666667 739 773 724.666666667 773 696 c 0
 773 662.666666667 742.333333333 612 681 544 c 0
 619.666666667 474.666666667 547.666666667 417 465 371 c 1
 552.333333333 339 631.333333333 282.333333333 702 201 c 0
 772 120.333333333 807 62.3333333333 807 27 c 0
 807 -5.66666666667 788.666666667 -22 752 -22 c 0
 727.333333333 -22 705.333333333 -1.33333333333 686 40 c 0
 654 114 606.666666667 177.333333333 544 230 c 0
 481.333333333 281.333333333 417.666666667 313.666666667 353 327 c 1
 353 37 l 2
 353 -2.33333333333 336 -22 302 -22 c 0
 268.666666667 -22 252 -2.33333333333 252 37 c 2
EndSplineSet
Validated: 1
EndChar
StartChar: Lambda
Encoding: 9771 923 2837
GlifName: L_ambda
Width: 1024
Flags: HW
LayerCount: 2
Fore
SplineSet
161 21 m 0
 161 27 163.666666667 37 169 51 c 2
 443 693 l 2
 455 723.666666667 478 739 512 739 c 256
 546 739 569 723.666666667 581 693 c 2
 855 51 l 2
 860.333333333 37 863 27 863 21 c 0
 863 -7.66666666667 846.333333333 -22 813 -22 c 0
 790.333333333 -22 773 -8.33333333333 761 19 c 2
 525 572 l 2
 522.333333333 580.666666667 518 585 512 585 c 0
 507.333333333 585 503 580.666666667 499 572 c 2
 264 21 l 2
 252.666666667 -7.66666666667 235 -22 211 -22 c 0
 177.666666667 -22 161 -7.66666666667 161 21 c 0
EndSplineSet
Validated: 1
EndChar
StartChar: Mu
Encoding: 9772 924 2834
Width: 1024
Flags: HW
LayerCount: 2
Fore
SplineSet
150 35 m 2
 150 647 l 2
 150 708.333333333 175.333333333 739 226 739 c 0
 264 739 293.666666667 717.666666667 315 675 c 2
 498 299 l 2
 502 291.666666667 506.666666667 288 512 288 c 0
 518 288 522.666666667 291.666666667 526 299 c 2
 708 675 l 2
 728 717.666666667 757.333333333 739 796 739 c 0
 846.666666667 739 872 708.333333333 872 647 c 2
 872 35 l 2
 872 -3 855.666666667 -22 823 -22 c 256
 790.333333333 -22 774 -3 774 35 c 2
 774 558 l 2
 774 563.333333333 773 567.5 771 570.5 c 128
 769 573.5 766.666666667 575 764 575 c 0
 758.666666667 575 754 571 750 563 c 2
 570 192 l 2
 556 163.333333333 536.666666667 149 512 149 c 0
 486.666666667 149 466.666666667 163.333333333 452 192 c 2
 273 564 l 2
 269 572 264.333333333 576 259 576 c 0
 256.333333333 576 254 574.5 252 571.5 c 128
 250 568.5 249 564.333333333 249 559 c 2
 249 35 l 2
 249 -3 232.333333333 -22 199 -22 c 0
 166.333333333 -22 150 -3 150 35 c 2
EndSplineSet
Validated: 1
EndChar
StartChar: Nu
Encoding: 9773 925 2835
Width: 1024
Flags: HW
LayerCount: 2
Fore
SplineSet
214 37 m 2
 214 666 l 2
 214 714.666666667 234.333333333 739 275 739 c 0
 299 739 318 728.333333333 332 707 c 2
 685 187 l 2
 689.666666667 180.333333333 694.333333333 177 699 177 c 0
 705.666666667 177 709 182.666666667 709 194 c 2
 709 681 l 2
 709 719.666666667 725.666666667 739 759 739 c 256
 792.333333333 739 809 719.666666667 809 681 c 2
 809 51 l 2
 809 2.33333333333 788.666666667 -22 748 -22 c 0
 725.333333333 -22 706.333333333 -11.3333333333 691 10 c 2
 339 530 l 2
 335 536.666666667 330.666666667 540 326 540 c 0
 322.666666667 540 320 538.333333333 318 535 c 128
 316 531.666666667 315 527.333333333 315 522 c 2
 315 37 l 2
 315 -2.33333333333 298 -22 264 -22 c 0
 230.666666667 -22 214 -2.33333333333 214 37 c 2
EndSplineSet
Validated: 1
EndChar
StartChar: Xi
Encoding: 9774 926 2836
Width: 650
Flags: HW
LayerCount: 2
Fore
SplineSet
51 655 m 256
 51 643 55.3333333333 633 64 625 c 0
 72.6666666667 616.333333333 83 612 95 612 c 2
 555 612 l 2
 567 612 577.333333333 616.333333333 586 625 c 0
 594.666666667 633 599 643 599 655 c 256
 599 667 594.666666667 677.333333333 586 686 c 128
 577.333333333 694.666666667 567 699 555 699 c 2
 95 699 l 2
 83 699 72.6666666667 694.666666667 64 686 c 128
 55.3333333333 677.333333333 51 667 51 655 c 256
42 42 m 256
 42 30 46.3333333333 20 55 12 c 0
 63.6666666667 3.33333333333 74 -1 86 -1 c 2
 564 -1 l 2
 576 -1 586.333333333 3.33333333333 595 12 c 0
 603.666666667 20 608 30 608 42 c 256
 608 54 603.666666667 64.3333333333 595 73 c 128
 586.333333333 81.6666666667 576 86 564 86 c 2
 86 86 l 2
 74 86 63.6666666667 81.6666666667 55 73 c 128
 46.3333333333 64.3333333333 42 54 42 42 c 256
96 321 m 0
 104.666666667 312.333333333 115 308 127 308 c 2
 523 308 l 2
 535 308 545.333333333 312.333333333 554 321 c 0
 562.666666667 329 567 339 567 351 c 256
 567 363 562.666666667 373.333333333 554 382 c 128
 545.333333333 390.666666667 535 395 523 395 c 2
 127 395 l 2
 115 395 104.666666667 390.666666667 96 382 c 128
 87.3333333333 373.333333333 83 363 83 351 c 256
 83 339 87.3333333333 329 96 321 c 0
EndSplineSet
EndChar
StartChar: Omicron
Encoding: 9775 927 2841
GlifName: O_micron
Width: 1024
Flags: HW
LayerCount: 2
Fore
SplineSet
264 83 m 0
 201.333333333 152.333333333 170 245.333333333 170 362 c 0
 170 474.666666667 201.666666667 565.666666667 265 635 c 256
 328.333333333 704.333333333 412.666666667 739 518 739 c 0
 616 739 696.666666667 704 760 634 c 0
 822.666666667 564.666666667 854 472.333333333 854 357 c 0
 854 238.333333333 822 145.333333333 758 78 c 0
 694 11.3333333333 612.333333333 -22 513 -22 c 0
 410.333333333 -22 327.333333333 13 264 83 c 0
686 148 m 0
 726.666666667 199.333333333 747 270.666666667 747 362 c 0
 747 452.666666667 725.666666667 522.666666667 683 572 c 0
 640.333333333 622 581.666666667 647 507 647 c 0
 437.666666667 647 382 621.333333333 340 570 c 0
 297.333333333 519.333333333 276 449.333333333 276 360 c 0
 276 266 297.666666667 194.333333333 341 145 c 0
 385 95.6666666667 442.333333333 71 513 71 c 0
 587 71 644.666666667 96.6666666667 686 148 c 0
EndSplineSet
Validated: 1
EndChar
StartChar: Pi
Encoding: 9776 928 2838
Width: 753
Flags: HW
LayerCount: 2
Fore
SplineSet
142 699 m 2
 611 699 l 2
 623.666666667 699 634.5 694.333333333 643.5 685 c 128
 652.5 675.666666667 657 664.666666667 657 652 c 2
 657 40 l 2
 657 27.3333333333 652.5 16.5 643.5 7.5 c 128
 634.5 -1.5 623.666666667 -6 611 -6 c 256
 598.333333333 -6 587.333333333 -1.5 578 7.5 c 128
 568.666666667 16.5 564 27.3333333333 564 40 c 2
 564 599 l 2
 564 607 560 611 552 611 c 2
 201 611 l 2
 193 611 189 607 189 599 c 2
 189 40 l 2
 189 27.3333333333 184.333333333 16.5 175 7.5 c 128
 165.666666667 -1.5 154.666666667 -6 142 -6 c 256
 129.333333333 -6 118.5 -1.5 109.5 7.5 c 128
 100.5 16.5 96 27.3333333333 96 40 c 2
 96 652 l 2
 96 664.666666667 100.5 675.666666667 109.5 685 c 128
 118.5 694.333333333 129.333333333 699 142 699 c 2
EndSplineSet
EndChar
StartChar: Rho
Encoding: 9777 929 2843
GlifName: R_ho
Width: 1024
Flags: HW
LayerCount: 2
Fore
SplineSet
261 37 m 2
 261 635 l 2
 261 663 271 685.333333333 291 702 c 0
 308.333333333 717.333333333 328.666666667 725 352 725 c 2
 537 725 l 2
 713 725 801 653.333333333 801 510 c 0
 801 368.666666667 717 297 549 295 c 2
 360 295 l 1
 360 37 l 2
 360 -3 343.666666667 -23 311 -23 c 0
 277.666666667 -23 261 -3 261 37 c 2
699 510 m 256
 699 590.666666667 642.333333333 632 529 634 c 2
 404 634 l 2
 374.666666667 634 360 619.333333333 360 590 c 2
 360 386 l 1
 529 386 l 2
 642.333333333 388 699 429.333333333 699 510 c 256
EndSplineSet
Validated: 1
EndChar
StartChar: Sigma
Encoding: 9778 931 2840
Width: 638
Flags: HW
LayerCount: 2
Fore
SplineSet
132 -1 m 2
 114 -1 98.8333333333 5.33333333333 86.5 18 c 128
 74.1666666667 30.6666666667 68 46 68 64 c 0
 68 71.3333333333 69.3333333333 79.1666666667 72 87.5 c 128
 74.6666666667 95.8333333333 79.6666666667 103.666666667 87 111 c 2
 301 345 l 2
 303.666666667 347.666666667 305 350.333333333 305 353 c 256
 305 355.666666667 303.666666667 358.333333333 301 361 c 2
 91 588 l 2
 83.6666666667 595.333333333 78.6666666667 603.166666667 76 611.5 c 128
 73.3333333333 619.833333333 72 627.666666667 72 635 c 0
 72 653 78.1666666667 668.333333333 90.5 681 c 128
 102.833333333 693.666666667 118 700 136 700 c 2
 544 700 l 2
 556 700 566.5 695.5 575.5 686.5 c 128
 584.5 677.5 589 667 589 655 c 256
 589 643 584.5 632.666666667 575.5 624 c 128
 566.5 615.333333333 556 611 544 611 c 2
 207 611 l 2
 200.333333333 611 197 609 197 605 c 0
 197 602.333333333 198.333333333 599.666666667 201 597 c 2
 384 403 l 2
 396.666666667 389.666666667 403 373 403 353 c 0
 403 332.333333333 396.666666667 315.666666667 384 303 c 2
 197 102 l 2
 195 99.3333333333 193.666666667 96.6666666667 193 94 c 0
 194.333333333 90 197.666666667 88 203 88 c 2
 544 88 l 2
 556 88 566.5 83.6666666667 575.5 75 c 128
 584.5 66.3333333333 589 56 589 44 c 256
 589 32 584.5 21.5 575.5 12.5 c 128
 566.5 3.5 556 -1 544 -1 c 2
 132 -1 l 2
EndSplineSet
EndChar
StartChar: Tau
Encoding: 9779 932 2841
Width: 609
Flags: HW
LayerCount: 2
Fore
SplineSet
304 -6 m 256
 291.333333333 -6 280.5 -1.5 271.5 7.5 c 128
 262.5 16.5 258 27.3333333333 258 40 c 2
 258 612 l 1
 55 612 l 2
 43 612 32.8333333333 616.166666667 24.5 624.5 c 128
 16.1666666667 632.833333333 12 643 12 655 c 256
 12 667 16.1666666667 677.333333333 24.5 686 c 128
 32.8333333333 694.666666667 43 699 55 699 c 2
 553 699 l 2
 565 699 575.333333333 694.666666667 584 686 c 128
 592.666666667 677.333333333 597 667 597 655 c 256
 597 643 592.666666667 632.833333333 584 624.5 c 128
 575.333333333 616.166666667 565 612 553 612 c 2
 351 612 l 1
 351 40 l 2
 351 27.3333333333 346.333333333 16.5 337 7.5 c 128
 327.666666667 -1.5 316.666666667 -6 304 -6 c 256
EndSplineSet
EndChar
StartChar: Upsilon
Encoding: 9780 933 2846
GlifName: U_psilon
Width: 1024
Flags: HW
LayerCount: 2
Fore
SplineSet
461 38 m 2
 461 285 l 1
 182 660 l 2
 172.666666667 673.333333333 168 684.666666667 168 694 c 0
 168 724 184.333333333 739 217 739 c 0
 234.333333333 739 249 731 261 715 c 2
 512 379 l 1
 759 711 l 2
 773.666666667 729.666666667 789.666666667 739 807 739 c 0
 839 739 855 724 855 694 c 0
 855 684.666666667 850.333333333 673.333333333 841 660 c 2
 562 285 l 1
 562 38 l 2
 562 -2 545.333333333 -22 512 -22 c 0
 478 -22 461 -2 461 38 c 2
EndSplineSet
Validated: 1
EndChar
StartChar: Phi
Encoding: 9781 934 2843
Width: 860
Flags: HW
LayerCount: 2
Fore
SplineSet
454 102 m 2
 493.333333333 102 529 108.166666667 561 120.5 c 128
 593 132.833333333 620.333333333 150 643 172 c 128
 665.666666667 194 683 220.166666667 695 250.5 c 128
 707 280.833333333 713 314 713 350 c 256
 713 386 707 419.166666667 695 449.5 c 128
 683 479.833333333 665.666666667 505.833333333 643 527.5 c 128
 620.333333333 549.166666667 593 566.166666667 561 578.5 c 128
 529 590.833333333 493.333333333 597 454 597 c 2
 406 597 l 2
 366.666666667 597 331 590.833333333 299 578.5 c 128
 267 566.166666667 239.833333333 549.166666667 217.5 527.5 c 128
 195.166666667 505.833333333 177.833333333 479.833333333 165.5 449.5 c 128
 153.166666667 419.166666667 147 386 147 350 c 256
 147 314 153.166666667 280.833333333 165.5 250.5 c 128
 177.833333333 220.166666667 195.166666667 194 217.5 172 c 128
 239.833333333 150 267 132.833333333 299 120.5 c 128
 331 108.166666667 366.666666667 102 406 102 c 2
 454 102 l 2
454 19 m 2
 406 19 l 2
 352 19 303.166666667 27.1666666667 259.5 43.5 c 128
 215.833333333 59.8333333333 178.833333333 82.6666666667 148.5 112 c 128
 118.166666667 141.333333333 94.8333333333 176.333333333 78.5 217 c 128
 62.1666666667 257.666666667 54 302 54 350 c 256
 54 398 62.1666666667 442.166666667 78.5 482.5 c 128
 94.8333333333 522.833333333 118.166666667 557.666666667 148.5 587 c 128
 178.833333333 616.333333333 215.833333333 639.166666667 259.5 655.5 c 128
 303.166666667 671.833333333 352 680 406 680 c 2
 454 680 l 2
 508 680 556.833333333 671.833333333 600.5 655.5 c 128
 644.166666667 639.166666667 681.166666667 616.333333333 711.5 587 c 128
 741.833333333 557.666666667 765.166666667 522.833333333 781.5 482.5 c 128
 797.833333333 442.166666667 806 398 806 350 c 256
 806 302 797.833333333 257.666666667 781.5 217 c 128
 765.166666667 176.333333333 741.833333333 141.333333333 711.5 112 c 128
 681.166666667 82.6666666667 644.166666667 59.8333333333 600.5 43.5 c 128
 556.833333333 27.1666666667 508 19 454 19 c 2
384 704 m 2
 384 717.333333333 388.333333333 728.5 397 737.5 c 128
 405.666666667 746.5 416.666666667 751 430 751 c 256
 443.333333333 751 454.5 746.5 463.5 737.5 c 128
 472.5 728.5 477 717.333333333 477 704 c 2
 477 -5 l 2
 477 -18.3333333333 472.5 -29.3333333333 463.5 -38 c 128
 454.5 -46.6666666667 443.333333333 -51 430 -51 c 256
 416.666666667 -51 405.666666667 -46.6666666667 397 -38 c 128
 388.333333333 -29.3333333333 384 -18.3333333333 384 -5 c 2
 384 704 l 2
EndSplineSet
EndChar
StartChar: Chi
Encoding: 9782 935 2844
Width: 1024
Flags: HW
LayerCount: 2
Fore
SplineSet
163 21 m 0
 163 31.6666666667 167.666666667 42.6666666667 177 54 c 2
 450 372 l 1
 201 663 l 2
 192.333333333 675 188 686.333333333 188 697 c 0
 188 725 203.666666667 739 235 739 c 0
 253 739 269.333333333 730 284 712 c 2
 513 446 l 1
 741 712 l 2
 755 730 771.333333333 739 790 739 c 0
 822 739 838 725 838 697 c 0
 838 686.333333333 833.333333333 675.333333333 824 664 c 2
 575 372 l 1
 847 54 l 2
 856.333333333 42.6666666667 861 31.6666666667 861 21 c 0
 861 -7.66666666667 845 -22 813 -22 c 0
 794.333333333 -22 777.666666667 -12.6666666667 763 6 c 2
 512 299 l 1
 261 6 l 2
 246.333333333 -12.6666666667 229.666666667 -22 211 -22 c 0
 179 -22 163 -7.66666666667 163 21 c 0
EndSplineSet
Validated: 1
EndChar
StartChar: Psi
Encoding: 9783 936 2845
Width: 897
Flags: HW
LayerCount: 2
Fore
SplineSet
120 704 m 256
 132.666666667 704 143.5 699.5 152.5 690.5 c 128
 161.5 681.5 166 670.666666667 166 658 c 2
 166 398 l 2
 166 366 172.666666667 338 186 314 c 128
 199.333333333 290 217 269.833333333 239 253.5 c 128
 261 237.166666667 286.333333333 225 315 217 c 128
 343.666666667 209 373.333333333 205 404 205 c 1
 403 657 l 2
 403 670.333333333 407.333333333 681.5 416 690.5 c 128
 424.666666667 699.5 435.666666667 704 449 704 c 256
 462.333333333 704 473.5 699.5 482.5 690.5 c 128
 491.5 681.5 496 670.333333333 496 657 c 2
 497 205 l 1
 527 205 556.166666667 209 584.5 217 c 128
 612.833333333 225 637.833333333 237.166666667 659.5 253.5 c 128
 681.166666667 269.833333333 698.5 290 711.5 314 c 128
 724.5 338 731 366 731 398 c 2
 731 658 l 2
 731 670.666666667 735.5 681.5 744.5 690.5 c 128
 753.5 699.5 764.333333333 704 777 704 c 256
 789.666666667 704 800.666666667 699.5 810 690.5 c 128
 819.333333333 681.5 824 670.666666667 824 658 c 2
 824 398 l 2
 824 354 815.5 314.666666667 798.5 280 c 128
 781.5 245.333333333 758.166666667 216 728.5 192 c 128
 698.833333333 168 664.166666667 149.666666667 624.5 137 c 128
 584.833333333 124.333333333 542 118 496 118 c 1
 496 42 l 2
 496 28.6666666667 491.5 17.6666666667 482.5 9 c 128
 473.5 0.333333333333 462.333333333 -4 449 -4 c 256
 435.666666667 -4 424.666666667 0.333333333333 416 9 c 128
 407.333333333 17.6666666667 403 28.6666666667 403 42 c 2
 403 118 l 1
 357 118 314 124.333333333 274 137 c 128
 234 149.666666667 199 168 169 192 c 128
 139 216 115.5 245.333333333 98.5 280 c 128
 81.5 314.666666667 73 354 73 398 c 2
 73 658 l 2
 73 670.666666667 77.6666666667 681.5 87 690.5 c 128
 96.3333333333 699.5 107.333333333 704 120 704 c 256
EndSplineSet
EndChar
StartChar: uni03A9
Encoding: 9784 937 2846
Width: 813
Flags: HW
LayerCount: 2
Fore
SplineSet
407 622 m 256
 367 622 331.5 615.333333333 300.5 602 c 128
 269.5 588.666666667 243.5 570.5 222.5 547.5 c 128
 201.5 524.5 185.5 497.666666667 174.5 467 c 128
 163.5 436.333333333 158 403.333333333 158 368 c 0
 158 310 171.333333333 259.166666667 198 215.5 c 128
 224.666666667 171.833333333 259.666666667 135 303 105 c 0
 314.333333333 97 322.333333333 89.1666666667 327 81.5 c 128
 331.666666667 73.8333333333 334 65 334 55 c 0
 334 39 328.833333333 25.6666666667 318.5 15 c 128
 308.166666667 4.33333333333 294.333333333 -1 277 -1 c 2
 93 -1 l 2
 82.3333333333 -1 72.5 3.16666666667 63.5 11.5 c 128
 54.5 19.8333333333 50 30.3333333333 50 43 c 256
 50 55.6666666667 54.3333333333 66 63 74 c 128
 71.6666666667 82 81.6666666667 86 93 86 c 2
 193 86 l 2
 196.333333333 86 198.666666667 87.3333333333 200 90 c 128
 201.333333333 92.6666666667 200 95.6666666667 196 99 c 0
 158 127 126.833333333 164.166666667 102.5 210.5 c 128
 78.1666666667 256.833333333 66 311.666666667 66 375 c 0
 66 421.666666667 74.3333333333 465.333333333 91 506 c 128
 107.666666667 546.666666667 131 582 161 612 c 128
 191 642 227 665.666666667 269 683 c 128
 311 700.333333333 357 709 407 709 c 256
 457 709 502.833333333 700.333333333 544.5 683 c 128
 586.166666667 665.666666667 622 642 652 612 c 128
 682 582 705.333333333 546.666666667 722 506 c 128
 738.666666667 465.333333333 747 421.666666667 747 375 c 0
 747 311.666666667 734.833333333 256.833333333 710.5 210.5 c 128
 686.166666667 164.166666667 655 127 617 99 c 0
 613 95.6666666667 611.666666667 92.6666666667 613 90 c 128
 614.333333333 87.3333333333 616.666666667 86 620 86 c 2
 720 86 l 2
 731.333333333 86 741.333333333 82 750 74 c 128
 758.666666667 66 763 55.6666666667 763 43 c 256
 763 30.3333333333 758.5 19.8333333333 749.5 11.5 c 128
 740.5 3.16666666667 730.666666667 -1 720 -1 c 2
 536 -1 l 2
 518.666666667 -1 504.833333333 4.33333333333 494.5 15 c 128
 484.166666667 25.6666666667 479 39 479 55 c 0
 479 65 481.333333333 73.8333333333 486 81.5 c 128
 490.666666667 89.1666666667 498.666666667 97 510 105 c 0
 553.333333333 135 588.333333333 171.833333333 615 215.5 c 128
 641.666666667 259.166666667 655 310 655 368 c 0
 655 403.333333333 649.666666667 436.333333333 639 467 c 128
 628.333333333 497.666666667 612.5 524.5 591.5 547.5 c 128
 570.5 570.5 544.5 588.666666667 513.5 602 c 128
 482.5 615.333333333 447 622 407 622 c 256
EndSplineSet
EndChar
StartChar: alpha
Encoding: 9793 945 2847
Width: 631
Flags: HW
LayerCount: 2
Fore
SplineSet
460 64 m 1
 412 14 355.333333333 -11 290 -11 c 0
 249.333333333 -11 210.333333333 -0.333333333333 173 21 c 0
 134.333333333 42.3333333333 103.666666667 73.5 81 114.5 c 128
 58.3333333333 155.5 47 202.333333333 47 255 c 0
 47 308.333333333 58.6666666667 355.666666667 82 397 c 0
 104.666666667 437 134.333333333 467.666666667 171 489 c 128
 207.666666667 510.333333333 247.333333333 521 290 521 c 0
 357.333333333 521 414 495 460 443 c 1
 460 470 l 2
 460 482.666666667 464.5 493.5 473.5 502.5 c 128
 482.5 511.5 493.333333333 516 506 516 c 256
 518.666666667 516 529 511.5 537 502.5 c 128
 545 493.5 549 482.666666667 549 470 c 2
 549 40 l 2
 549 27.3333333333 544.833333333 16.5 536.5 7.5 c 128
 528.166666667 -1.5 517.666666667 -6 505 -6 c 256
 492.333333333 -6 481.666666667 -1.5 473 7.5 c 128
 464.333333333 16.5 460 27.3333333333 460 40 c 2
 460 64 l 1
460 333 m 1
 444.666666667 367.666666667 424.166666667 393.166666667 398.5 409.5 c 128
 372.833333333 425.833333333 341 434 303 434 c 0
 252.333333333 434 212.5 418.333333333 183.5 387 c 128
 154.5 355.666666667 140 311.666666667 140 255 c 256
 140 198.333333333 154.5 154.333333333 183.5 123 c 128
 212.5 91.6666666667 252.333333333 76 303 76 c 0
 333 76 361.333333333 82.6666666667 388 96 c 128
 414.666666667 109.333333333 438.666666667 127.333333333 460 150 c 1
 460 333 l 1
EndSplineSet
EndChar
StartChar: beta
Encoding: 9794 946 2848
Width: 1024
Flags: HW
LayerCount: 2
Fore
SplineSet
219 -94 m 0
 219 -82.6666666667 226.666666667 -52.6666666667 242 -4 c 2
 273 108 l 1
 320.333333333 294.666666667 361 437.333333333 395 536 c 0
 441 671.333333333 511.666666667 739 607 739 c 0
 662.333333333 739 707.666666667 724 743 694 c 0
 777 663.333333333 794 627 794 585 c 0
 794 492.333333333 748.333333333 424.333333333 657 381 c 1
 719.666666667 338.333333333 751 283 751 215 c 0
 751 155 732 105 694 65 c 0
 655.333333333 23.6666666667 605.666666667 3 545 3 c 0
 466.333333333 3 408 36 370 102 c 1
 346 12 l 1
 328 -67.3333333333 314.333333333 -112 305 -122 c 0
 293 -132.666666667 279 -138 263 -138 c 0
 233.666666667 -138 219 -123.333333333 219 -94 c 0
625 122 m 0
 647.666666667 150.666666667 659 185.666666667 659 227 c 0
 659 306.333333333 615 347.333333333 527 350 c 0
 487 351.333333333 467 362.666666667 467 384 c 0
 467 411.333333333 481 425 509 425 c 1
 518 424 l 1
 551 423 l 2
 594.333333333 423 630.333333333 438.333333333 659 469 c 0
 688.333333333 500.333333333 703 535.666666667 703 575 c 0
 703 632.333333333 670 661 604 661 c 0
 567.333333333 661 539.666666667 645.333333333 521 614 c 0
 496.333333333 572.666666667 451.666666667 425.333333333 387 172 c 1
 397 150 415.333333333 129 442 109 c 0
 468.666666667 89.6666666667 497.666666667 80 529 80 c 0
 570.333333333 80 602.333333333 94 625 122 c 0
EndSplineSet
Validated: 1
EndChar
StartChar: gamma
Encoding: 9795 947 2849
Width: 530
Flags: HW
LayerCount: 2
Fore
SplineSet
25 471 m 0
 25 482.333333333 29.5 492.666666667 38.5 502 c 128
 47.5 511.333333333 58.3333333333 516 71 516 c 0
 80.3333333333 516 88.8333333333 513.5 96.5 508.5 c 128
 104.166666667 503.5 109.666666667 497 113 489 c 2
 265 102 l 1
 417 489 l 2
 420.333333333 497 425.833333333 503.5 433.5 508.5 c 128
 441.166666667 513.5 449.666666667 516 459 516 c 0
 471.666666667 516 482.5 511.333333333 491.5 502 c 128
 500.5 492.666666667 505 482.333333333 505 471 c 0
 505 465.666666667 503.333333333 458 500 448 c 2
 312 -4 l 1
 312 -190 l 2
 312 -202.666666667 307.333333333 -213.666666667 298 -223 c 0
 288.666666667 -231.666666667 277.666666667 -236 265 -236 c 256
 252.333333333 -236 241.666666667 -231.666666667 233 -223 c 0
 223.666666667 -213.666666667 219 -202.666666667 219 -190 c 2
 219 -6 l 1
 30 448 l 2
 26.6666666667 458 25 465.666666667 25 471 c 0
EndSplineSet
EndChar
StartChar: delta
Encoding: 9796 948 2850
Width: 606
Flags: HW
LayerCount: 2
Fore
SplineSet
104 597 m 0
 104 627 111 651.333333333 125 670 c 128
 139 688.666666667 156.666666667 703.166666667 178 713.5 c 128
 199.333333333 723.833333333 222.333333333 731 247 735 c 128
 271.666666667 739 294.666666667 741 316 741 c 0
 340.666666667 741 364.833333333 739 388.5 735 c 128
 412.166666667 731 433.333333333 725.166666667 452 717.5 c 128
 470.666666667 709.833333333 485.833333333 700.833333333 497.5 690.5 c 128
 509.166666667 680.166666667 515 668.666666667 515 656 c 0
 515 645.333333333 511.166666667 636.166666667 503.5 628.5 c 128
 495.833333333 620.833333333 486 617 474 617 c 0
 465.333333333 617 456.666666667 619.166666667 448 623.5 c 128
 439.333333333 627.833333333 429 632.666666667 417 638 c 128
 405 643.333333333 390.666666667 648.166666667 374 652.5 c 128
 357.333333333 656.833333333 336.333333333 659 311 659 c 0
 277.666666667 659 250.333333333 654.166666667 229 644.5 c 128
 207.666666667 634.833333333 197 620 197 600 c 0
 197 581.333333333 206 566.166666667 224 554.5 c 128
 242 542.833333333 264.333333333 531.666666667 291 521 c 128
 317.666666667 510.333333333 346.666666667 498.666666667 378 486 c 128
 409.333333333 473.333333333 438.333333333 456.666666667 465 436 c 128
 491.666666667 415.333333333 514 389.333333333 532 358 c 128
 550 326.666666667 559 286.666666667 559 238 c 0
 559 196.666666667 552.166666667 160.333333333 538.5 129 c 128
 524.833333333 97.6666666667 506.333333333 71.6666666667 483 51 c 128
 459.666666667 30.3333333333 432.5 14.8333333333 401.5 4.5 c 128
 370.5 -5.83333333333 337.666666667 -11 303 -11 c 0
 267.666666667 -11 234.5 -5.66666666667 203.5 5 c 128
 172.5 15.6666666667 145.333333333 31.5 122 52.5 c 128
 98.6666666667 73.5 80.3333333333 99.1666666667 67 129.5 c 128
 53.6666666667 159.833333333 47 194.666666667 47 234 c 0
 47 263.333333333 50.6666666667 289.333333333 58 312 c 128
 65.3333333333 334.666666667 76.1666666667 355.5 90.5 374.5 c 128
 104.833333333 393.5 122.5 410.666666667 143.5 426 c 128
 164.5 441.333333333 189 456 217 470 c 1
 289 437 l 1
 260.333333333 424.333333333 236.333333333 410.666666667 217 396 c 128
 197.666666667 381.333333333 182.333333333 366 171 350 c 128
 159.666666667 334 151.666666667 317.166666667 147 299.5 c 128
 142.333333333 281.833333333 140 264 140 246 c 0
 140 218 144.333333333 193.333333333 153 172 c 128
 161.666666667 150.666666667 173.5 132.833333333 188.5 118.5 c 128
 203.5 104.166666667 220.833333333 93.1666666667 240.5 85.5 c 128
 260.166666667 77.8333333333 281 74 303 74 c 0
 325.666666667 74 346.833333333 77.8333333333 366.5 85.5 c 128
 386.166666667 93.1666666667 403.333333333 104 418 118 c 128
 432.666666667 132 444.333333333 149.333333333 453 170 c 128
 461.666666667 190.666666667 466 214 466 240 c 0
 466 269.333333333 460.833333333 294 450.5 314 c 128
 440.166666667 334 426.5 351.166666667 409.5 365.5 c 128
 392.5 379.833333333 373.166666667 392.166666667 351.5 402.5 c 128
 329.833333333 412.833333333 307.666666667 422.333333333 285 431 c 128
 262.333333333 439.666666667 240.166666667 448.5 218.5 457.5 c 128
 196.833333333 466.5 177.5 477.166666667 160.5 489.5 c 128
 143.5 501.833333333 129.833333333 516.666666667 119.5 534 c 128
 109.166666667 551.333333333 104 572.333333333 104 597 c 0
EndSplineSet
EndChar
StartChar: epsilon
Encoding: 9797 949 2851
Width: 520
Flags: HW
LayerCount: 2
Fore
SplineSet
258 -8 m 0
 195.333333333 -8 144.333333333 5 105 31 c 0
 67.6666666667 58.3333333333 49 96 49 144 c 0
 49 201.333333333 80.6666666667 241 144 263 c 1
 140 265 l 2
 116.666666667 274.333333333 98.8333333333 288.5 86.5 307.5 c 128
 74.1666666667 326.5 68 348.666666667 68 374 c 0
 68 420.666666667 85.6666666667 456.666666667 121 482 c 0
 157 508 201.666666667 521 255 521 c 0
 295 521 339 513.333333333 387 498 c 0
 435 482 459 462 459 438 c 0
 459 410.666666667 446.333333333 397 421 397 c 0
 415.666666667 397 395.666666667 404.666666667 361 420 c 0
 325 436 291.333333333 443.666666667 260 443 c 0
 192 442.333333333 158 418 158 370 c 0
 158 319.333333333 198.333333333 294 279 294 c 2
 298 294 l 1
 322 295 l 2
 356 295 373 281.666666667 373 255 c 256
 373 228.333333333 348 215.333333333 298 216 c 0
 191.333333333 218 138 194.333333333 138 145 c 0
 138 95 175 70 249 70 c 0
 304.333333333 70 356 81.3333333333 404 104 c 0
 416.666666667 110.666666667 427.333333333 114 436 114 c 0
 460.666666667 114 473 100 473 72 c 0
 473 54 462.666666667 39.6666666667 442 29 c 0
 396.666666667 4.33333333333 335.333333333 -8 258 -8 c 0
EndSplineSet
EndChar
StartChar: zeta
Encoding: 9798 950 2856
GlifName: zeta
Width: 1024
Flags: HW
LayerCount: 2
Fore
SplineSet
287 -83 m 0
 287 -55 299.666666667 -41 325 -41 c 1
 344 -45 l 1
 380.666666667 -55.6666666667 410 -61 432 -61 c 0
 474.666666667 -61 496 -48.6666666667 496 -24 c 0
 496 -6.66666666667 474 8.33333333333 430 21 c 0
 315.333333333 55 258 107.666666667 258 179 c 0
 258 277.666666667 328 394 468 528 c 1
 433 525 l 2
 410.333333333 525 391.333333333 532.666666667 376 548 c 0
 360.666666667 561.333333333 353 579 353 601 c 0
 353 631 368 661.333333333 398 692 c 0
 428 723.333333333 453 739 473 739 c 0
 500.333333333 739 514 725.666666667 514 699 c 0
 514 687 503 672.333333333 481 655 c 0
 458.333333333 639 447 624.333333333 447 611 c 0
 447 593 472 582.333333333 522 579 c 1
 646.666666667 654.333333333 721.666666667 692 747 692 c 0
 777 692 792 676.666666667 792 646 c 0
 792 625.333333333 777.333333333 608.333333333 748 595 c 0
 633.333333333 547 538.666666667 481 464 397 c 0
 388.666666667 313.666666667 351 244 351 188 c 0
 351 168 358 151.333333333 372 138 c 256
 386 124.666666667 426 106.333333333 492 83 c 0
 558.666666667 58.3333333333 592 22 592 -26 c 0
 592 -57.3333333333 578.666666667 -84 552 -106 c 0
 524.666666667 -127.333333333 490.666666667 -138 450 -138 c 0
 341.333333333 -138 287 -119.666666667 287 -83 c 0
EndSplineSet
Validated: 1
EndChar
StartChar: eta
Encoding: 9799 951 2857
GlifName: eta
Width: 1024
Flags: HW
LayerCount: 2
Fore
SplineSet
521 -97 m 0
 521 -90.3333333333 523.666666667 -79 529 -63 c 2
 576 96 l 1
 622 261.333333333 645 353.333333333 645 372 c 0
 645 405.333333333 628.666666667 422 596 422 c 0
 557.333333333 422 524.333333333 395.333333333 497 342 c 0
 470.333333333 291.333333333 436.666666667 189 396 35 c 0
 386 -5.66666666667 366.666666667 -26 338 -26 c 0
 308 -26 293 -13.6666666667 293 11 c 0
 293 20.3333333333 296 32.3333333333 302 47 c 0
 366 221 398 333.333333333 398 384 c 0
 398 409.333333333 390 422 374 422 c 0
 360 422 344 410.333333333 326 387 c 0
 314.666666667 371.666666667 302.666666667 364 290 364 c 0
 265.333333333 364 253 375.666666667 253 399 c 0
 253 415.666666667 267.666666667 436.333333333 297 461 c 0
 325 486.333333333 352.666666667 499 380 499 c 0
 402 499 420.666666667 491.333333333 436 476 c 0
 450 461.333333333 457 444.333333333 457 425 c 2
 456 414 l 1
 456 409 l 1
 496 469 547 499 609 499 c 0
 645 499 675.333333333 488.666666667 700 468 c 256
 724.666666667 447.333333333 737 418.666666667 737 382 c 0
 737 362.666666667 723 298.333333333 695 189 c 0
 667 79 646 -9 632 -75 c 0
 623.333333333 -117 602.333333333 -138 569 -138 c 0
 537 -138 521 -124.333333333 521 -97 c 0
EndSplineSet
Validated: 1
EndChar
StartChar: theta
Encoding: 9800 952 2858
GlifName: theta
Width: 1024
Flags: HW
LayerCount: 2
Fore
SplineSet
311 35 m 0
 279 71 263 124 263 194 c 0
 263 324.666666667 297 448.333333333 365 565 c 256
 433 681.666666667 512 740 602 740 c 0
 651.333333333 740 690 721.333333333 718 684 c 0
 746 646 760 593 760 525 c 0
 760 399.666666667 729.333333333 277.333333333 668 158 c 0
 607.333333333 38.6666666667 529.333333333 -21 434 -21 c 0
 383.333333333 -21 342.333333333 -2.33333333333 311 35 c 0
668 522 m 0
 668 612 646.333333333 657 603 657 c 0
 522.333333333 657 453.666666667 573.666666667 397 407 c 1
 655 407 l 1
 663.666666667 454.333333333 668 492.666666667 668 522 c 0
545 129 m 128
 578.333333333 173.666666667 608.666666667 241.333333333 636 332 c 1
 373 332 l 1
 361 280 355 233 355 191 c 0
 355 105 381.333333333 62 434 62 c 0
 474.666666667 62 511.666666667 84.3333333333 545 129 c 128
EndSplineSet
Validated: 1
EndChar
StartChar: iota
Encoding: 9801 953 2855
Width: 249
Flags: HW
LayerCount: 2
Fore
SplineSet
124 -6 m 256
 111.333333333 -6 100.5 -1.5 91.5 7.5 c 128
 82.5 16.5 78 27.3333333333 78 40 c 2
 78 469 l 2
 78 481.666666667 82.5 492.666666667 91.5 502 c 128
 100.5 511.333333333 111.333333333 516 124 516 c 0
 137.333333333 516 148.5 511.5 157.5 502.5 c 128
 166.5 493.5 171 482.333333333 171 469 c 2
 171 40 l 2
 171 27.3333333333 166.333333333 16.5 157 7.5 c 128
 147.666666667 -1.5 136.666666667 -6 124 -6 c 256
EndSplineSet
EndChar
StartChar: kappa
Encoding: 9802 954 2860
GlifName: kappa
Width: 1024
Flags: HW
LayerCount: 2
Fore
SplineSet
240 15 m 0
 240 25.6666666667 243.333333333 39 250 55 c 0
 287.333333333 164.333333333 317.666666667 271 341 375 c 0
 355 437.666666667 365.333333333 473.333333333 372 482 c 0
 381.333333333 493.333333333 394.666666667 499 412 499 c 0
 442.666666667 499 458 486.666666667 458 462 c 1
 454 445 l 1
 409 317 l 1
 471 379 530 425.333333333 586 456 c 0
 641.333333333 484.666666667 681 499 705 499 c 0
 730.333333333 499 743 485.666666667 743 459 c 0
 743 442.333333333 737 430 725 422 c 0
 717.666666667 416.666666667 693.333333333 408.666666667 652 398 c 0
 556 369.333333333 470.666666667 321.333333333 396 254 c 1
 442 275.333333333 479.666666667 286 509 286 c 0
 555.666666667 286 579 255 579 193 c 2
 578 153 l 1
 578 124 l 2
 578 78.6666666667 589.666666667 56 613 56 c 0
 638.333333333 56 661 77.6666666667 681 121 c 0
 692.333333333 144.333333333 705.666666667 156 721 156 c 0
 747.666666667 156 761 143.666666667 761 119 c 0
 761 100.333333333 746.333333333 72.3333333333 717 35 c 0
 687 -3 651.333333333 -22 610 -22 c 0
 532.666666667 -22 494 29 494 131 c 1
 496 188 l 2
 496 218.666666667 483.333333333 234 458 234 c 0
 442 234 416.666666667 223 382 201 c 1
 363.333333333 139 348.333333333 79.6666666667 337 23 c 0
 331 -7 315 -22 289 -22 c 0
 256.333333333 -22 240 -9.66666666667 240 15 c 0
EndSplineSet
Validated: 1
EndChar
StartChar: lambda
Encoding: 9803 955 2861
GlifName: lambda
Width: 1024
Flags: HW
LayerCount: 2
Fore
SplineSet
258 23 m 0
 258 35 266.666666667 53.6666666667 284 79 c 2
 468 375 l 1
 534 488 l 1
 536 564 l 2
 536 629.333333333 516.333333333 662 477 662 c 0
 458.333333333 662 435.666666667 650.666666667 409 628 c 0
 402.333333333 622 394.666666667 619 386 619 c 0
 358 619 344 633 344 661 c 0
 344 680.333333333 357.666666667 698.333333333 385 715 c 0
 412.333333333 731 444.333333333 739 481 739 c 0
 576.333333333 739 624 682 624 568 c 1
 620 472 l 1
 619 347 l 1
 620 262 l 2
 621.333333333 167.333333333 627.333333333 110 638 90 c 0
 651.333333333 70.6666666667 674.333333333 61 707 61 c 0
 735 60.3333333333 749 48 749 24 c 0
 749 -6.66666666667 730 -22 692 -22 c 0
 637.333333333 -22 598 -9 574 17 c 0
 549.333333333 42.3333333333 537 100.333333333 537 191 c 1
 543 345 l 1
 398 94 l 2
 362 29.3333333333 340.333333333 -6 333 -12 c 0
 325.666666667 -18.6666666667 316 -22 304 -22 c 0
 273.333333333 -22 258 -7 258 23 c 0
EndSplineSet
Validated: 1
EndChar
StartChar: uni03BC
Encoding: 9804 956 2858
Width: 604
Flags: HW
LayerCount: 2
Fore
SplineSet
129 -236 m 256
 116.333333333 -236 105.5 -231.5 96.5 -222.5 c 128
 87.5 -213.5 83 -202.666666667 83 -190 c 2
 83 470 l 2
 83 482.666666667 87.6666666667 493.5 97 502.5 c 128
 106.333333333 511.5 117.333333333 516 130 516 c 256
 142.666666667 516 153.5 511.5 162.5 502.5 c 128
 171.5 493.5 176 482.666666667 176 470 c 2
 176 196 l 2
 176 115.333333333 212.333333333 75 285 75 c 0
 317 75 345.833333333 83 371.5 99 c 128
 397.166666667 115 422.666666667 138.666666667 448 170 c 1
 448 470 l 2
 448 482.666666667 452.666666667 493.5 462 502.5 c 128
 471.333333333 511.5 482.333333333 516 495 516 c 256
 507.666666667 516 518.5 511.5 527.5 502.5 c 128
 536.5 493.5 541 482.666666667 541 470 c 2
 541 41 l 2
 541 28.3333333333 536.5 17.3333333333 527.5 8 c 128
 518.5 -1.33333333333 507.666666667 -6 495 -6 c 256
 482.333333333 -6 471.333333333 -1.33333333333 462 8 c 128
 452.666666667 17.3333333333 448 28.3333333333 448 41 c 2
 448 79 l 1
 420 48.3333333333 392.333333333 25.6666666667 365 11 c 128
 337.666666667 -3.66666666667 305.333333333 -11 268 -11 c 0
 232.666666667 -11 202 -2.33333333333 176 15 c 1
 176 -190 l 2
 176 -202.666666667 171.333333333 -213.5 162 -222.5 c 128
 152.666666667 -231.5 141.666666667 -236 129 -236 c 256
EndSplineSet
EndChar
StartChar: nu
Encoding: 9805 957 2859
Width: 1024
Flags: HW
LayerCount: 2
Fore
SplineSet
266 19 m 0
 266 27.6666666667 272.666666667 41.3333333333 286 60 c 0
 342 135.333333333 370 208.666666667 370 280 c 0
 370 326 349 374.666666667 307 426 c 0
 298.333333333 436.666666667 294 446.666666667 294 456 c 0
 294 484.666666667 311.333333333 499 346 499 c 0
 370.666666667 499 396 477.666666667 422 435 c 0
 448.666666667 393.666666667 462 349.666666667 462 303 c 0
 462 244.333333333 440.666666667 177.666666667 398 103 c 1
 387 81 l 1
 553.666666667 142.333333333 637 239.666666667 637 373 c 1
 632 442 l 1
 631 459 l 2
 631 485.666666667 647.333333333 499 680 499 c 0
 714.666666667 499 732 464.666666667 732 396 c 0
 732 235.333333333 650.333333333 116 487 38 c 0
 401 -2 341 -22 307 -22 c 0
 279.666666667 -22 266 -8.33333333333 266 19 c 0
EndSplineSet
Validated: 1
EndChar
StartChar: xi
Encoding: 9806 958 2860
Width: 541
Flags: HW
LayerCount: 2
Fore
SplineSet
314 86 m 0
 373.333333333 86 420.5 74.6666666667 455.5 52 c 128
 490.5 29.3333333333 508 -6.33333333333 508 -55 c 0
 508 -88.3333333333 500.833333333 -115.666666667 486.5 -137 c 128
 472.166666667 -158.333333333 456 -175 438 -187 c 0
 419.333333333 -199 402.333333333 -205 387 -205 c 0
 373.666666667 -205 363.5 -201.333333333 356.5 -194 c 128
 349.5 -186.666666667 346 -177.666666667 346 -167 c 0
 346 -155 349.833333333 -145.833333333 357.5 -139.5 c 128
 365.166666667 -133.166666667 373.5 -127 382.5 -121 c 128
 391.5 -115 399.833333333 -108 407.5 -100 c 128
 415.166666667 -92 419 -80.3333333333 419 -65 c 0
 419 -53 416.5 -43.1666666667 411.5 -35.5 c 128
 406.5 -27.8333333333 399.833333333 -21.6666666667 391.5 -17 c 128
 383.166666667 -12.3333333333 373.5 -9.16666666667 362.5 -7.5 c 128
 351.5 -5.83333333333 340.333333333 -5 329 -5 c 0
 288.333333333 -5 251.333333333 -0.666666666667 218 8 c 128
 184.666666667 16.6666666667 156.333333333 29.6666666667 133 47 c 128
 109.666666667 64.3333333333 91.6666666667 85.8333333333 79 111.5 c 128
 66.3333333333 137.166666667 60 167 60 201 c 0
 60 227 64 250.333333333 72 271 c 128
 80 291.666666667 90.1666666667 309.666666667 102.5 325 c 128
 114.833333333 340.333333333 128.833333333 353 144.5 363 c 128
 160.166666667 373 175.666666667 380.333333333 191 385 c 1
 176.333333333 390.333333333 162.333333333 397.5 149 406.5 c 128
 135.666666667 415.5 124 426.666666667 114 440 c 128
 104 453.333333333 96.1666666667 469.166666667 90.5 487.5 c 128
 84.8333333333 505.833333333 82 526.666666667 82 550 c 0
 82 580 87.3333333333 606.833333333 98 630.5 c 128
 108.666666667 654.166666667 123.666666667 674.166666667 143 690.5 c 128
 162.333333333 706.833333333 185.5 719.333333333 212.5 728 c 128
 239.5 736.666666667 269.333333333 741 302 741 c 0
 329.333333333 741 355 738.333333333 379 733 c 128
 403 727.666666667 424.166666667 720.666666667 442.5 712 c 128
 460.833333333 703.333333333 475.333333333 693.833333333 486 683.5 c 128
 496.666666667 673.166666667 502 663 502 653 c 0
 502 643.666666667 498.333333333 635.166666667 491 627.5 c 128
 483.666666667 619.833333333 474.333333333 616 463 616 c 0
 454.333333333 616 444.5 618.166666667 433.5 622.5 c 128
 422.5 626.833333333 410.5 631.5 397.5 636.5 c 128
 384.5 641.5 370.166666667 646 354.5 650 c 128
 338.833333333 654 322 656 304 656 c 0
 268 656 237.5 646.166666667 212.5 626.5 c 128
 187.5 606.833333333 175 577.666666667 175 539 c 0
 175 499 188.5 469 215.5 449 c 128
 242.5 429 277.333333333 419 320 419 c 2
 416 419 l 2
 427.333333333 419 437.333333333 414.833333333 446 406.5 c 128
 454.666666667 398.166666667 459 387.666666667 459 375 c 256
 459 362.333333333 454.666666667 352 446 344 c 128
 437.333333333 336 427.333333333 332 416 332 c 2
 304 332 l 2
 258 332 221.333333333 322.333333333 194 303 c 128
 166.666666667 283.666666667 153 253 153 211 c 0
 153 185.666666667 158 164.833333333 168 148.5 c 128
 178 132.166666667 190.666666667 119.333333333 206 110 c 128
 221.333333333 100.666666667 238.666666667 94.3333333333 258 91 c 128
 277.333333333 87.6666666667 296 86 314 86 c 0
EndSplineSet
EndChar
StartChar: omicron
Encoding: 9807 959 2865
GlifName: omicron
Width: 1024
Flags: HW
LayerCount: 2
Fore
SplineSet
326 33 m 0
 292.666666667 68.3333333333 276 113.666666667 276 169 c 0
 276 252.333333333 303.666666667 328.333333333 359 397 c 0
 415 465 480 499 554 499 c 0
 612.666666667 499 659.333333333 482 694 448 c 0
 728.666666667 413.333333333 746 369 746 315 c 0
 746 238.333333333 721.666666667 163.333333333 673 90 c 0
 623 15.3333333333 556.333333333 -22 473 -22 c 0
 409.666666667 -22 360.666666667 -3.66666666667 326 33 c 0
602 146 m 0
 634 204 650 263.666666667 650 325 c 0
 650 388.333333333 618 420 554 420 c 0
 504.666666667 420 462 392 426 336 c 0
 390 281.333333333 372 224 372 164 c 0
 372 93.3333333333 405.666666667 58 473 58 c 0
 527 58 570 87.3333333333 602 146 c 0
EndSplineSet
Validated: 1
EndChar
StartChar: pi
Encoding: 9808 960 2862
Width: 595
Flags: HW
LayerCount: 2
Fore
SplineSet
18 471 m 256
 18 497.666666667 31.3333333333 511 58 511 c 2
 537 511 l 2
 563.666666667 511 577 497.666666667 577 471 c 256
 577 444.333333333 563.666666667 431 537 431 c 2
 489 431 l 1
 489 39 l 2
 489 26.3333333333 484.5 15.5 475.5 6.5 c 128
 466.5 -2.5 455.666666667 -7 443 -7 c 256
 430.333333333 -7 419.333333333 -2.5 410 6.5 c 128
 400.666666667 15.5 396 26.3333333333 396 39 c 2
 396 431 l 1
 214 431 l 1
 214 391 213 353.5 211 318.5 c 128
 209 283.5 206 250 202 218 c 128
 198 186 193 155 187 125 c 128
 181 95 174 65 166 35 c 0
 158 8.33333333333 142 -5 118 -5 c 0
 103.333333333 -5 91.8333333333 -0.833333333333 83.5 7.5 c 128
 75.1666666667 15.8333333333 71 25.6666666667 71 37 c 0
 71 42.3333333333 71.8333333333 47.3333333333 73.5 52 c 128
 75.1666666667 56.6666666667 77 62.3333333333 79 69 c 0
 87.6666666667 97 94.8333333333 124.666666667 100.5 152 c 128
 106.166666667 179.333333333 110.833333333 207.666666667 114.5 237 c 128
 118.166666667 266.333333333 120.666666667 296.833333333 122 328.5 c 128
 123.333333333 360.166666667 124 394.333333333 124 431 c 1
 58 431 l 2
 31.3333333333 431 18 444.333333333 18 471 c 256
EndSplineSet
EndChar
StartChar: rho
Encoding: 9809 961 2863
Width: 631
Flags: HW
LayerCount: 2
Fore
SplineSet
124 -236 m 0
 137.333333333 -236 148.5 -231.5 157.5 -222.5 c 128
 166.5 -213.5 171 -202.333333333 171 -189 c 2
 171 282 l 2
 171 324 186.5 359.333333333 217.5 388 c 128
 248.5 416.666666667 285.333333333 431 328 431 c 0
 378.666666667 431 418.5 415.833333333 447.5 385.5 c 128
 476.5 355.166666667 491 311.666666667 491 255 c 256
 491 198.333333333 476.5 154.333333333 447.5 123 c 128
 418.5 91.6666666667 378.666666667 76 328 76 c 0
 298 76 268.5 83.1666666667 239.5 97.5 c 128
 210.5 111.833333333 184.333333333 133.333333333 161 162 c 1
 160 76 l 1
 210 18 270.333333333 -11 341 -11 c 0
 383.666666667 -11 423.5 -0.166666666667 460.5 21.5 c 128
 497.5 43.1666666667 527.333333333 74 550 114 c 0
 572.666666667 152.666666667 584 199.666666667 584 255 c 0
 584 307.666666667 572.833333333 354.5 550.5 395.5 c 128
 528.166666667 436.5 497.666666667 468 459 490 c 0
 441.666666667 500 421.833333333 507.666666667 399.5 513 c 128
 377.166666667 518.333333333 354 521 330 521 c 0
 260 521 200.5 499.166666667 151.5 455.5 c 128
 102.5 411.833333333 78 355.666666667 78 287 c 2
 78 -189 l 2
 78 -201.666666667 82.5 -212.666666667 91.5 -222 c 128
 100.5 -231.333333333 111.333333333 -236 124 -236 c 0
EndSplineSet
EndChar
StartChar: sigma
Encoding: 9810 963 2864
Width: 630
Flags: HW
LayerCount: 2
Fore
SplineSet
312 426 m 2
 258.666666667 426 216.666666667 410.833333333 186 380.5 c 128
 155.333333333 350.166666667 140 307.333333333 140 252 c 0
 140 226 143.5 202.166666667 150.5 180.5 c 128
 157.5 158.833333333 167.833333333 140.166666667 181.5 124.5 c 128
 195.166666667 108.833333333 211.833333333 96.5 231.5 87.5 c 128
 251.166666667 78.5 274 74 300 74 c 256
 326 74 349.166666667 78.5 369.5 87.5 c 128
 389.833333333 96.5 406.666666667 108.833333333 420 124.5 c 128
 433.333333333 140.166666667 443.5 158.5 450.5 179.5 c 128
 457.5 200.5 461 223.333333333 461 248 c 0
 461 284.666666667 453.833333333 317.5 439.5 346.5 c 128
 425.166666667 375.5 407 405.333333333 385 436 c 1
 468 436 l 1
 500 403.333333333 522 371.5 534 340.5 c 128
 546 309.5 552 276 552 240 c 0
 552 202 545.833333333 167.5 533.5 136.5 c 128
 521.166666667 105.5 504 79 482 57 c 128
 460 35 433.5 18.1666666667 402.5 6.5 c 128
 371.5 -5.16666666667 337.333333333 -11 300 -11 c 0
 261.333333333 -11 226.333333333 -4.66666666667 195 8 c 128
 163.666666667 20.6666666667 137 38.3333333333 115 61 c 128
 93 83.6666666667 76.1666666667 111 64.5 143 c 128
 52.8333333333 175 47 210.333333333 47 249 c 0
 47 290.333333333 53.5 327.333333333 66.5 360 c 128
 79.5 392.666666667 97.6666666667 420.166666667 121 442.5 c 128
 144.333333333 464.833333333 172.333333333 481.833333333 205 493.5 c 128
 237.666666667 505.166666667 273.666666667 511 313 511 c 2
 568 511 l 2
 580.666666667 511 591.166666667 507.166666667 599.5 499.5 c 128
 607.833333333 491.833333333 612 481.666666667 612 469 c 0
 612 455.666666667 607.833333333 445.166666667 599.5 437.5 c 128
 591.166666667 429.833333333 580.666666667 426 568 426 c 2
 312 426 l 2
EndSplineSet
EndChar
StartChar: tau
Encoding: 9811 964 2865
Width: 430
Flags: HW
LayerCount: 2
Fore
SplineSet
18 471 m 256
 18 497.666666667 31.3333333333 511 58 511 c 2
 362 511 l 2
 373.333333333 511 382.833333333 507.166666667 390.5 499.5 c 128
 398.166666667 491.833333333 402 482.333333333 402 471 c 256
 402 459.666666667 398.166666667 450.166666667 390.5 442.5 c 128
 382.833333333 434.833333333 373.333333333 431 362 431 c 2
 247 431 l 1
 247 125 l 2
 247 104.333333333 251.166666667 89.6666666667 259.5 81 c 128
 267.833333333 72.3333333333 280.333333333 68 297 68 c 0
 307 68 315.333333333 69 322 71 c 128
 328.666666667 73 335.333333333 74 342 74 c 0
 351.333333333 74 359.5 70.6666666667 366.5 64 c 128
 373.5 57.3333333333 377 48.6666666667 377 38 c 0
 377 29.3333333333 374.166666667 21.1666666667 368.5 13.5 c 128
 362.833333333 5.83333333333 353.666666667 0 341 -4 c 0
 335.666666667 -5.33333333333 328.166666667 -6.83333333333 318.5 -8.5 c 128
 308.833333333 -10.1666666667 297.666666667 -11 285 -11 c 0
 241.666666667 -11 209 0.666666666667 187 24 c 128
 165 47.3333333333 154 80.6666666667 154 124 c 2
 154 431 l 1
 58 431 l 2
 31.3333333333 431 18 444.333333333 18 471 c 256
EndSplineSet
EndChar
StartChar: upsilon
Encoding: 9812 965 2866
Width: 599
Flags: HW
LayerCount: 2
Fore
SplineSet
120 516 m 256
 132.666666667 516 143.5 511.5 152.5 502.5 c 128
 161.5 493.5 166 482.666666667 166 470 c 2
 166 199 l 2
 166 161 178.333333333 131 203 109 c 128
 227.666666667 87 260 76 300 76 c 256
 340 76 372.166666667 87 396.5 109 c 128
 420.833333333 131 433 161 433 199 c 2
 433 470 l 2
 433 482.666666667 437.5 493.5 446.5 502.5 c 128
 455.5 511.5 466.333333333 516 479 516 c 256
 491.666666667 516 502.666666667 511.5 512 502.5 c 128
 521.333333333 493.5 526 482.666666667 526 470 c 2
 526 199 l 2
 526 167 520.666666667 138.166666667 510 112.5 c 128
 499.333333333 86.8333333333 484 64.8333333333 464 46.5 c 128
 444 28.1666666667 420.166666667 14 392.5 4 c 128
 364.833333333 -6 334 -11 300 -11 c 256
 266 -11 235 -6 207 4 c 128
 179 14 155.166666667 28.1666666667 135.5 46.5 c 128
 115.833333333 64.8333333333 100.5 86.8333333333 89.5 112.5 c 128
 78.5 138.166666667 73 167 73 199 c 2
 73 470 l 2
 73 482.666666667 77.6666666667 493.5 87 502.5 c 128
 96.3333333333 511.5 107.333333333 516 120 516 c 256
EndSplineSet
EndChar
StartChar: phi
Encoding: 9813 966 2867
Width: 736
Flags: HW
LayerCount: 2
Fore
SplineSet
171 501 m 0
 184.333333333 509.666666667 198 513.166666667 212 511.5 c 128
 226 509.833333333 236.666666667 503 244 491 c 256
 251.333333333 479 252.666666667 466.666666667 248 454 c 128
 243.333333333 441.333333333 234.666666667 431.333333333 222 424 c 0
 196 408.666666667 175.833333333 386.833333333 161.5 358.5 c 128
 147.166666667 330.166666667 140 297.333333333 140 260 c 0
 140 228 145.166666667 200.166666667 155.5 176.5 c 128
 165.833333333 152.833333333 180 133.333333333 198 118 c 128
 216 102.666666667 237 91.3333333333 261 84 c 128
 285 76.6666666667 310.666666667 73 338 73 c 2
 388 73 l 2
 415.333333333 73 441.666666667 76.8333333333 467 84.5 c 128
 492.333333333 92.1666666667 514.5 103.833333333 533.5 119.5 c 128
 552.5 135.166666667 567.666666667 155.166666667 579 179.5 c 128
 590.333333333 203.833333333 596 232.666666667 596 266 c 0
 596 297.333333333 592.166666667 323.833333333 584.5 345.5 c 128
 576.833333333 367.166666667 567.166666667 384.833333333 555.5 398.5 c 128
 543.833333333 412.166666667 530.833333333 422.166666667 516.5 428.5 c 128
 502.166666667 434.833333333 488.333333333 438 475 438 c 0
 455 438 439 431.833333333 427 419.5 c 128
 415 407.166666667 409 390.333333333 409 369 c 2
 409 -190 l 2
 409 -205.333333333 404.5 -216.833333333 395.5 -224.5 c 128
 386.5 -232.166666667 375.333333333 -236 362 -236 c 256
 348.666666667 -236 337.666666667 -232.166666667 329 -224.5 c 128
 320.333333333 -216.833333333 316 -205.333333333 316 -190 c 2
 316 369 l 2
 316 391 320 411.166666667 328 429.5 c 128
 336 447.833333333 347.166666667 463.5 361.5 476.5 c 128
 375.833333333 489.5 392.833333333 499.666666667 412.5 507 c 128
 432.166666667 514.333333333 453.666666667 518 477 518 c 0
 503.666666667 518 529.666666667 513 555 503 c 128
 580.333333333 493 603 477.833333333 623 457.5 c 128
 643 437.166666667 659 411.5 671 380.5 c 128
 683 349.5 689 313 689 271 c 0
 689 225 680.833333333 184.833333333 664.5 150.5 c 128
 648.166666667 116.166666667 626.666666667 87.3333333333 600 64 c 128
 573.333333333 40.6666666667 542.833333333 23.1666666667 508.5 11.5 c 128
 474.166666667 -0.166666666667 438.666666667 -6 402 -6 c 2
 323 -6 l 2
 287 -6 252.333333333 -0.333333333333 219 11 c 128
 185.666666667 22.3333333333 156.166666667 39.3333333333 130.5 62 c 128
 104.833333333 84.6666666667 84.5 112.833333333 69.5 146.5 c 128
 54.5 180.166666667 47 219.333333333 47 264 c 0
 47 317.333333333 57.6666666667 364.166666667 79 404.5 c 128
 100.333333333 444.833333333 131 477 171 501 c 0
EndSplineSet
EndChar
StartChar: chi
Encoding: 9814 967 2868
Width: 541
Flags: HW
LayerCount: 2
Fore
SplineSet
58 440 m 2
 219 147 l 1
 59 -143 l 2
 53 -153.666666667 50 -164 50 -174 c 0
 50 -186.666666667 54 -197.333333333 62 -206 c 0
 69.3333333333 -214.666666667 80 -219 94 -219 c 0
 112.666666667 -219 126 -211.666666667 134 -197 c 2
 270 52 l 1
 408 -200 l 2
 414.666666667 -212.666666667 426.666666667 -219 444 -219 c 0
 458 -219 469.333333333 -214.333333333 478 -205 c 128
 486.666666667 -195.666666667 491 -184.666666667 491 -172 c 0
 491 -162 488.333333333 -152 483 -142 c 2
 322 149 l 1
 483 443 l 2
 489 453.666666667 492 463.666666667 492 473 c 0
 492 485 487.5 495.166666667 478.5 503.5 c 128
 469.5 511.833333333 458.333333333 516 445 516 c 0
 428.333333333 516 416.333333333 509 409 495 c 2
 271 242 l 1
 132 495 l 2
 124.666666667 509 112.666666667 516 96 516 c 0
 82.6666666667 516 71.6666666667 511.666666667 63 503 c 0
 53.6666666667 494.333333333 49 483.666666667 49 471 c 0
 49 461 52 450.666666667 58 440 c 2
EndSplineSet
EndChar
StartChar: psi
Encoding: 9815 968 2869
Width: 1024
Flags: HW
LayerCount: 2
Fore
SplineSet
373 -101 m 1
 414 38 l 1
 309.333333333 58.6666666667 257 109 257 189 c 0
 257 227.666666667 274.333333333 291.666666667 309 381 c 0
 313.666666667 392.333333333 316 402 316 410 c 0
 316 421.333333333 310 427 298 427 c 0
 282.666666667 427 263.333333333 411 240 379 c 0
 227.333333333 361 214.333333333 352 201 352 c 0
 174.333333333 352 161 364.333333333 161 389 c 0
 161 409.666666667 179.666666667 435 217 465 c 0
 255 495.666666667 291 511 325 511 c 0
 377.666666667 511 404 488.666666667 404 444 c 0
 404 423.333333333 394 384 374 326 c 0
 354 267.333333333 344 222.333333333 344 191 c 0
 344 152.333333333 373.666666667 126.333333333 433 113 c 1
 502 387 l 2
 533.333333333 516.333333333 554.333333333 611.333333333 565 672 c 0
 571.666666667 707.333333333 590 725 620 725 c 0
 652.666666667 725 669 712 669 686 c 1
 667 674 l 1
 623 510 l 1
 593 401 l 1
 517 112 l 1
 579.666666667 122.666666667 630.333333333 154.333333333 669 207 c 0
 705.666666667 258.333333333 724 325.666666667 724 409 c 1
 722 444 l 1
 720 461 l 1
 720 490.333333333 735.333333333 505 766 505 c 0
 783.333333333 505 796.333333333 499 805 487 c 0
 812.333333333 473.666666667 816 443.333333333 816 396 c 0
 816 286.666666667 784.666666667 199.333333333 722 134 c 0
 659.333333333 67.3333333333 584.333333333 32.3333333333 497 29 c 1
 465 -102 l 2
 457 -126 441.333333333 -138 418 -138 c 0
 388 -138 373 -125.666666667 373 -101 c 1
EndSplineSet
Validated: 1
EndChar
StartChar: omega
Encoding: 9816 969 2870
Width: 1024
Flags: HW
LayerCount: 2
Fore
SplineSet
206 36 m 0
 176.666666667 73.3333333333 162 116.333333333 162 165 c 0
 162 237.666666667 191.333333333 312 250 388 c 0
 308 462 353.666666667 499 387 499 c 0
 415.666666667 499 430 485.666666667 430 459 c 0
 430 445.666666667 420.666666667 431.333333333 402 416 c 0
 305.333333333 335.333333333 257 250 257 160 c 0
 257 96 281.333333333 64 330 64 c 0
 400.666666667 64 452 143 484 301 c 0
 490 333.666666667 505.333333333 350 530 350 c 0
 559.333333333 350 574 339 574 317 c 1
 569 295 l 1
 549 235 539 184.333333333 539 143 c 0
 539 88.3333333333 564.666666667 61 616 61 c 0
 658 61 693.666666667 82.6666666667 723 126 c 0
 753 169.333333333 768 216 768 266 c 0
 768 322.666666667 747 372 705 414 c 0
 686.333333333 432 677 446.666666667 677 458 c 0
 677 485.333333333 692 499 722 499 c 0
 752.666666667 499 783.666666667 473.333333333 815 422 c 0
 846.333333333 369.333333333 862 316.333333333 862 263 c 0
 862 186.333333333 837.333333333 120 788 64 c 0
 739.333333333 6.66666666667 683.666666667 -22 621 -22 c 0
 547 -22 500.666666667 18.3333333333 482 99 c 1
 446 18.3333333333 392.333333333 -22 321 -22 c 0
 273.666666667 -22 235.333333333 -2.66666666667 206 36 c 0
EndSplineSet
Validated: 1
EndChar
StartChar: uni0401
Encoding: 10023 1025 2877
Width: 1024
Flags: HW
LayerCount: 2
Fore
SplineSet
351 400 m 1
 686 400 l 2
 722 400 740 385 740 355 c 256
 740 325 722 310 686 310 c 2
 351 310 l 1
 351 130 l 2
 351.666666667 98 368.666666667 82 402 82 c 2
 725 82 l 2
 761.666666667 82 780 67 780 37 c 256
 780 7 761.666666667 -8 725 -8 c 2
 342 -8 l 2
 317.333333333 -8 296.666666667 0.666666666667 280 18 c 128
 263.333333333 35.3333333333 255 56 255 80 c 2
 255 612 l 2
 255 637.333333333 263.666666667 658.333333333 281 675 c 128
 298.333333333 691.666666667 318.666666667 700 342 700 c 2
 718 700 l 2
 754 700 772 684.666666667 772 654 c 0
 772 624.666666667 754 610 718 610 c 2
 400 610 l 2
 367.333333333 610 351 594.333333333 351 563 c 2
 351 400 l 1
 351 400 l 1
399 855 m 1
 436.333333333 855 455 836 455 798 c 128
 455 760 436 741 398 741 c 128
 360 741 341 760.333333333 341 799 c 0
 341 836.333333333 360.333333333 855 399 855 c 1
 399 855 l 1
638 855 m 1
 675.333333333 855 694 836 694 798 c 128
 694 760 675 741 637 741 c 128
 599 741 580 760.333333333 580 799 c 0
 580 836.333333333 599.333333333 855 638 855 c 1
 638 855 l 1
EndSplineSet
Validated: 5
EndChar
StartChar: uni0410
Encoding: 10017 1040 2871
Width: 1024
Flags: HW
LayerCount: 2
Fore
SplineSet
263 24 m 2
 250.333333333 -6.66666666667 231.333333333 -22 206 -22 c 0
 174.666666667 -22 159 -8.33333333333 159 19 c 0
 159 26.3333333333 161.333333333 36 166 48 c 2
 435 678 l 2
 452.333333333 718.666666667 478 739 512 739 c 0
 544.666666667 739 569.666666667 718.666666667 587 678 c 2
 856 48 l 2
 861.333333333 36.6666666667 864 27 864 19 c 0
 864 -8.33333333333 848 -22 816 -22 c 0
 790.666666667 -22 772 -6.66666666667 760 24 c 2
 690 193 l 1
 332 193 l 1
 263 24 l 2
524 595 m 2
 521.333333333 603 517 607 511 607 c 0
 506.333333333 607 502 603 498 595 c 2
 369 282 l 1
 653 282 l 1
 524 595 l 2
EndSplineSet
Validated: 1
EndChar
StartChar: uni0411
Encoding: 10018 1041 2872
Width: 1024
Flags: HW
LayerCount: 2
Fore
SplineSet
255 637 m 2
 255 685.979884406 293.954559694 725 344 725 c 2
 667 725 l 2
 701 725 718 710 718 680 c 256
 718 650 701 635 667 635 c 2
 406 635 l 2
 371.333333333 635 354 618 354 584 c 2
 354 422 l 1
 559 422 l 1
 715.666666667 418.666666667 794 346.666666667 794 206 c 0
 794 66.6666666667 715.666666667 -4.66666666667 559 -8 c 1
 344 -8 l 2
 294.203095419 -8 255 30.5029856163 255 80 c 2
 255 637 l 2
354 135 m 2
 354 99.6666666667 371.333333333 82 406 82 c 2
 529 82 l 2
 637.666666667 82 692 123.666666667 692 207 c 0
 692 288.333333333 639.333333333 329.666666667 534 331 c 1
 354 331 l 1
 354 135 l 2
EndSplineSet
EndChar
StartChar: uni0413
Encoding: 10020 1043 2878
GlifName: uni0413
Width: 1024
Flags: HW
LayerCount: 2
Fore
SplineSet
283 638 m 1
 283 662.666666667 291.666666667 683.333333333 309 700 c 128
 326.333333333 716.666666667 346.666666667 725 370 725 c 2
 749 725 l 2
 786.333333333 725 805 709.666666667 805 679 c 0
 805 645 786.333333333 628 749 628 c 2
 438 628 l 2
 404 628 387 611.333333333 387 578 c 2
 387 37 l 2
 387 -2.33333333333 369.666666667 -22 335 -22 c 128
 300.333333333 -22 283 -2.33333333333 283 37 c 2
 283 638 l 1
 283 638 l 1
EndSplineSet
Validated: 5
EndChar
